<?xml version="1.0" encoding="utf-8"?>
<!-- Generator: Adobe Illustrator 16.0.4, SVG Export Plug-In . SVG Version: 6.00 Build 0)  -->
<!DOCTYPE svg PUBLIC "-//W3C//DTD SVG 1.1//EN" "http://www.w3.org/Graphics/SVG/1.1/DTD/svg11.dtd">
<svg version="1.1" id="okcupid" xmlns="http://www.w3.org/2000/svg" xmlns:xlink="http://www.w3.org/1999/xlink" x="0px" y="0px"
	 width="134.937px" height="82.902px" viewBox="-14.968 -0.001 134.937 82.902"
	 enable-background="new -14.968 -0.001 134.937 82.902" xml:space="preserve">
<g>
	<g>
		<path fill="#FFFFFF" d="M105.442,36.732c-1.261,0.07-2.23,0.6-2.931,1.61c-1.399,1.99-1.369,4.23-0.949,6.458
			c0.22,1.2,1.229,1.721,2.438,1.682c1.24-0.062,2.32-0.41,2.54-1.86c0.301-1.96,0.57-3.94,0.9-6.2
			C107.712,37.113,106.902,36.652,105.442,36.732z M105.442,36.732c-1.261,0.07-2.23,0.6-2.931,1.61
			c-1.399,1.99-1.369,4.23-0.949,6.458c0.22,1.2,1.229,1.721,2.438,1.682c1.24-0.062,2.32-0.41,2.54-1.86
			c0.301-1.96,0.57-3.94,0.9-6.2C107.712,37.113,106.902,36.652,105.442,36.732z M105.442,36.732c-1.261,0.07-2.23,0.6-2.931,1.61
			c-1.399,1.99-1.369,4.23-0.949,6.458c0.22,1.2,1.229,1.721,2.438,1.682c1.24-0.062,2.32-0.41,2.54-1.86
			c0.301-1.96,0.57-3.94,0.9-6.2C107.712,37.113,106.902,36.652,105.442,36.732z M105.442,36.732c-1.261,0.07-2.23,0.6-2.931,1.61
			c-1.399,1.99-1.369,4.23-0.949,6.458c0.22,1.2,1.229,1.721,2.438,1.682c1.24-0.062,2.32-0.41,2.54-1.86
			c0.301-1.96,0.57-3.94,0.9-6.2C107.712,37.113,106.902,36.652,105.442,36.732z M75.853,36.792c-1.95-0.07-2.78,0.82-3.12,3.33
			c-0.21,1.49-0.431,2.97-0.62,4.46c-0.229,1.79,0.22,2.25,1.979,2.07c2.729-0.271,4.34-2.521,4.329-6.05
			C78.412,37.962,77.662,36.863,75.853,36.792z M105.442,36.732c-1.261,0.07-2.23,0.6-2.931,1.61
			c-1.399,1.99-1.369,4.23-0.949,6.458c0.22,1.2,1.229,1.721,2.438,1.682c1.24-0.062,2.32-0.41,2.54-1.86
			c0.301-1.96,0.57-3.94,0.9-6.2C107.712,37.113,106.902,36.652,105.442,36.732z M105.442,36.732c-1.261,0.07-2.23,0.6-2.931,1.61
			c-1.399,1.99-1.369,4.23-0.949,6.458c0.22,1.2,1.229,1.721,2.438,1.682c1.24-0.062,2.32-0.41,2.54-1.86
			c0.301-1.96,0.57-3.94,0.9-6.2C107.712,37.113,106.902,36.652,105.442,36.732z M75.853,36.792c-1.95-0.07-2.78,0.82-3.12,3.33
			c-0.21,1.49-0.431,2.97-0.62,4.46c-0.229,1.79,0.22,2.25,1.979,2.07c2.729-0.271,4.34-2.521,4.329-6.05
			C78.412,37.962,77.662,36.863,75.853,36.792z M75.853,36.792c-1.95-0.07-2.78,0.82-3.12,3.33c-0.21,1.49-0.431,2.97-0.62,4.46
			c-0.229,1.79,0.22,2.25,1.979,2.07c2.729-0.271,4.34-2.521,4.329-6.05C78.412,37.962,77.662,36.863,75.853,36.792z
			 M105.442,36.732c-1.261,0.07-2.23,0.6-2.931,1.61c-1.399,1.99-1.369,4.23-0.949,6.458c0.22,1.2,1.229,1.721,2.438,1.682
			c1.24-0.062,2.32-0.41,2.54-1.86c0.301-1.96,0.57-3.94,0.9-6.2C107.712,37.113,106.902,36.652,105.442,36.732z M105.442,36.732
			c-1.261,0.07-2.23,0.6-2.931,1.61c-1.399,1.99-1.369,4.23-0.949,6.458c0.22,1.2,1.229,1.721,2.438,1.682
			c1.24-0.062,2.32-0.41,2.54-1.86c0.301-1.96,0.57-3.94,0.9-6.2C107.712,37.113,106.902,36.652,105.442,36.732z M75.853,36.792
			c-1.95-0.07-2.78,0.82-3.12,3.33c-0.21,1.49-0.431,2.97-0.62,4.46c-0.229,1.79,0.22,2.25,1.979,2.07
			c2.729-0.271,4.34-2.521,4.329-6.05C78.412,37.962,77.662,36.863,75.853,36.792z M118.052,43.582
			c-0.891-0.779-0.899-1.62-0.75-2.69c0.771-5.28,1.42-10.59,2.221-15.87c0.21-1.45-0.21-2.32-1.36-3.15
			c-5.729-4.13-12.47-1.29-13.33,5.65c-0.029,0.24-0.13,0.47-0.229,0.8c-1.5,0.38-3.011,0.56-4.591,0.17
			c-0.029-0.62-0.04-1.11-0.069-1.61c-0.261-4.15-2.811-6.59-6.94-6.64c-4.479-0.04-7.318,2.6-7.67,7.14
			c-0.18,2.39-0.56,2.68-2.739,1.76c-2.431-1.03-4.841-1.22-7.311-0.3c-0.67,0.25-1.26,0.26-1.93,0c-2.37-0.92-4.761-0.72-7.12,0.02
			c-0.83,0.25-1.562,0.38-2.42,0.06c-3.03-1.16-5.9-0.91-8.5,1.38c-3.17-2.55-6.65-2.47-10.23-1.32c-0.74,0.23-1.42,0.36-2.18,0.09
			c-3.92-1.43-7.721-0.93-11.45,0.72c-0.51,0.24-1.07,0.72-1.63,0.29c-2.391-1.84-5.16-2.05-7.95-1.66
			c-0.34-1.41,0.18-2.44,0.23-3.51c0.029-0.74,0.279-1.51-0.341-2.14c-2.479-2.52-5.569-2.88-8.83-2.4
			c-2.88,0.42-4.56,2.29-5.239,5.05c-0.34,1.36-0.5,2.76-0.771,4.27c-0.89-0.3-1.67-0.6-2.46-0.8c-5.63-1.43-10.859-0.74-15.16,3.4
			c-4,3.87-4.979,8.78-3.81,14.08c0.92,4.21,3.689,6.83,7.83,7.94c3.77,1.01,7.439,0.648,11.01-0.922
			c0.78-0.35,1.55-1.09,2.53-0.289c2.87,2.381,6.02,1.989,9.229,0.869c0.69-0.238,1.34-0.608,2.141-0.14
			c2.97,1.75,5.96,1.149,8.89-0.11c1-0.43,1.79-0.47,2.82-0.05c4.06,1.69,8.14,1.681,12.109-0.34c0.91-0.46,1.61-0.55,2.521,0.05
			c2.71,1.771,5.64,1.84,8.66,0.92c0.699-0.22,1.41-0.68,2.17-0.31c1.6,0.78,3.37,0.771,5.18,0.989c0,0.761-0.04,1.431,0.011,2.08
			c0.229,2.971,1.931,5.041,4.841,5.609c1.97,0.391,3.988,0.36,5.979-0.05c1.9-0.399,3.2-1.24,3.07-3.51
			c-0.062-1.062,0.27-2.142,0.399-3.222c0.101-0.908,0.399-1.568,1.449-1.729c2.25-0.32,4.29-1.271,6.38-2.36
			c1.271,1.15,2.591,2.2,4.33,2.392c2.5,0.279,5.021,0.398,7.45-0.381c1-0.33,1.87-0.381,2.87-0.011c2.09,0.78,4.3,0.69,6.45,0.45
			c1.5-0.16,2.92-0.189,4.43,0.01c2.58,0.33,5.17,0.102,7.62-0.949C119.842,51.613,121.603,46.703,118.052,43.582z M0.522,50.283
			c-1.391,0.279-2.801,0.35-4.23,0.26c-4.92-0.33-7.38-3.09-7.14-8.029c0.3-6.121,4.27-9.801,10.62-9.801
			c5.149-0.01,7.859,2.04,8.359,6.31C8.782,44.592,5.682,49.222,0.522,50.283z M25.472,36.973c-3.109,0.37-4.529,3.24-2.979,5.86
			c0.92,1.55,1.229,3.7,3.86,3.67c1-0.01,1.079,1.65,0.17,2.67c-1.841,2.091-6.67,1.601-8-0.84c-0.9-1.67-1.73-3.37-3.07-5.01
			c-0.24,1.521-0.51,3.03-0.73,4.55c-0.359,2.49-0.939,2.91-3.72,2.59c-1.93-0.21-2.59-1.07-2.31-3.35
			c0.51-4.311,1.12-8.61,1.689-12.92c0.28-2.15,0.53-4.31,0.87-6.45c0.46-2.87,1.71-3.68,4.53-3.25c1.61,0.25,2.07,1.01,1.81,2.58
			c-0.51,3.13-0.91,6.28-1.31,9.43c-0.09,0.7-0.33,1.46,0.25,2.44c1.31-1.61,2.47-3.03,3.63-4.44c1.45-1.78,3.36-2.02,5.45-1.6
			c1.2,0.24,1.96,0.92,1.95,2.22C27.562,36.533,26.762,36.823,25.472,36.973z M41.482,37.013c-0.5-0.08-0.99-0.15-1.49-0.19
			c-4.41-0.27-6.71,2.29-6.04,6.68c0.32,2.101,1.19,2.88,3.37,2.841c0.82-0.011,1.63-0.261,2.46-0.359
			c0.84-0.092,1.91-0.74,2.34,0.56c0.36,1.13,0,2.13-1.03,2.83c-1.16,0.79-2.47,0.95-3.819,1.011c-0.49,0.021-1,0-1.5,0v0.119
			c-1.08-0.109-2.181-0.109-3.23-0.33c-1.899-0.39-3.54-1.398-4.14-3.27c-1.26-3.94-1.101-7.85,1.859-11.03
			c2.95-3.16,6.82-3.55,10.87-2.69c1.07,0.23,1.851,0.86,1.96,2C43.202,36.292,42.962,37.232,41.482,37.013z M61.782,50.252
			c-3.811,0.61-4.95,0.18-5.92-2.38c-1.851,2.021-4.16,2.66-6.79,2.47c-3.101-0.21-4.53-1.81-4.13-4.93
			c0.27-2.061,0.7-4.11,1.08-6.16c0.12-0.65,0.3-1.3,0.09-2.08c-0.71-0.51-2.15-0.43-1.9-2.02c0.24-1.5,1.351-1.75,2.521-1.98
			c0.25-0.05,0.489-0.1,0.739-0.14c4.5-0.64,5.421,0.26,4.73,4.63c-0.3,1.89-0.7,3.78-0.9,5.68c-0.13,1.141-0.699,2.62,1.15,3.07
			c1.42,0.34,3.37-0.76,3.74-2.25c0.34-1.37,0.439-2.8,0.64-4.2c0.23-1.57,0.36-3.16,0.71-4.7c0.53-2.33,3.45-3.28,5.37-1.87
			c0.7,0.52,0.51,1.17,0.431,1.81c-0.341,2.73-0.631,5.47-1.08,8.18c-0.319,1.95-0.021,3.3,2.381,3.32
			C64.603,49.222,64.002,49.903,61.782,50.252z M74.432,50.212c-0.899,0.091-1.84-0.108-2.891,0.36
			c-0.688,2.09-0.739,4.189-1.12,6.24c-0.34,1.81-0.979,2.199-3.239,2.01c-1.539-0.12-2.569-0.78-2.489-2.48
			c0.069-1.238,0.229-2.488,0.39-3.729c0.681-5.12,1.37-10.24,2.051-15.31c-0.931-0.72-2.529-0.38-2.271-2.05
			c0.22-1.47,1.28-1.85,2.49-2.04c0.979-0.16,1.979-0.27,2.979-0.28c1.49-0.01,2.9,0.22,2.891,2.33
			c1.051-0.66,1.601-1.53,2.551-1.94c3.79-1.63,7.58,0.35,8.35,4.41C85.393,44.342,81.393,49.482,74.432,50.212z M92.772,24.692
			c1.87,0.03,2.859,1,2.779,2.71c-0.091,1.71-1.489,2.86-3.449,2.83c-1.78-0.03-2.721-0.88-2.75-2.49
			C89.312,25.832,90.632,24.672,92.772,24.692z M94.382,48.982c-1.171,1.591-6.62,1.949-7.961,0.551
			c-0.648-0.68-0.59-1.53-0.568-2.352c0.09-2.938,0.938-5.76,1.318-8.66c0.051-0.41,0.08-0.82,0.12-1.31
			c-0.88-0.55-2.51-0.44-2.13-2.16c0.32-1.41,1.45-1.7,2.641-1.9c0.17-0.03,0.33-0.07,0.5-0.09c4.609-0.73,5.649,0.3,4.909,4.81
			c-0.35,2.14-0.59,4.3-1,6.431c-0.25,1.279-0.188,2.01,1.392,2.239C94.882,46.722,95.162,47.943,94.382,48.982z M114.612,49.283
			c-1.92,1.77-6.181,1.34-7.931-1.051c-1.699,1.871-3.771,2.271-6.039,2.101c-3.142-0.25-4.852-1.88-5.15-5.05
			c-0.07-0.75-0.061-1.51-0.04-2.26c0.25-7.42,4.41-10.812,12.24-9.8c1.149-1.7,0.83-3.79,1.239-5.69
			c0.271-1.29,0.561-2.43,2.029-2.85c2.892-0.81,4.29,0.29,3.892,3.25c-0.7,5.21-1.48,10.41-2.21,15.62
			c-0.2,1.432-0.54,2.82,1.739,3.03C115.662,46.712,115.722,48.252,114.612,49.283z M105.442,36.732
			c-1.261,0.07-2.23,0.6-2.931,1.61c-1.399,1.99-1.369,4.23-0.949,6.458c0.22,1.2,1.229,1.721,2.438,1.682
			c1.24-0.062,2.32-0.41,2.54-1.86c0.301-1.96,0.57-3.94,0.9-6.2C107.712,37.113,106.902,36.652,105.442,36.732z M75.853,36.792
			c-1.95-0.07-2.78,0.82-3.12,3.33c-0.21,1.49-0.431,2.97-0.62,4.46c-0.229,1.79,0.22,2.25,1.979,2.07
			c2.729-0.271,4.34-2.521,4.329-6.05C78.412,37.962,77.662,36.863,75.853,36.792z M0.222,36.902c-1.79-0.47-3.449,0.54-4.3,2.57
			c-0.56,1.33-0.75,2.73-0.6,4.15c0.13,1.19,0.399,2.36,1.77,2.74c1.391,0.38,2.65,0.09,3.63-1.021c1.181-1.319,1.49-2.93,1.53-4.74
			C2.182,39.113,2.242,37.433,0.222,36.902z M75.853,36.792c-1.95-0.07-2.78,0.82-3.12,3.33c-0.21,1.49-0.431,2.97-0.62,4.46
			c-0.229,1.79,0.22,2.25,1.979,2.07c2.729-0.271,4.34-2.521,4.329-6.05C78.412,37.962,77.662,36.863,75.853,36.792z
			 M105.442,36.732c-1.261,0.07-2.23,0.6-2.931,1.61c-1.399,1.99-1.369,4.23-0.949,6.458c0.22,1.2,1.229,1.721,2.438,1.682
			c1.24-0.062,2.32-0.41,2.54-1.86c0.301-1.96,0.57-3.94,0.9-6.2C107.712,37.113,106.902,36.652,105.442,36.732z M105.442,36.732
			c-1.261,0.07-2.23,0.6-2.931,1.61c-1.399,1.99-1.369,4.23-0.949,6.458c0.22,1.2,1.229,1.721,2.438,1.682
			c1.24-0.062,2.32-0.41,2.54-1.86c0.301-1.96,0.57-3.94,0.9-6.2C107.712,37.113,106.902,36.652,105.442,36.732z M75.853,36.792
			c-1.95-0.07-2.78,0.82-3.12,3.33c-0.21,1.49-0.431,2.97-0.62,4.46c-0.229,1.79,0.22,2.25,1.979,2.07
			c2.729-0.271,4.34-2.521,4.329-6.05C78.412,37.962,77.662,36.863,75.853,36.792z M75.853,36.792c-1.95-0.07-2.78,0.82-3.12,3.33
			c-0.21,1.49-0.431,2.97-0.62,4.46c-0.229,1.79,0.22,2.25,1.979,2.07c2.729-0.271,4.34-2.521,4.329-6.05
			C78.412,37.962,77.662,36.863,75.853,36.792z M105.442,36.732c-1.261,0.07-2.23,0.6-2.931,1.61
			c-1.399,1.99-1.369,4.23-0.949,6.458c0.22,1.2,1.229,1.721,2.438,1.682c1.24-0.062,2.32-0.41,2.54-1.86
			c0.301-1.96,0.57-3.94,0.9-6.2C107.712,37.113,106.902,36.652,105.442,36.732z M105.442,36.732c-1.261,0.07-2.23,0.6-2.931,1.61
			c-1.399,1.99-1.369,4.23-0.949,6.458c0.22,1.2,1.229,1.721,2.438,1.682c1.24-0.062,2.32-0.41,2.54-1.86
			c0.301-1.96,0.57-3.94,0.9-6.2C107.712,37.113,106.902,36.652,105.442,36.732z M75.853,36.792c-1.95-0.07-2.78,0.82-3.12,3.33
			c-0.21,1.49-0.431,2.97-0.62,4.46c-0.229,1.79,0.22,2.25,1.979,2.07c2.729-0.271,4.34-2.521,4.329-6.05
			C78.412,37.962,77.662,36.863,75.853,36.792z M105.442,36.732c-1.261,0.07-2.23,0.6-2.931,1.61
			c-1.399,1.99-1.369,4.23-0.949,6.458c0.22,1.2,1.229,1.721,2.438,1.682c1.24-0.062,2.32-0.41,2.54-1.86
			c0.301-1.96,0.57-3.94,0.9-6.2C107.712,37.113,106.902,36.652,105.442,36.732z M105.442,36.732c-1.261,0.07-2.23,0.6-2.931,1.61
			c-1.399,1.99-1.369,4.23-0.949,6.458c0.22,1.2,1.229,1.721,2.438,1.682c1.24-0.062,2.32-0.41,2.54-1.86
			c0.301-1.96,0.57-3.94,0.9-6.2C107.712,37.113,106.902,36.652,105.442,36.732z"/>
		<path fill="#FFFFFF" d="M107.442,38.422c-0.33,2.26-0.601,4.24-0.9,6.2c-0.22,1.45-1.3,1.8-2.54,1.86
			c-1.21,0.039-2.22-0.48-2.438-1.682c-0.42-2.229-0.45-4.47,0.949-6.458c0.699-1.01,1.67-1.54,2.931-1.61
			C106.902,36.652,107.712,37.113,107.442,38.422z"/>
		<path fill="#FFFFFF" d="M78.422,40.602c0.012,3.53-1.6,5.78-4.329,6.05c-1.761,0.18-2.21-0.28-1.979-2.07
			c0.189-1.49,0.41-2.97,0.62-4.46c0.34-2.51,1.17-3.4,3.12-3.33C77.662,36.863,78.412,37.962,78.422,40.602z"/>
		<path fill="#FFFFFF" d="M2.252,40.602c-0.04,1.81-0.35,3.419-1.53,4.74c-0.979,1.11-2.239,1.4-3.63,1.021
			c-1.37-0.381-1.64-1.551-1.77-2.74c-0.15-1.42,0.04-2.82,0.6-4.15c0.851-2.03,2.51-3.04,4.3-2.57
			C2.242,37.433,2.182,39.113,2.252,40.602z"/>
	</g>
</g>
</svg>
