<?xml version="1.0" encoding="UTF-8"?>
<svg width="134px" height="82px" viewBox="0 0 134 82" version="1.1" xmlns="http://www.w3.org/2000/svg" xmlns:xlink="http://www.w3.org/1999/xlink">
    <!-- Generator: Sketch 53.1 (72631) - https://sketchapp.com -->
    <title>Artboard</title>
    <desc>Created with Sketch.</desc>
    <defs>
        <polygon id="path-1" points="1.16464706 0.168898148 12.7254706 0.168898148 12.7254706 12.5925926 1.16464706 12.5925926"></polygon>
        <polygon id="path-3" points="1.41271765 0.16937037 11.6005882 0.16937037 11.6005882 12.591963 1.41271765 12.591963"></polygon>
    </defs>
    <g id="Artboard" stroke="none" stroke-width="1" fill="none" fill-rule="evenodd">
        <g id="Group-23" transform="translate(14.937500, 0.000000)">
            <g>
                <path d="M61.6088353,10.141287 C62.0921294,10.1161019 63.1856588,10.0846204 64.4091882,10.1570278 L69.6214235,5.34823148 L67.3303647,5.11212037 L61.5813059,10.1381389 L61.5858941,10.1444352 C61.5935412,10.1428611 61.6027176,10.141287 61.6088353,10.141287 L61.6088353,10.141287 Z M36.3093059,28.1329537 L33.7521294,25.738787 L34.4526,29.223787 L31.4518941,30.98675 L34.8869529,31.3723981 L35.5889529,34.8573981 L37.0113059,31.6132315 L40.4463647,32.0036019 L37.8891882,29.6094352 L39.3084824,26.3699907 L36.3093059,28.1329537 Z M33.1235412,41.9171204 L30.5663647,39.5261019 L31.2668353,43.0095278 L28.2661294,44.7724907 L31.7011882,45.1581389 L32.4016588,48.6431389 L33.8240118,45.3973981 L37.2606,45.7877685 L34.7034235,43.3951759 L36.1227176,40.1541574 L33.1235412,41.9171204 Z M23.4362471,32.0807315 L20.8806,29.6881389 L21.5795412,33.1715648 L18.5803647,34.9345278 L22.0138941,35.3201759 L22.7158941,38.8051759 L24.1382471,35.5594352 L27.5748353,35.9498056 L25.0176588,33.557213 L26.4369529,30.3161944 L23.4362471,32.0807315 Z M78.5470706,29.6991574 C77.7395412,30.2957315 76.8448353,30.6971204 75.8813059,30.8954537 C73.2262471,31.4432315 70.4931882,30.3350833 68.9102471,28.074713 C67.1820118,25.5923981 67.2386,22.3498056 68.8077765,19.9540648 L74.3687176,24.207213 C74.4803647,24.2906389 74.6164824,24.3268426 74.7434235,24.3095278 C74.8810706,24.293787 75.0171882,24.2213796 75.1058941,24.0986019 C75.2802471,23.8609167 75.2358941,23.5209167 75.0034235,23.3414722 L69.5984824,18.9576759 C69.8707176,18.6711944 70.1643647,18.3988796 70.4931882,18.1596204 C71.2961294,17.5614722 72.1954235,17.1600833 73.1604824,16.9601759 C75.8124824,16.4123981 78.5470706,17.5205463 80.1269529,19.7824907 C82.3476588,22.9636944 81.6395412,27.4120278 78.5470706,29.6991574 L78.5470706,29.6991574 Z M60.1360118,19.4535093 C58.4842471,18.2273056 55.0675412,18.8191574 52.8437765,19.2000833 C53.5993059,17.5646204 54.9344824,15.8693426 55.3795412,13.8970278 C55.6181294,15.1405463 59.6129529,16.5556389 59.6129529,16.5556389 C59.6129529,16.5556389 61.4268353,16.1416574 62.9960118,15.5073056 C63.0128353,15.5246204 63.0327176,15.5419352 63.0495412,15.5529537 L63.6475412,16.0110093 L60.1360118,19.4535093 Z M62.5417765,25.738787 L60.9802471,22.0365648 C61.0307176,21.4478611 60.9986,20.9189722 60.8701294,20.4782315 L63.5924824,17.8101759 L62.5417765,25.738787 Z M61.8902471,30.6325833 C61.6057765,30.6388796 61.3182471,30.7207315 61.0536588,30.8639722 C60.9053059,30.6861019 60.6743647,30.5066574 60.2598941,30.2311944 C59.9448353,30.0218426 58.5178941,29.1419352 58.5729529,28.9577685 C58.7778941,28.3186944 59.2443647,27.3663796 59.9188353,26.0189722 C60.6238941,26.82175 61.3350706,28.1880463 62.0340118,29.563787 L61.8902471,30.6325833 Z M59.7123647,33.7303611 C58.3007176,31.8005463 56.2069529,30.5711944 53.9434235,30.2548056 L54.1743647,27.7048056 L56.1366,29.1309167 C55.9209529,29.9415648 56.0127176,30.371287 56.6535412,30.6373056 L60.0840118,32.0051759 L60.1038941,32.0177685 C59.9601294,32.47425 59.9738941,32.9763796 60.1666,33.429713 L59.7123647,33.7303611 Z M56.8217765,44.8496204 C56.0173059,45.4477685 55.1180118,45.8491574 54.1560118,46.0506389 C51.5040118,46.5968426 48.7678941,45.4886944 47.1895412,43.2283241 C44.9673059,40.0455463 45.6784824,35.597213 48.7678941,33.3116574 C49.5754235,32.7150833 50.4731882,32.3121204 51.4351882,32.113787 C51.8068353,32.0350833 52.1800118,31.9957315 52.5547176,31.9815648 L51.9001294,39.2081389 C51.8787176,39.4489722 51.9918941,39.6819352 52.1907176,39.806287 C52.3268353,39.891287 52.4828353,39.9164722 52.6311882,39.8865648 C52.7046,39.8708241 52.7764824,39.8424907 52.8422471,39.7984167 L58.9002471,35.7766574 C60.4770706,38.8618426 59.6496588,42.7608241 56.8217765,44.8496204 L56.8217765,44.8496204 Z M53.7797765,32.0523981 C55.5187176,32.3136944 57.1246,33.2502685 58.2349529,34.7141574 L53.2383647,38.0338796 L53.7797765,32.0523981 Z M58.1538941,23.1399907 C57.5253059,25.3798981 56.8997765,26.9539722 56.4898941,28.0636944 L54.5597765,26.6580463 L58.1538941,23.1399907 Z M50.6154235,23.7900833 C50.8738941,23.7869352 51.1430706,23.7664722 51.4413059,23.7098056 C53.7644824,23.4736944 55.3871882,23.2265648 56.4684824,23.0455463 L53.5381294,25.9166574 L50.6154235,23.7900833 Z M58.9996588,12.988787 C60.2813059,13.1052685 61.5966,12.9950833 62.7574235,12.8109167 L63.1795412,13.7726759 C62.2680118,13.8324907 61.3289529,13.9332315 60.4801294,14.0764722 C59.8041294,14.1913796 58.0514235,12.4032315 58.9996588,12.988787 L58.9996588,12.988787 Z M81.5508353,18.7310093 C79.5702471,15.8945278 76.1413059,14.5046204 72.8148353,15.1924907 C71.6050706,15.4396204 70.4778941,15.9464722 69.4684824,16.6925833 C69.0050706,17.0357315 68.5860118,17.4182315 68.2097765,17.832213 L65.6908353,15.7890648 C66.4249529,15.5073056 68.7129529,14.561287 67.7647176,14.0481389 C67.5108353,13.9096204 66.9938941,13.8151759 66.3240118,13.7648056 L68.1103647,12.1639722 L68.5018941,11.8145278 L71.8497765,8.81749074 L70.2913059,5.69767593 L65.1601294,10.4340648 C65.1601294,10.4340648 65.1555412,10.4277685 64.6584824,10.8952685 C64.6538941,10.8952685 64.6477765,10.8952685 64.6431882,10.8952685 L64.6477765,10.904713 L64.6431882,10.9078611 L64.6401294,10.9031389 C63.5527176,10.8307315 62.5295412,10.92675 61.9651882,11.0101759 L61.9636588,11.0086019 C60.8135412,11.2211019 59.8408353,11.372213 59.3774235,11.2793426 C57.6935412,10.9424907 57.2958941,9.09925 56.5327176,8.02573148 C56.0983647,7.41971296 55.2266,7.34887963 55.1516588,6.82628704 C55.3948353,6.78063889 55.6211882,6.70980556 55.8246,6.61063889 C56.7483647,6.15573148 57.0695412,5.72915741 57.3203647,5.1530463 C57.6384824,4.42110185 57.2989529,3.21850926 56.8248353,2.2205463 C57.2056588,1.93563889 58.6387176,0.786564815 58.5821294,0.589805556 C58.5637765,0.517398148 56.7820118,0.770824074 56.0326,0.920361111 C55.9224824,0.783416667 55.8200118,0.67637963 55.7313059,0.608694444 C55.1210706,0.145916667 54.6209529,-0.321583333 53.1817765,0.297027778 C50.7194235,1.35480556 50.8478941,3.33184259 51.6646,5.09165741 C52.0408353,5.90702778 52.6984824,6.41860185 53.4173059,6.67832407 C53.3637765,6.78063889 53.3362471,6.83887963 53.3087176,6.89239815 L53.3760118,6.71610185 C49.4897765,10.3254537 40.4142471,16.4029537 38.0253059,16.5241574 C40.0028353,17.3174907 45.6998941,17.4261019 48.0873059,15.9590648 C47.4174235,18.7656389 47.3761294,21.5328611 48.5277765,22.9054537 C47.6437765,23.5807315 46.7307176,24.3079537 46.2902471,24.7486944 C45.9446,25.0949907 46.0486,25.271287 46.3468353,25.6632315 C46.3468353,25.6632315 48.6577765,25.7088796 49.3414235,25.0383241 C49.5264824,24.8588796 49.6855412,24.6951759 49.8308353,24.5440648 L53.0196588,26.8626759 L52.7183647,30.1776759 C52.1769529,30.17925 51.6340118,30.2327685 51.0895412,30.3445278 C49.8813059,30.5932315 48.7541294,31.0985093 47.7462471,31.8461944 C43.8691882,34.7125833 42.9821294,40.2879537 45.7641294,44.2782315 C47.7462471,47.114713 51.1736588,48.5014722 54.5031882,47.8183241 C55.7114235,47.5664722 56.8370706,47.0627685 57.8449529,46.3150833 C61.4344824,43.6611944 62.4561294,38.6839722 60.3761294,34.7944352 L61.0108353,34.3757315 C61.6455412,34.7346204 62.4500118,34.7173056 63.0786,34.2529537 C63.7148353,33.7823056 63.9870706,32.9921204 63.8494235,32.2491574 C64.7120118,31.9941574 65.6204824,31.6903611 66.6329529,31.3818426 C67.6836588,31.0623056 67.8381294,30.7396204 67.5796588,30.2044352 C67.2263647,29.477213 64.5636588,30.1351759 64.2210706,29.7211944 L63.4838941,27.9739722 L64.9398941,16.9979537 L67.3991882,18.8789722 C65.3880118,21.8886019 65.3038941,25.993787 67.4878941,29.1277685 C69.4684824,31.9626759 72.8989529,33.3494352 76.2254235,32.666287 C77.4351882,32.4144352 78.5608353,31.9091574 79.5687176,31.1630463 C83.4457765,28.2966574 84.3343647,22.7181389 81.5508353,18.7310093 L81.5508353,18.7310093 Z" id="Fill-1" fill="#FFFFFF"></path>
                <path d="M2.76838824,72.9935926 L6.82132941,72.9935926 C7.1318,72.9935926 7.44991765,72.9495185 7.77415294,72.8566481 C8.09838824,72.7653519 8.39815294,72.618963 8.67038824,72.4127593 C8.94415294,72.2081296 9.16591765,71.9342407 9.33568235,71.5910926 C9.50544706,71.2510926 9.58956471,70.8213704 9.58956471,70.3035 C9.58956471,69.771463 9.51615294,69.3322963 9.36932941,68.9812778 C9.22097647,68.6318333 9.02215294,68.3547963 8.77132941,68.1501667 C8.51897647,67.945537 8.23144706,67.8038704 7.90721176,67.7283148 C7.58144706,67.6511852 7.23427059,67.6134074 6.86568235,67.6134074 L2.76838824,67.6134074 L2.76838824,72.9935926 Z M0.000152941176,65.2885 L6.9758,65.2885 C8.09838824,65.2885 9.01450588,65.4569259 9.72262353,65.7906296 C10.4322706,66.1259074 10.9782706,66.543037 11.3621529,67.0451667 C11.7460353,67.5457222 12.0090941,68.0935 12.1482706,68.6853519 C12.2889765,69.2787778 12.3593294,69.8249815 12.3593294,70.3271111 C12.3593294,70.8276667 12.2889765,71.3722963 12.1482706,71.9562778 C12.0090941,72.5418333 11.7460353,73.086463 11.3621529,73.5870185 C10.9782706,74.0875741 10.4322706,74.5015556 9.72262353,74.828963 C9.01450588,75.1563704 8.09838824,75.3200741 6.9758,75.3200741 L2.76838824,75.3200741 L2.76838824,81.5644259 L0.000152941176,81.5644259 L0.000152941176,65.2885 Z" id="Fill-3" fill="#FFFFFF"></path>
                <g id="Group-7" transform="translate(12.235294, 69.292000)">
                    <mask id="mask-2" fill="white">
                        <use xlink:href="#path-1"></use>
                    </mask>
                    <g id="Clip-6"></g>
                    <path d="M6.94582353,10.5404722 C7.50711765,10.5404722 7.99347059,10.4192685 8.40794118,10.1768611 C8.82088235,9.93287963 9.16041176,9.61334259 9.42652941,9.21825 C9.69111765,8.82315741 9.88688235,8.37926852 10.0122941,7.88500926 C10.1377059,7.39075 10.2004118,6.88547222 10.2004118,6.36917593 C10.2004118,5.8670463 10.1377059,5.36649074 10.0122941,4.86436111 C9.88688235,4.36223148 9.69111765,3.91834259 9.42652941,3.53112037 C9.16041176,3.14389815 8.82088235,2.82908333 8.40794118,2.58510185 C7.99347059,2.34269444 7.50711765,2.21991667 6.94582353,2.21991667 C6.38452941,2.21991667 5.89664706,2.34269444 5.48370588,2.58510185 C5.06923529,2.82908333 4.73123529,3.14389815 4.46511765,3.53112037 C4.199,3.91834259 4.00323529,4.36223148 3.87782353,4.86436111 C3.75241176,5.36649074 3.68970588,5.8670463 3.68970588,6.36917593 C3.68970588,6.88547222 3.75241176,7.39075 3.87782353,7.88500926 C4.00323529,8.37926852 4.199,8.82315741 4.46511765,9.21825 C4.73123529,9.61334259 5.06923529,9.93287963 5.48370588,10.1768611 C5.89664706,10.4192685 6.38452941,10.5404722 6.94582353,10.5404722 M6.94582353,12.5930648 C6.02970588,12.5930648 5.21452941,12.4356574 4.49723529,12.1255648 C3.78147059,11.8138981 3.17735294,11.3841759 2.68182353,10.8363981 C2.18782353,10.2901944 1.81005882,9.6369537 1.55311765,8.87510185 C1.29464706,8.11639815 1.16464706,7.28056481 1.16464706,6.36917593 C1.16464706,5.4719537 1.29464706,4.64399074 1.55311765,3.88371296 C1.81005882,3.12500926 2.18782353,2.47019444 2.68182353,1.92399074 C3.17735294,1.37778704 3.78147059,0.946490741 4.49723529,0.636398148 C5.21452941,0.324731481 6.02970588,0.168898148 6.94582353,0.168898148 C7.86041176,0.168898148 8.67711765,0.324731481 9.39288235,0.636398148 C10.1086471,0.946490741 10.7142941,1.37778704 11.2098235,1.92399074 C11.7038235,2.47019444 12.0800588,3.12500926 12.3385294,3.88371296 C12.597,4.64399074 12.7254706,5.4719537 12.7254706,6.36917593 C12.7254706,7.28056481 12.597,8.11639815 12.3385294,8.87510185 C12.0800588,9.6369537 11.7038235,10.2901944 11.2098235,10.8363981 C10.7142941,11.3841759 10.1086471,11.8138981 9.39288235,12.1255648 C8.67711765,12.4356574 7.86041176,12.5930648 6.94582353,12.5930648" id="Fill-5" fill="#FFFFFF" mask="url(#mask-2)"></path>
                </g>
                <path d="M28.4822353,77.7803519 C28.5556471,78.5406296 28.8370588,79.0726667 29.3234118,79.376463 C29.8112941,79.6802593 30.394,79.8329444 31.0730588,79.8329444 C31.3101176,79.8329444 31.5792941,79.8140556 31.8821176,79.7762778 C32.1849412,79.7369259 32.4694118,79.6645185 32.7355294,79.5590556 C33.0001176,79.4520185 33.2188235,79.2961852 33.3885882,79.0915556 C33.5583529,78.8869259 33.6348235,78.6161852 33.6210588,78.2824815 C33.6057647,77.9472037 33.488,77.6748889 33.2662353,77.4623889 C33.0444706,77.2483148 32.76,77.0783148 32.4143529,76.9492407 C32.0671765,76.8201667 31.6710588,76.7084074 31.2290588,76.6186852 C30.7855294,76.5273889 30.3343529,76.4297963 29.8785882,76.3211852 C29.406,76.2157222 28.9517647,76.0866481 28.5158824,75.933963 C28.08,75.7812778 27.6884706,75.5782222 27.3412941,75.3200741 C26.9941176,75.0603519 26.7172941,74.7313704 26.5108235,74.3284074 C26.3043529,73.9254444 26.2003529,73.426463 26.2003529,72.833037 C26.2003529,72.195537 26.3517647,71.6603519 26.6545882,71.2274815 C26.9574118,70.7946111 27.3412941,70.4451667 27.8077647,70.1791481 C28.2711765,69.9131296 28.7881176,69.7273889 29.3570588,69.6187778 C29.926,69.5133148 30.4674118,69.4613704 30.9858824,69.4613704 C31.5747059,69.4613704 32.1405882,69.5259074 32.6789412,69.6549815 C33.2188235,69.7840556 33.7051765,69.9934074 34.1410588,70.281463 C34.5769412,70.5695185 34.9394118,70.9457222 35.2269412,71.4100741 C35.5144706,71.8728519 35.6949412,72.4332222 35.7698824,73.086463 L33.1331765,73.086463 C33.0154118,72.4615556 32.7385882,72.0428519 32.3027059,71.8319259 C31.8668235,71.6194259 31.3682353,71.5123889 30.8084706,71.5123889 C30.6310588,71.5123889 30.42,71.5265556 30.1768235,71.558037 C29.9336471,71.5879444 29.7042353,71.6461852 29.4901176,71.728037 C29.276,71.813037 29.094,71.9342407 28.9471765,72.0932222 C28.8003529,72.2522037 28.7254118,72.4615556 28.7254118,72.7197037 C28.7254118,73.0392407 28.8324706,73.2973889 29.0465882,73.4941481 C29.2607059,73.6924815 29.5421176,73.8561852 29.8877647,73.9852593 C30.2349412,74.1143333 30.6310588,74.2245185 31.0730588,74.3158148 C31.5165882,74.4071111 31.9738824,74.5062778 32.4464706,74.6117407 C32.9052941,74.7187778 33.3549412,74.8478519 33.7984706,74.998963 C34.2404706,75.1516481 34.6350588,75.3578519 34.9822353,75.616 C35.3294118,75.8741481 35.6108235,76.1999815 35.8249412,76.5950741 C36.0375294,76.9901667 36.1461176,77.4781296 36.1461176,78.0542407 C36.1461176,78.7531296 35.9901176,79.3465556 35.6811765,79.8329444 C35.3707059,80.3177593 34.9684706,80.7128519 34.4729412,81.0182222 C33.9789412,81.3220185 33.4283529,81.5423889 32.8227059,81.6793333 C32.2170588,81.8147037 31.6190588,81.883963 31.0302353,81.883963 C30.3052941,81.883963 29.6369412,81.800537 29.0251765,81.6321111 C28.4118824,81.4668333 27.8796471,81.2118333 27.43,80.8702593 C26.9803529,80.5271111 26.6255294,80.1036852 26.3670588,79.5921111 C26.1085882,79.0836852 25.9724706,78.4792407 25.9571765,77.7803519 L28.4822353,77.7803519 Z" id="Fill-8" fill="#FFFFFF"></path>
                <path d="M36.4333412,69.7793333 L38.3389882,69.7793333 L38.3389882,66.2471111 L40.8625176,66.2471111 L40.8625176,69.7793333 L43.1444,69.7793333 L43.1444,71.7170185 L40.8625176,71.7170185 L40.8625176,78.0101667 C40.8625176,78.2824815 40.8747529,78.5185926 40.8961647,78.7153519 C40.9191059,78.9136852 40.9695765,79.080537 41.0521647,79.2174815 C41.1332235,79.3544259 41.2540471,79.4551667 41.4161647,79.5244259 C41.5798118,79.5921111 41.8000471,79.6283148 42.0814588,79.6283148 C42.2588706,79.6283148 42.4362824,79.6235926 42.6136941,79.6157222 C42.7895765,79.6078519 42.9669882,79.5826667 43.1444,79.5354444 L43.1444,81.5423889 C42.8645176,81.5722963 42.5907529,81.6037778 42.3246353,81.6321111 C42.0600471,81.6635926 41.7862824,81.6793333 41.5048706,81.6793333 C40.8411059,81.6793333 40.3058118,81.6147963 39.9005176,81.4857222 C39.4936941,81.3550741 39.1755765,81.1646111 38.9476941,80.9143333 C38.7182824,80.6640556 38.5638118,80.3492407 38.4827529,79.9698889 C38.4016941,79.588963 38.3527529,79.1560926 38.3389882,78.6697037 L38.3389882,71.7170185 L36.4333412,71.7170185 L36.4333412,69.7793333 Z" id="Fill-10" fill="#FFFFFF"></path>
                <path d="M44.4739176,69.7793333 L46.8659176,69.7793333 L46.8659176,71.4210926 L46.9316824,71.4210926 C47.1228588,71.131463 47.3308588,70.8654444 47.5526235,70.623037 C47.7743882,70.3806296 48.0206235,70.1744259 48.2943882,70.0091481 C48.5666235,69.8407222 48.8816824,69.7069259 49.2349765,69.6093333 C49.5898,69.5101667 49.9950941,69.4613704 50.4539176,69.4613704 C51.1467412,69.4613704 51.7936824,69.6187778 52.3916824,69.9398889 C52.9896824,70.2594259 53.4133294,70.7521111 53.6656824,71.4210926 C54.0939176,70.8135 54.5879176,70.3349815 55.1492118,69.985537 C55.7105059,69.6345185 56.4109765,69.4613704 57.2521529,69.4613704 C58.4634471,69.4613704 59.4055647,69.7651667 60.0769765,70.3727593 C60.7483882,70.9803519 61.0848588,71.9987778 61.0848588,73.426463 L61.0848588,81.5644259 L58.5598,81.5644259 L58.5598,74.681 C58.5598,74.2087778 58.5445059,73.7806296 58.5154471,73.3934074 C58.4863882,73.0061852 58.4007412,72.6709074 58.2615647,72.3891481 C58.1208588,72.1073889 57.9098,71.8933148 57.6299176,71.7406296 C57.3485059,71.5879444 56.9646235,71.5123889 56.4782706,71.5123889 C55.6218,71.5123889 55.0008588,71.7847037 54.6169765,72.3324815 C54.2330941,72.8802593 54.0419176,73.6547037 54.0419176,74.658963 L54.0419176,81.5644259 L51.5168588,81.5644259 L51.5168588,73.9978519 C51.5168588,73.1761852 51.3730941,72.5575741 51.0855647,72.1388704 C50.7965059,71.7201667 50.2688588,71.5123889 49.5010941,71.5123889 C49.1768588,71.5123889 48.8633294,71.5816481 48.5605059,71.7170185 C48.2576824,71.853963 47.9915647,72.0507222 47.7621529,72.3088704 C47.5327412,72.5685926 47.3492118,72.8881296 47.2085059,73.2674815 C47.0678,73.6468333 46.9989765,74.0797037 46.9989765,74.5660926 L46.9989765,81.5644259 L44.4739176,81.5644259 L44.4739176,69.7793333 Z" id="Fill-12" fill="#FFFFFF"></path>
                <path d="M70.3208235,75.6605463 C69.9369412,75.9186944 69.4643529,76.0761019 68.9030588,76.1280463 C68.3417647,76.1815648 67.7804706,76.2618426 67.2191765,76.3673056 C66.9530588,76.4145278 66.6945882,76.4790648 66.4437647,76.5609167 C66.1929412,76.6443426 65.9711765,76.75925 65.78,76.9024907 C65.5872941,77.0473056 65.4374118,77.2377685 65.3257647,77.4723056 C65.2156471,77.7099907 65.1590588,77.9933241 65.1590588,78.3270278 C65.1590588,78.6166574 65.2416471,78.8590648 65.4037647,79.0573981 C65.5658824,79.2541574 65.7616471,79.4115648 65.9895294,79.5248981 C66.2189412,79.6382315 66.4697647,79.7185093 66.7435294,79.7625833 C67.0157647,79.8098056 67.2635294,79.8318426 67.4852941,79.8318426 C67.7667059,79.8318426 68.068,79.7940648 68.3937647,79.7185093 C68.718,79.6413796 69.0254118,79.5123056 69.3129412,79.331287 C69.6004706,79.1486944 69.8405882,78.9157315 70.0332941,78.6355463 C70.2244706,78.3553611 70.3208235,78.0090648 70.3208235,77.5982315 L70.3208235,75.6605463 Z M72.8458824,78.9440648 C72.8458824,79.2620278 72.8856471,79.4918426 72.9667059,79.628787 C73.0477647,79.7625833 73.2068235,79.8318426 73.4438824,79.8318426 L73.7084706,79.8318426 C73.8124706,79.8318426 73.9302353,79.8176759 74.0632941,79.7861944 L74.0632941,81.5885093 C73.9745882,81.6184167 73.8598824,81.6530463 73.7207059,81.6908241 C73.58,81.7270278 73.4362353,81.7616574 73.2878824,81.7931389 C73.1410588,81.8230463 72.9927059,81.8466574 72.8458824,81.8608241 C72.6975294,81.8765648 72.5721176,81.8844352 72.4681176,81.8844352 C71.9511765,81.8844352 71.5244706,81.7773981 71.1834118,81.5648981 C70.8438824,81.3523981 70.6236471,80.9809167 70.5196471,80.4473056 C70.018,80.9494352 69.4016471,81.3146204 68.6705882,81.541287 C67.9395294,81.7695278 67.2344706,81.8844352 66.5554118,81.8844352 C66.0384706,81.8844352 65.5429412,81.8120278 65.0718824,81.667213 C64.5977647,81.5239722 64.1817647,81.3114722 63.8208235,81.029713 C63.4583529,80.7479537 63.1708235,80.3906389 62.9567059,79.9577685 C62.7410588,79.5248981 62.6355294,79.0196204 62.6355294,78.4419352 C62.6355294,77.7131389 62.764,77.119713 63.0224706,76.6648056 C63.2809412,76.2083241 63.6204706,75.8510093 64.0410588,75.5928611 C64.4616471,75.334713 64.9342353,75.1489722 65.4588235,75.0340648 C65.9834118,74.9191574 66.5110588,74.8325833 67.0417647,74.7727685 C67.5005882,74.6814722 67.9349412,74.6169352 68.3494118,74.5791574 C68.7623529,74.5398056 69.1278824,74.4752685 69.446,74.3839722 C69.7625882,74.2926759 70.0134118,74.1525833 70.1984706,73.9621204 C70.3835294,73.7732315 70.4752941,73.4883241 70.4752941,73.1073981 C70.4752941,72.7736944 70.3972941,72.4998056 70.2428235,72.2857315 C70.0883529,72.0748056 69.8956471,71.9111019 69.6677647,71.7977685 C69.4383529,71.6844352 69.1829412,71.6073056 68.9030588,71.5679537 C68.6231765,71.53175 68.3570588,71.511287 68.1062353,71.511287 C67.3965882,71.511287 66.8138824,71.6639722 66.3565882,71.9677685 C65.8977647,72.2731389 65.6392941,72.742213 65.5811765,73.381287 L63.0561176,73.381287 C63.1004706,72.6210093 63.2778824,71.9913796 63.5868235,71.48925 C63.8972941,70.9871204 64.2918824,70.5841574 64.7721176,70.2819352 C65.2523529,69.9781389 65.7952941,69.7656389 66.4009412,69.6428611 C67.0065882,69.5216574 67.626,69.4618426 68.2607059,69.4618426 C68.822,69.4618426 69.3756471,69.5216574 69.9216471,69.6428611 C70.4676471,69.7656389 70.9585882,69.9623981 71.3944706,70.236287 C71.8303529,70.5101759 72.1805882,70.8627685 72.4467059,71.2956389 C72.7128235,71.7285093 72.8458824,72.2573981 72.8458824,72.8791574 L72.8458824,78.9440648 Z" id="Fill-14" fill="#FFFFFF"></path>
                <path d="M73.9308471,69.7793333 L75.8364941,69.7793333 L75.8364941,66.2471111 L78.3600235,66.2471111 L78.3600235,69.7793333 L80.6419059,69.7793333 L80.6419059,71.7170185 L78.3600235,71.7170185 L78.3600235,78.0101667 C78.3600235,78.2824815 78.3722588,78.5185926 78.3936706,78.7153519 C78.4166118,78.9136852 78.4670824,79.080537 78.5496706,79.2174815 C78.6307294,79.3544259 78.7515529,79.4551667 78.9136706,79.5244259 C79.0773176,79.5921111 79.2975529,79.6283148 79.5789647,79.6283148 C79.7563765,79.6283148 79.9337882,79.6235926 80.1112,79.6157222 C80.2870824,79.6078519 80.4644941,79.5826667 80.6419059,79.5354444 L80.6419059,81.5423889 C80.3620235,81.5722963 80.0882588,81.6037778 79.8221412,81.6321111 C79.5575529,81.6635926 79.2837882,81.6793333 79.0023765,81.6793333 C78.3386118,81.6793333 77.8033176,81.6147963 77.3980235,81.4857222 C76.9912,81.3550741 76.6730824,81.1646111 76.4452,80.9143333 C76.2157882,80.6640556 76.0613176,80.3492407 75.9802588,79.9698889 C75.8992,79.588963 75.8502588,79.1560926 75.8364941,78.6697037 L75.8364941,71.7170185 L73.9308471,71.7170185 L73.9308471,69.7793333 Z" id="Fill-16" fill="#FFFFFF"></path>
                <path d="M89.8327529,74.6351944 C89.8021647,74.2243611 89.7180471,73.8292685 89.5773412,73.4499167 C89.4381647,73.0705648 89.2454588,72.7400093 89.0022824,72.45825 C88.7591059,72.1764907 88.4624,71.9498241 88.1167529,71.7751019 C87.7695765,71.5988056 87.3811059,71.5122315 86.9544,71.5122315 C86.5108706,71.5122315 86.1086353,71.5909352 85.7461647,71.7514907 C85.3852235,71.9120463 85.0747529,72.1308426 84.8162824,72.4126019 C84.5578118,72.6943611 84.3513412,73.0249167 84.1953412,73.4042685 C84.0408706,73.7836204 83.9567529,74.1944537 83.9414588,74.6351944 L89.8327529,74.6351944 Z M83.9414588,76.3446389 C83.9414588,76.8011204 84.0041647,77.2418611 84.1295765,77.6668611 C84.2549882,78.0918611 84.4431059,78.4649167 84.6954588,78.7844537 C84.9447529,79.1024167 85.2628706,79.3574167 85.6467529,79.5478796 C86.0306353,79.7367685 86.4879294,79.832787 87.0201647,79.832787 C87.7588706,79.832787 88.3522824,79.6690833 88.8034588,79.3416759 C89.2531059,79.0158426 89.5895765,78.5263056 89.8113412,77.8730648 L92.2033412,77.8730648 C92.0702824,78.5105648 91.8408706,79.0803796 91.5166353,79.5825093 C91.1908706,80.0830648 90.7993412,80.5049167 90.3420471,80.8464907 C89.8847529,81.1880648 89.3708706,81.447787 88.8034588,81.6209352 C88.2345176,81.7972315 87.6395765,81.8838056 87.0201647,81.8838056 C86.1193412,81.8838056 85.3225176,81.7326944 84.6281647,81.4273241 C83.9338118,81.1235278 83.3465176,80.6985278 82.8678118,80.1523241 C82.3875765,79.6045463 82.0266353,78.9513056 81.7819294,78.1910278 C81.5387529,77.43075 81.4164,76.5949167 81.4164,75.6835278 C81.4164,74.8476944 81.5464,74.0543611 81.8033412,73.3003796 C82.0618118,72.5495463 82.4319294,71.8884352 82.9121647,71.3186204 C83.3908706,70.7488056 83.9705176,70.2954722 84.6495765,69.9617685 C85.3286353,69.6280648 86.0979294,69.461213 86.9544,69.461213 C87.8536941,69.461213 88.6627529,69.6548241 89.3785176,70.0420463 C90.0942824,70.4292685 90.6892235,70.9424167 91.1618118,71.5814907 C91.6344,72.2189907 91.9769882,72.9525093 92.1911059,73.7804722 C92.4052235,74.6084352 92.4602824,75.4631574 92.3578118,76.3446389 L83.9414588,76.3446389 Z" id="Fill-18" fill="#FFFFFF"></path>
                <g id="Group-22" transform="translate(91.764706, 69.292000)">
                    <mask id="mask-4" fill="white">
                        <use xlink:href="#path-3"></use>
                    </mask>
                    <g id="Clip-21"></g>
                    <path d="M3.93777647,8.48835185 C4.01118824,9.24862963 4.2926,9.78066667 4.77895294,10.084463 C5.26683529,10.3882593 5.84954118,10.5409444 6.5286,10.5409444 C6.76565882,10.5409444 7.03483529,10.5220556 7.33765882,10.4842778 C7.64048235,10.4449259 7.92495294,10.3725185 8.19107059,10.2670556 C8.45565882,10.1600185 8.67436471,10.0041852 8.84412941,9.79955556 C9.01389412,9.59492593 9.09036471,9.32418519 9.0766,8.99048148 C9.06130588,8.6552037 8.94354118,8.38288889 8.72177647,8.17038889 C8.50001176,7.95631481 8.21554118,7.78631481 7.86989412,7.65724074 C7.52271765,7.52816667 7.1266,7.41640741 6.6846,7.32668519 C6.24107059,7.23538889 5.78989412,7.1377963 5.33412941,7.02918519 C4.86154118,6.92372222 4.40730588,6.79464815 3.97142353,6.64196296 C3.53554118,6.48927778 3.14401176,6.28622222 2.79683529,6.02807407 C2.44965882,5.76835185 2.17283529,5.43937037 1.96636471,5.03640741 C1.75989412,4.63344444 1.65589412,4.13446296 1.65589412,3.54103704 C1.65589412,2.90353704 1.80730588,2.36835185 2.11012941,1.93548148 C2.41295294,1.50261111 2.79683529,1.15316667 3.26330588,0.887148148 C3.72671765,0.62112963 4.24365882,0.435388889 4.8126,0.326777778 C5.38154118,0.221314815 5.92295294,0.16937037 6.44142353,0.16937037 C7.03024706,0.16937037 7.59612941,0.233907407 8.13448235,0.362981481 C8.67436471,0.492055556 9.16071765,0.701407407 9.5966,0.989462963 C10.0324824,1.27751852 10.3949529,1.65372222 10.6824824,2.11807407 C10.9700118,2.58085185 11.1504824,3.14122222 11.2254235,3.79446296 L8.58871765,3.79446296 C8.47095294,3.16955556 8.19412941,2.75085185 7.75824706,2.53992593 C7.32236471,2.32742593 6.82377647,2.22038889 6.26401176,2.22038889 C6.0866,2.22038889 5.87554118,2.23455556 5.63236471,2.26603704 C5.38918824,2.29594444 5.15977647,2.35418519 4.94565882,2.43603704 C4.73154118,2.52103704 4.54954118,2.64224074 4.40271765,2.80122222 C4.25589412,2.9602037 4.18095294,3.16955556 4.18095294,3.4277037 C4.18095294,3.74724074 4.28801176,4.00538889 4.50212941,4.20214815 C4.71624706,4.40048148 4.99765882,4.56418519 5.34330588,4.69325926 C5.69048235,4.82233333 6.0866,4.93251852 6.5286,5.02381481 C6.97212941,5.11511111 7.42942353,5.21427778 7.90201176,5.31974074 C8.36083529,5.42677778 8.81048235,5.55585185 9.25401176,5.70696296 C9.69601176,5.85964815 10.0906,6.06585185 10.4377765,6.324 C10.7849529,6.58214815 11.0663647,6.90798148 11.2804824,7.30307407 C11.4930706,7.69816667 11.6016588,8.18612963 11.6016588,8.76224074 C11.6016588,9.46112963 11.4456588,10.0545556 11.1367176,10.5409444 C10.8262471,11.0257593 10.4240118,11.4208519 9.92848235,11.7262222 C9.43448235,12.0300185 8.88389412,12.2503889 8.27824706,12.3873333 C7.6726,12.5227037 7.0746,12.591963 6.48577647,12.591963 C5.76083529,12.591963 5.09248235,12.508537 4.48071765,12.3401111 C3.86742353,12.1748333 3.33518824,11.9198333 2.88554118,11.5782593 C2.43589412,11.2351111 2.08107059,10.8116852 1.8226,10.3001111 C1.56412941,9.79168519 1.42801176,9.18724074 1.41271765,8.48835185 L3.93777647,8.48835185 Z" id="Fill-20" fill="#FFFFFF" mask="url(#mask-4)"></path>
                </g>
            </g>
        </g>
    </g>
</svg>