<?xml version="1.0" encoding="utf-8"?>
<!-- Generator: Adobe Illustrator 16.0.4, SVG Export Plug-In . SVG Version: 6.00 Build 0)  -->
<!DOCTYPE svg PUBLIC "-//W3C//DTD SVG 1.1//EN" "http://www.w3.org/Graphics/SVG/1.1/DTD/svg11.dtd">
<svg version="1.1" id="pullups" xmlns="http://www.w3.org/2000/svg" xmlns:xlink="http://www.w3.org/1999/xlink" x="0px" y="0px"
	 width="134.937px" height="82.902px" viewBox="-14.968 -0.001 134.937 82.902"
	 enable-background="new -14.968 -0.001 134.937 82.902" xml:space="preserve">
<g>
	<path fill="#FFFFFF" d="M114.455,23.9c0.25-0.029,0.46-0.149,0.46-0.47c0-0.39-0.25-0.52-0.689-0.52h-0.66v1.75h0.351v-0.74h0.22
		l0.42,0.74h0.371L114.455,23.9z M113.915,23.641v-0.46h0.301c0.149,0,0.35,0.03,0.35,0.22c0,0.21-0.149,0.24-0.34,0.24H113.915z
		 M114.455,23.9c0.25-0.029,0.46-0.149,0.46-0.47c0-0.39-0.25-0.52-0.689-0.52h-0.66v1.75h0.351v-0.74h0.22l0.42,0.74h0.371
		L114.455,23.9z M113.915,23.641v-0.46h0.301c0.149,0,0.35,0.03,0.35,0.22c0,0.21-0.149,0.24-0.34,0.24H113.915z M114.455,23.9
		c0.25-0.029,0.46-0.149,0.46-0.47c0-0.39-0.25-0.52-0.689-0.52h-0.66v1.75h0.351v-0.74h0.22l0.42,0.74h0.371L114.455,23.9z
		 M113.915,23.641v-0.46h0.301c0.149,0,0.35,0.03,0.35,0.22c0,0.21-0.149,0.24-0.34,0.24H113.915z M114.455,23.9
		c0.25-0.029,0.46-0.149,0.46-0.47c0-0.39-0.25-0.52-0.689-0.52h-0.66v1.75h0.351v-0.74h0.22l0.42,0.74h0.371L114.455,23.9z
		 M113.915,23.641v-0.46h0.301c0.149,0,0.35,0.03,0.35,0.22c0,0.21-0.149,0.24-0.34,0.24H113.915z M114.455,23.9
		c0.25-0.029,0.46-0.149,0.46-0.47c0-0.39-0.25-0.52-0.689-0.52h-0.66v1.75h0.351v-0.74h0.22l0.42,0.74h0.371L114.455,23.9z
		 M113.915,23.641v-0.46h0.301c0.149,0,0.35,0.03,0.35,0.22c0,0.21-0.149,0.24-0.34,0.24H113.915z M114.455,23.9
		c0.25-0.029,0.46-0.149,0.46-0.47c0-0.39-0.25-0.52-0.689-0.52h-0.66v1.75h0.351v-0.74h0.22l0.42,0.74h0.371L114.455,23.9z
		 M113.915,23.641v-0.46h0.301c0.149,0,0.35,0.03,0.35,0.22c0,0.21-0.149,0.24-0.34,0.24H113.915z M114.455,23.9
		c0.25-0.029,0.46-0.149,0.46-0.47c0-0.39-0.25-0.52-0.689-0.52h-0.66v1.75h0.351v-0.74h0.22l0.42,0.74h0.371L114.455,23.9z
		 M113.915,23.641v-0.46h0.301c0.149,0,0.35,0.03,0.35,0.22c0,0.21-0.149,0.24-0.34,0.24H113.915z M114.455,23.9
		c0.25-0.029,0.46-0.149,0.46-0.47c0-0.39-0.25-0.52-0.689-0.52h-0.66v1.75h0.351v-0.74h0.22l0.42,0.74h0.371L114.455,23.9z
		 M113.915,23.641v-0.46h0.301c0.149,0,0.35,0.03,0.35,0.22c0,0.21-0.149,0.24-0.34,0.24H113.915z M114.455,23.9
		c0.25-0.029,0.46-0.149,0.46-0.47c0-0.39-0.25-0.52-0.689-0.52h-0.66v1.75h0.351v-0.74h0.22l0.42,0.74h0.371L114.455,23.9z
		 M113.915,23.641v-0.46h0.301c0.149,0,0.35,0.03,0.35,0.22c0,0.21-0.149,0.24-0.34,0.24H113.915z M114.455,23.9
		c0.25-0.029,0.46-0.149,0.46-0.47c0-0.39-0.25-0.52-0.689-0.52h-0.66v1.75h0.351v-0.74h0.22l0.42,0.74h0.371L114.455,23.9z
		 M113.915,23.641v-0.46h0.301c0.149,0,0.35,0.03,0.35,0.22c0,0.21-0.149,0.24-0.34,0.24H113.915z M114.455,23.9
		c0.25-0.029,0.46-0.149,0.46-0.47c0-0.39-0.25-0.52-0.689-0.52h-0.66v1.75h0.351v-0.74h0.22l0.42,0.74h0.371L114.455,23.9z
		 M113.915,23.641v-0.46h0.301c0.149,0,0.35,0.03,0.35,0.22c0,0.21-0.149,0.24-0.34,0.24H113.915z M114.455,23.9
		c0.25-0.029,0.46-0.149,0.46-0.47c0-0.39-0.25-0.52-0.689-0.52h-0.66v1.75h0.351v-0.74h0.22l0.42,0.74h0.371L114.455,23.9z
		 M113.915,23.641v-0.46h0.301c0.149,0,0.35,0.03,0.35,0.22c0,0.21-0.149,0.24-0.34,0.24H113.915z M114.455,23.9
		c0.25-0.029,0.46-0.149,0.46-0.47c0-0.39-0.25-0.52-0.689-0.52h-0.66v1.75h0.351v-0.74h0.22l0.42,0.74h0.371L114.455,23.9z
		 M113.915,23.641v-0.46h0.301c0.149,0,0.35,0.03,0.35,0.22c0,0.21-0.149,0.24-0.34,0.24H113.915z M114.455,23.9
		c0.25-0.029,0.46-0.149,0.46-0.47c0-0.39-0.25-0.52-0.689-0.52h-0.66v1.75h0.351v-0.74h0.22l0.42,0.74h0.371L114.455,23.9z
		 M113.915,23.641v-0.46h0.301c0.149,0,0.35,0.03,0.35,0.22c0,0.21-0.149,0.24-0.34,0.24H113.915z M114.455,23.9
		c0.25-0.029,0.46-0.149,0.46-0.47c0-0.39-0.25-0.52-0.689-0.52h-0.66v1.75h0.351v-0.74h0.22l0.42,0.74h0.371L114.455,23.9z
		 M113.915,23.641v-0.46h0.301c0.149,0,0.35,0.03,0.35,0.22c0,0.21-0.149,0.24-0.34,0.24H113.915z M114.455,23.9
		c0.25-0.029,0.46-0.149,0.46-0.47c0-0.39-0.25-0.52-0.689-0.52h-0.66v1.75h0.351v-0.74h0.22l0.42,0.74h0.371L114.455,23.9z
		 M113.915,23.641v-0.46h0.301c0.149,0,0.35,0.03,0.35,0.22c0,0.21-0.149,0.24-0.34,0.24H113.915z M114.915,23.431
		c0-0.39-0.25-0.52-0.689-0.52h-0.66v1.75h0.351v-0.74h0.22l0.42,0.74h0.371l-0.471-0.761
		C114.705,23.871,114.915,23.75,114.915,23.431z M113.915,23.641v-0.46h0.301c0.149,0,0.35,0.03,0.35,0.22
		c0,0.21-0.149,0.24-0.34,0.24H113.915z M114.194,22.23c-0.85,0-1.609,0.61-1.609,1.561c0,0.949,0.76,1.56,1.609,1.56
		c0.841,0,1.601-0.61,1.601-1.56S115.035,22.23,114.194,22.23z M114.194,25.011c-0.659,0-1.18-0.51-1.18-1.22
		s0.521-1.221,1.18-1.221c0.641,0,1.171,0.511,1.171,1.221S114.835,25.011,114.194,25.011z M114.455,23.9
		c0.25-0.029,0.46-0.149,0.46-0.47c0-0.39-0.25-0.52-0.689-0.52h-0.66v1.75h0.351v-0.74h0.22l0.42,0.74h0.371L114.455,23.9z
		 M113.915,23.641v-0.46h0.301c0.149,0,0.35,0.03,0.35,0.22c0,0.21-0.149,0.24-0.34,0.24H113.915z M114.455,23.9
		c0.25-0.029,0.46-0.149,0.46-0.47c0-0.39-0.25-0.52-0.689-0.52h-0.66v1.75h0.351v-0.74h0.22l0.42,0.74h0.371L114.455,23.9z
		 M113.915,23.641v-0.46h0.301c0.149,0,0.35,0.03,0.35,0.22c0,0.21-0.149,0.24-0.34,0.24H113.915z M114.455,23.9
		c0.25-0.029,0.46-0.149,0.46-0.47c0-0.39-0.25-0.52-0.689-0.52h-0.66v1.75h0.351v-0.74h0.22l0.42,0.74h0.371L114.455,23.9z
		 M113.915,23.641v-0.46h0.301c0.149,0,0.35,0.03,0.35,0.22c0,0.21-0.149,0.24-0.34,0.24H113.915z M114.455,23.9
		c0.25-0.029,0.46-0.149,0.46-0.47c0-0.39-0.25-0.52-0.689-0.52h-0.66v1.75h0.351v-0.74h0.22l0.42,0.74h0.371L114.455,23.9z
		 M113.915,23.641v-0.46h0.301c0.149,0,0.35,0.03,0.35,0.22c0,0.21-0.149,0.24-0.34,0.24H113.915z M114.455,23.9
		c0.25-0.029,0.46-0.149,0.46-0.47c0-0.39-0.25-0.52-0.689-0.52h-0.66v1.75h0.351v-0.74h0.22l0.42,0.74h0.371L114.455,23.9z
		 M113.915,23.641v-0.46h0.301c0.149,0,0.35,0.03,0.35,0.22c0,0.21-0.149,0.24-0.34,0.24H113.915z M114.455,23.9
		c0.25-0.029,0.46-0.149,0.46-0.47c0-0.39-0.25-0.52-0.689-0.52h-0.66v1.75h0.351v-0.74h0.22l0.42,0.74h0.371L114.455,23.9z
		 M113.915,23.641v-0.46h0.301c0.149,0,0.35,0.03,0.35,0.22c0,0.21-0.149,0.24-0.34,0.24H113.915z M114.455,23.9
		c0.25-0.029,0.46-0.149,0.46-0.47c0-0.39-0.25-0.52-0.689-0.52h-0.66v1.75h0.351v-0.74h0.22l0.42,0.74h0.371L114.455,23.9z
		 M113.915,23.641v-0.46h0.301c0.149,0,0.35,0.03,0.35,0.22c0,0.21-0.149,0.24-0.34,0.24H113.915z M114.455,23.9
		c0.25-0.029,0.46-0.149,0.46-0.47c0-0.39-0.25-0.52-0.689-0.52h-0.66v1.75h0.351v-0.74h0.22l0.42,0.74h0.371L114.455,23.9z
		 M113.915,23.641v-0.46h0.301c0.149,0,0.35,0.03,0.35,0.22c0,0.21-0.149,0.24-0.34,0.24H113.915z M114.455,23.9
		c0.25-0.029,0.46-0.149,0.46-0.47c0-0.39-0.25-0.52-0.689-0.52h-0.66v1.75h0.351v-0.74h0.22l0.42,0.74h0.371L114.455,23.9z
		 M113.915,23.641v-0.46h0.301c0.149,0,0.35,0.03,0.35,0.22c0,0.21-0.149,0.24-0.34,0.24H113.915z M114.455,23.9
		c0.25-0.029,0.46-0.149,0.46-0.47c0-0.39-0.25-0.52-0.689-0.52h-0.66v1.75h0.351v-0.74h0.22l0.42,0.74h0.371L114.455,23.9z
		 M113.915,23.641v-0.46h0.301c0.149,0,0.35,0.03,0.35,0.22c0,0.21-0.149,0.24-0.34,0.24H113.915z M114.455,23.9
		c0.25-0.029,0.46-0.149,0.46-0.47c0-0.39-0.25-0.52-0.689-0.52h-0.66v1.75h0.351v-0.74h0.22l0.42,0.74h0.371L114.455,23.9z
		 M113.915,23.641v-0.46h0.301c0.149,0,0.35,0.03,0.35,0.22c0,0.21-0.149,0.24-0.34,0.24H113.915z M114.455,23.9
		c0.25-0.029,0.46-0.149,0.46-0.47c0-0.39-0.25-0.52-0.689-0.52h-0.66v1.75h0.351v-0.74h0.22l0.42,0.74h0.371L114.455,23.9z
		 M113.915,23.641v-0.46h0.301c0.149,0,0.35,0.03,0.35,0.22c0,0.21-0.149,0.24-0.34,0.24H113.915z M114.455,23.9
		c0.25-0.029,0.46-0.149,0.46-0.47c0-0.39-0.25-0.52-0.689-0.52h-0.66v1.75h0.351v-0.74h0.22l0.42,0.74h0.371L114.455,23.9z
		 M113.915,23.641v-0.46h0.301c0.149,0,0.35,0.03,0.35,0.22c0,0.21-0.149,0.24-0.34,0.24H113.915z M114.455,23.9
		c0.25-0.029,0.46-0.149,0.46-0.47c0-0.39-0.25-0.52-0.689-0.52h-0.66v1.75h0.351v-0.74h0.22l0.42,0.74h0.371L114.455,23.9z
		 M113.915,23.641v-0.46h0.301c0.149,0,0.35,0.03,0.35,0.22c0,0.21-0.149,0.24-0.34,0.24H113.915z"/>
	<path fill="#FFFFFF" d="M22.885,57.001l-2.32,0.51c-0.2,0.04-0.36,0.25-0.36,0.46c0,0.2,0.16,0.33,0.36,0.29l0.77-0.17v2.57
		c0,0.22,0.17,0.359,0.39,0.31c0.22-0.04,0.4-0.26,0.4-0.489v-2.561l0.76-0.17c0.2-0.04,0.36-0.25,0.36-0.45
		C23.245,57.091,23.085,56.961,22.885,57.001z"/>
	<path fill="#FFFFFF" d="M26.885,57.39v-0.01c0-0.351-0.1-0.609-0.31-0.779c-0.23-0.189-0.59-0.25-1.05-0.149l-1.25,0.25
		c-0.23,0.05-0.4,0.27-0.4,0.5v2.899c0,0.229,0.17,0.369,0.4,0.329c0.22-0.05,0.39-0.27,0.39-0.489v-0.811l0.62-0.12
		c0-0.01,0.01-0.01,0.02-0.01l0.77,0.84c0.1,0.101,0.22,0.17,0.39,0.13c0.2-0.04,0.39-0.229,0.39-0.449c0-0.131-0.05-0.2-0.14-0.29
		l-0.54-0.569C26.605,58.39,26.885,57.97,26.885,57.39z M26.085,57.601c0,0.311-0.22,0.569-0.61,0.649l-0.81,0.16V57.36l0.79-0.17
		c0.39-0.069,0.63,0.05,0.63,0.399V57.601z"/>
	<path fill="#FFFFFF" d="M31.015,58.51l-1.26-2.649c-0.08-0.189-0.24-0.279-0.45-0.239l-0.05,0.01c-0.22,0.05-0.38,0.2-0.46,0.42
		l-1.27,3.15c-0.03,0.06-0.04,0.119-0.04,0.18c0,0.21,0.15,0.351,0.36,0.311c0.16-0.029,0.3-0.149,0.37-0.33l0.25-0.649l1.59-0.311
		l0.25,0.529c0.07,0.15,0.19,0.24,0.38,0.21c0.21-0.039,0.38-0.25,0.38-0.47C31.065,58.622,31.045,58.571,31.015,58.51z
		 M28.765,57.941l0.5-1.319l0.5,1.12L28.765,57.941z"/>
	<path fill="#FFFFFF" d="M32.155,55.111c-0.22,0.04-0.4,0.25-0.4,0.471v2.949c0,0.221,0.18,0.37,0.4,0.33
		c0.23-0.05,0.41-0.26,0.41-0.479v-2.939C32.565,55.211,32.385,55.061,32.155,55.111z"/>
	<path fill="#FFFFFF" d="M36.415,54.341c-0.22,0.03-0.4,0.24-0.4,0.471v1.899l-1.54-1.78c-0.11-0.119-0.22-0.199-0.42-0.159
		l-0.08,0.01c-0.22,0.04-0.4,0.25-0.4,0.471v2.939c0,0.221,0.18,0.37,0.4,0.33s0.39-0.25,0.39-0.471v-1.97l1.6,1.84
		c0.11,0.12,0.22,0.189,0.41,0.16h0.03c0.23-0.04,0.4-0.261,0.4-0.479v-2.931C36.805,54.452,36.635,54.292,36.415,54.341z"/>
	<path fill="#FFFFFF" d="M38.235,54.031c-0.23,0.03-0.41,0.25-0.41,0.471v2.939c0,0.229,0.18,0.38,0.41,0.34
		c0.22-0.039,0.4-0.25,0.4-0.479v-2.93C38.635,54.14,38.454,53.992,38.235,54.031z"/>
	<path fill="#FFFFFF" d="M42.495,53.341c-0.22,0.03-0.4,0.24-0.4,0.46v1.9l-1.55-1.812c-0.1-0.119-0.22-0.199-0.41-0.17l-0.08,0.011
		c-0.23,0.04-0.4,0.25-0.4,0.471v2.938c0,0.221,0.17,0.37,0.4,0.341c0.21-0.04,0.39-0.24,0.39-0.46v-1.979l1.6,1.87
		c0.11,0.13,0.23,0.21,0.42,0.18l0.02-0.01c0.23-0.03,0.41-0.24,0.41-0.471v-2.931C42.895,53.461,42.715,53.311,42.495,53.341z"/>
	<path fill="#FFFFFF" d="M46.775,54.311l-0.87,0.119c-0.19,0.03-0.35,0.21-0.35,0.41c0,0.189,0.16,0.32,0.35,0.29l0.49-0.069v0.529
		c-0.2,0.17-0.46,0.29-0.76,0.33c-0.64,0.09-1.1-0.34-1.1-1.01V54.9c0-0.63,0.46-1.221,1.05-1.3c0.34-0.051,0.58,0.01,0.8,0.13
		c0.05,0.04,0.12,0.069,0.24,0.061c0.22-0.04,0.4-0.24,0.4-0.46c0-0.16-0.09-0.261-0.17-0.301c-0.33-0.189-0.69-0.26-1.25-0.18
		c-1.1,0.159-1.91,1.13-1.91,2.18v0.011c0,1.09,0.78,1.79,1.92,1.62c0.55-0.08,0.98-0.32,1.28-0.551
		c0.19-0.149,0.28-0.319,0.28-0.561V54.65C47.175,54.43,46.995,54.281,46.775,54.311z"/>
	<path fill="#FFFFFF" d="M51.025,52.191l-1.1,0.13c-0.22,0.03-0.4,0.229-0.4,0.46v2.91c0,0.221,0.18,0.38,0.4,0.351
		c0.23-0.021,0.4-0.221,0.4-0.45v-0.729l0.61-0.08c0.83-0.101,1.49-0.63,1.49-1.479v-0.01
		C52.425,52.531,51.895,52.082,51.025,52.191z M51.605,53.421c0,0.311-0.24,0.59-0.64,0.63l-0.64,0.08v-1.12l0.63-0.08
		c0.4-0.05,0.65,0.11,0.65,0.48V53.421z"/>
	<path fill="#FFFFFF" d="M56.255,54.76l-1.279-2.771c-0.09-0.189-0.25-0.289-0.461-0.271l-0.049,0.011
		c-0.221,0.021-0.381,0.159-0.471,0.37l-1.279,3.039c-0.031,0.062-0.051,0.131-0.051,0.181c0,0.21,0.16,0.359,0.37,0.341
		c0.17-0.021,0.31-0.131,0.37-0.29l0.26-0.641l1.609-0.17l0.25,0.55c0.07,0.16,0.199,0.261,0.391,0.229
		c0.21-0.021,0.38-0.21,0.38-0.43C56.295,54.861,56.285,54.811,56.255,54.76z M53.966,53.981l0.51-1.271l0.51,1.16L53.966,53.981z"
		/>
	<path fill="#FFFFFF" d="M59.854,51.22c-0.221,0.021-0.399,0.23-0.399,0.44v1.899l-1.562-1.91c-0.108-0.13-0.219-0.221-0.42-0.199
		l-0.08,0.01c-0.229,0.021-0.398,0.21-0.398,0.439v2.939c0,0.221,0.17,0.38,0.391,0.36c0.219-0.021,0.399-0.211,0.399-0.44v-1.97
		l1.62,1.979c0.109,0.13,0.22,0.22,0.408,0.189h0.031c0.229-0.011,0.409-0.21,0.409-0.431v-2.939
		C60.255,51.372,60.075,51.202,59.854,51.22z"/>
	<path fill="#FFFFFF" d="M63.636,50.961l-2.371,0.18c-0.199,0.021-0.369,0.2-0.369,0.4c0,0.21,0.17,0.359,0.369,0.35l0.78-0.06V54.4
		c0,0.221,0.181,0.391,0.41,0.38c0.22-0.021,0.399-0.22,0.399-0.439v-2.569l0.779-0.061c0.2-0.01,0.37-0.189,0.37-0.399
		S63.835,50.952,63.636,50.961z"/>
	<path fill="#FFFFFF" d="M66.136,52.301c-0.641-0.13-0.801-0.199-0.801-0.439v-0.01c0-0.181,0.17-0.33,0.479-0.351
		c0.25-0.021,0.5,0.061,0.771,0.2c0.061,0.039,0.13,0.06,0.21,0.05c0.2-0.011,0.37-0.181,0.37-0.391c0-0.159-0.09-0.271-0.17-0.311
		c-0.34-0.199-0.721-0.29-1.17-0.271c-0.762,0.051-1.29,0.521-1.29,1.181v0.01c0,0.74,0.479,0.92,1.22,1.07
		c0.61,0.12,0.74,0.22,0.74,0.43v0.011c0,0.21-0.2,0.351-0.529,0.37c-0.361,0.021-0.66-0.091-0.941-0.28
		c-0.059-0.029-0.129-0.069-0.229-0.061c-0.21,0.011-0.38,0.19-0.38,0.4c0,0.119,0.06,0.229,0.149,0.29
		c0.41,0.27,0.9,0.399,1.38,0.369c0.801-0.04,1.36-0.489,1.36-1.22v-0.011C67.306,52.702,66.886,52.452,66.136,52.301z"/>
	<path fill="#FFFFFF" d="M37.865,44.531v-27.25c0-0.52-0.44-0.869-0.98-0.77l-5.91,0.91c-0.51,0.1-1.25,0.35-1.25,1.09
		c0,0.91,1.36,0.81,1.36,1.99v25.11c0,1.181-1.36,1.601-1.36,2.511c0,0.729,0.74,0.71,1.25,0.609l7-1.13
		c0.51-0.091,1.25-0.351,1.25-1.08C39.225,45.611,37.865,45.711,37.865,44.531z M37.695,47.082l-6.99,1.12
		c-0.17,0.029-0.31,0.05-0.42,0.05c-0.43,0-0.43-0.17-0.43-0.311c0-0.04,0.01-0.069,0.01-0.09l6.85-1.101
		c0.96-0.181,0.96-0.601,0.96-0.74c0-0.22-0.12-0.319-0.46-0.55c-0.38-0.26-0.9-0.62-0.9-1.431V16.77c0,0,0-0.01-0.01-0.03
		l0.41-0.06c0.06-0.01,0.1-0.01,0.14-0.01c0.26,0,0.44,0.17,0.44,0.43v27.25c0,0.811,0.52,1.17,0.9,1.439
		c0.34,0.229,0.46,0.34,0.46,0.55C38.655,46.47,38.655,46.89,37.695,47.082z"/>
	<path fill="#FFFFFF" d="M47.954,43.202v-27.25c0-0.521-0.44-0.87-0.98-0.78l-5.91,0.83c-0.52,0.09-1.25,0.33-1.25,1.069
		c0,0.9,1.36,0.83,1.36,2.011v25.11c0,1.17-1.36,1.58-1.36,2.489c0,0.73,0.73,0.71,1.25,0.62l7-1.021
		c0.51-0.09,1.25-0.329,1.25-1.069C49.315,44.311,47.954,44.381,47.954,43.202z M47.795,45.751l-7,1.021
		c-0.16,0.029-0.28,0.05-0.4,0.05c-0.44,0-0.44-0.181-0.44-0.329c0-0.021,0-0.051,0.01-0.07l6.85-0.99
		c0.95-0.17,0.95-0.59,0.95-0.72c0-0.22-0.13-0.34-0.46-0.57c-0.38-0.27-0.9-0.63-0.9-1.438V15.451c0-0.021-0.01-0.03-0.01-0.051
		l0.41-0.06c0.05-0.01,0.09-0.01,0.13-0.01c0.27,0,0.45,0.18,0.45,0.449v27.25c0,0.811,0.52,1.171,0.9,1.439
		c0.34,0.24,0.46,0.341,0.46,0.561C48.745,45.171,48.745,45.591,47.795,45.751z"/>
	<path fill="#FFFFFF" d="M26.855,46.22V26.73c0-0.49-0.41-0.77-0.91-0.609l-4.43,1.34c-0.5,0.16-0.91,0.689-0.91,1.17v15.081
		c0,0.8-0.66,1.641-1.47,1.891c-0.82,0.239-1.47-0.2-1.47-0.979V29.531c0-0.489-0.41-0.76-0.91-0.609l-4.43,1.35
		c-0.5,0.15-0.91,0.681-0.91,1.16v14c0,5.421,2.59,7.83,6.36,6.66c1.86-0.569,3.54-1.819,4.27-3.05v0.38c0,0.78,0.47,1.2,1.24,0.96
		l3.68-1.09c0.52-0.16,1.25-0.49,1.25-1.229C28.215,47.162,26.855,47.412,26.855,46.22z M16.115,29.241l0.52-0.171
		c0.06-0.01,0.12-0.02,0.17-0.02c0.19,0,0.29,0.11,0.29,0.3v15.09c0,0.439,0.18,0.811,0.47,1.061c-0.02,0-0.04,0.01-0.07,0.01
		c-0.8,0-1.38-0.59-1.38-1.399V29.241z M17.454,51.582c-0.59,0.18-1.14,0.271-1.67,0.271c-0.63,0-1.2-0.141-1.7-0.399
		c0.23,0.04,0.47,0.069,0.72,0.069c0.52,0,1.08-0.091,1.67-0.271c1.74-0.53,3.37-1.7,4.07-2.891l0.65-1.119v1.68
		c0,0.07,0.01,0.141,0.02,0.21C20.405,50.162,18.965,51.111,17.454,51.582z M26.645,48.781l-3.68,1.091
		c-0.11,0.029-0.21,0.05-0.3,0.05c-0.3,0-0.42-0.21-0.47-0.45l3.47-1.02c0.66-0.2,1-0.5,1-0.9c0-0.18-0.09-0.26-0.43-0.46
		c-0.37-0.21-0.93-0.529-0.93-1.359V26.44l0.52-0.17c0.06-0.02,0.12-0.02,0.17-0.02c0.19,0,0.29,0.1,0.29,0.29v19.51
		c0,0.84,0.56,1.15,0.93,1.36c0.34,0.21,0.43,0.279,0.43,0.47C27.645,48.281,27.305,48.571,26.645,48.781z"/>
	<path fill="#FFFFFF" d="M85.995,42.381c5.229,0.13,9.46-3.401,9.46-10.55c0-7.15-3.851-10.87-9.521-11
		c-3.609-0.091-7.069-0.2-7.069-0.2c-0.521-0.01-1.261,0.08-1.261,0.83c0,0.91,1.369,1.109,1.369,2.3v25.3
		c0,1.189-1.369,1.329-1.369,2.239c0,0.74,0.74,0.87,1.261,0.88l6.528,0.16c0.521,0.011,1.271-0.08,1.271-0.83
		c0-0.909-1.37-1.109-1.37-2.31v-6.86C85.524,42.361,85.755,42.381,85.995,42.381z M89.125,31.681c0,4.28-1.37,6.42-3.05,6.38
		l-0.78-0.02v-12.9l0.78,0.021C87.755,25.201,89.125,27.4,89.125,31.681z M83.733,24.321l0.382,0.011l0.778,0.02
		c0.36,0,0.722,0.101,1.062,0.29h-0.08l-0.78-0.02l-0.369-0.011v13.341l-0.66-0.011l-0.33-0.01v-13.61H83.733z M85.585,50.622
		c0.311,0.279,0.51,0.47,0.51,0.739c0,0.131,0,0.431-0.709,0.45c-0.07,0-0.121,0.01-0.181,0l-6.53-0.149
		c-0.55-0.011-0.77-0.15-0.869-0.29l6.42,0.149c0.061,0.01,0.109,0.01,0.17,0.01c0.721-0.039,0.721-0.319,0.721-0.47
		c0-0.25-0.189-0.45-0.512-0.729c-0.379-0.34-0.869-0.78-0.869-1.57v-7.27l0.41,0.039c0.24,0.021,0.459,0.04,0.681,0.04
		c0.22,0.011,0.438,0.011,0.649,0c2.431-0.09,4.5-1.01,5.979-2.659c1.601-1.79,2.45-4.391,2.45-7.53c0-5.22-2.07-8.74-5.801-10.07
		c4.351,1.04,6.779,4.69,6.779,10.36c0,3.14-0.84,5.74-2.449,7.53c-1.479,1.649-3.551,2.569-5.971,2.659
		c-0.22,0.011-0.439,0.011-0.66,0c-0.209,0-0.438-0.02-0.68-0.04l-0.4-0.04v7.271C84.726,49.841,85.205,50.271,85.585,50.622z"/>
	<path fill="#FFFFFF" d="M76.394,13.561l-7.59,0.21c-0.47,0.01-1.16,0.16-1.16,1.021c0,1.06,1.262,1.22,1.262,2.6v18.33
		c0,1.13-0.87,2.13-1.932,2.21c-1.06,0.09-1.93-0.77-1.93-1.89V17.63c0-1.38,1.26-1.68,1.26-2.73c0-0.87-0.68-0.939-1.16-0.899
		l-7.59,0.609c-0.56,0.04-1.359,0.24-1.359,1.091c0,1.06,1.49,1.13,1.49,2.51l-0.01,18.279c0,5.011,4.17,8.911,9.299,8.73
		c5.131-0.189,9.301-4.4,9.301-9.411V17.181c0-1.37,1.479-1.6,1.479-2.66C77.755,13.661,76.955,13.551,76.394,13.561z
		 M63.495,17.121c0-0.86,0.43-1.38,0.77-1.79c0.271-0.32,0.48-0.57,0.48-0.94c0-0.07,0-0.14-0.021-0.2l0.23-0.02
		c0.05,0,0.1-0.01,0.16-0.01c0.51,0,0.609,0.229,0.609,0.56c0,0.36-0.211,0.62-0.479,0.94c-0.34,0.42-0.78,0.92-0.78,1.79
		l0.02,18.409c0,0.811,0.392,1.521,1,1.92c-1.118-0.079-1.988-1.039-1.988-2.25V17.121L63.495,17.121z M76.625,15.23
		c-0.41,0.4-0.92,0.891-0.92,1.78v18.62c0,4.82-4.021,8.88-8.96,9.061c-0.109,0.011-0.23,0.011-0.34,0.011
		c-1.2,0-2.33-0.24-3.36-0.65c0.75,0.2,1.55,0.311,2.38,0.311h0.34c4.94-0.181,8.961-4.24,8.961-9.05l-0.011-18.63
		c0-0.88,0.521-1.38,0.931-1.78c0.351-0.34,0.561-0.56,0.561-0.89c0-0.06,0-0.17-0.04-0.27l0.021-0.011h0.09
		c0.92,0,0.92,0.431,0.92,0.61C77.194,14.67,76.976,14.891,76.625,15.23z"/>
	<path fill="#FFFFFF" d="M105.274,30.94c-1.221-0.649-2.18-1.359-2.18-2.29c0-0.93,0.84-1.29,1.619-1.199
		c1.04,0.119,1.711,0.75,2.2,1.329c0.46,0.54,0.778,1.101,1.358,1.171c0.98,0.109,1.121-0.801,1.121-1.44v-5.37
		c0-0.35-0.109-0.89-0.84-0.979c-0.721-0.08-0.99,0.35-2.33,0.189c-0.771-0.08-1.561-0.6-3.201-0.78
		c-4.068-0.47-6.868,2.19-6.868,6.03c0,4.36,2.729,6.08,4.89,7.29c1.229,0.7,2.57,1.64,2.57,2.67s-0.78,1.561-1.78,1.45
		c-1.239-0.15-2.36-2.26-2.84-2.89c-0.45-0.591-0.84-1.17-1.479-1.24c-1.07-0.13-1.229,0.89-1.229,1.609v6.711
		c0,0.39,0.108,1,0.909,1.09s1.109-0.38,2.58-0.221c0.851,0.101,1.869,0.689,3.529,0.881c4.11,0.47,7.26-2.301,7.26-6.471
		C110.563,34.331,107.415,32.061,105.274,30.94z M108.035,28.17V22.8c0-0.1-0.021-0.19-0.04-0.26c0.12-0.03,0.229-0.051,0.359-0.051
		c0.039,0,0.09,0,0.141,0.011c0.26,0.029,0.52,0.13,0.52,0.63v5.359c0,1.101-0.449,1.101-0.608,1.101c-0.04,0-0.08-0.01-0.12-0.01
		c-0.221-0.021-0.391-0.16-0.591-0.38C107.865,29.101,108.035,28.851,108.035,28.17z M97.136,35.041c0.039,0,0.08,0,0.119,0.01
		c0.439,0.05,0.75,0.45,1.131,0.96l0.119,0.15c0.09,0.119,0.2,0.29,0.33,0.489c0.471,0.71,1.131,1.7,1.91,2.21
		c-0.051,0-0.102,0-0.15-0.01c-1.16-0.13-2.109-1.57-2.74-2.53c-0.129-0.199-0.238-0.369-0.33-0.489l-0.118-0.15
		c-0.181-0.229-0.341-0.45-0.5-0.61C96.995,35.041,97.075,35.041,97.136,35.041z M103.983,44.47c-0.289,0-0.578-0.02-0.858-0.05
		c-0.931-0.101-1.642-0.34-2.271-0.55c-0.461-0.141-0.859-0.28-1.26-0.32c-0.221-0.029-0.431-0.04-0.631-0.04
		c-0.48,0-0.82,0.07-1.1,0.141l-0.092,0.021c-0.219,0.061-0.389,0.109-0.59,0.109c-0.049,0-0.108-0.01-0.17-0.01
		c-0.188-0.021-0.42-0.101-0.529-0.359c0.101-0.011,0.199-0.04,0.32-0.061l0.08-0.021c0.279-0.08,0.619-0.15,1.1-0.15
		c0.199,0,0.41,0.011,0.631,0.03c0.39,0.05,0.8,0.18,1.26,0.34c0.63,0.2,1.34,0.439,2.27,0.54c0.291,0.03,0.57,0.05,0.86,0.05
		c3.54,0,6.011-2.53,6.011-6.169c0-3.01-1.711-5.45-5.101-7.22c-1.101-0.59-2.37-1.41-2.37-2.601c0-1.09,0.87-1.569,1.74-1.569
		c0.09,0,0.18,0.01,0.27,0.01c0.44,0.06,0.812,0.189,1.141,0.36c-0.051-0.011-0.1-0.021-0.149-0.03
		c-0.101-0.01-0.19-0.021-0.28-0.021c-0.869,0-1.74,0.49-1.74,1.57c0,1.2,1.271,2.021,2.371,2.6c3.391,1.78,5.101,4.21,5.101,7.23
		C109.995,41.931,107.524,44.47,103.983,44.47z"/>
	<path fill="#FFFFFF" d="M9.805,36.661c0-8.33-4.45-12.67-10.99-10.141c-4.16,1.601-8.16,3.12-8.16,3.12
		c-0.6,0.23-1.45,0.69-1.45,1.561c0,1.06,1.58,0.64,1.58,2.029l-0.12,32.451c0,1.391-1.34,1.79-1.16,2.852
		c0.15,0.92,0.86,0.909,1.46,0.67l7.11-2.75c0.6-0.221,1.46-0.681,1.46-1.551c0-1.061-1.59-0.641-1.59-2.04l0.13-10.971
		C1.745,51.091,9.805,49.101,9.805,36.661z M2.495,37.65c0,7.952-3.1,8.941-4.42,9.231V31.85l0.9-0.35
		C0.915,30.75,2.495,32.67,2.495,37.65z M-3.485,31.591l0.24-0.09l0.9-0.351c0.31-0.12,0.61-0.17,0.9-0.17
		c0.31,0,0.72,0.061,1.15,0.34c-0.06-0.01-0.11-0.01-0.16-0.01c-0.29,0-0.6,0.07-0.92,0.181l-0.89,0.35l-0.24,0.09v15.151
		c-0.17,0.06-0.36,0.109-0.55,0.16l-0.43,0.09V31.591z M-1.555,64.191c0.42,0.21,0.52,0.29,0.52,0.521c0,0.5-0.41,0.91-1.23,1.22
		l-7.11,2.75c-0.19,0.07-0.37,0.11-0.51,0.11c-0.2,0-0.39-0.061-0.47-0.45l7.11-2.75c0.81-0.311,1.23-0.72,1.23-1.21
		c0-0.24-0.11-0.319-0.52-0.529c-0.42-0.221-1.07-0.54-1.07-1.511l0.12-10.979l0.01-0.29l0.27-0.061
		c3.43-0.75,11.46-2.5,11.46-14.88c0-5.101-1.7-8.68-4.58-9.96c3.47,0.859,5.55,4.64,5.55,10.3c0,12.371-8.01,14.13-11.45,14.88
		l-0.27,0.061l-0.01,0.29l-0.12,10.979C-2.625,63.651-1.975,63.97-1.555,64.191z"/>
	<path fill="#FFFFFF" d="M52.405,25.701c-1.83,0.079-3.3,1.689-3.28,3.6c0.01,1.91,1.51,3.39,3.33,3.31
		c1.831-0.08,3.3-1.699,3.291-3.6C55.726,27.091,54.233,25.621,52.405,25.701z M52.226,32.081h-0.121c-0.5,0-0.96-0.13-1.37-0.351
		c0.13,0.011,0.25,0.03,0.39,0.03c0.03,0,0.08,0,0.12-0.01c1.641-0.07,2.96-1.53,2.95-3.25c-0.011-1.141-0.601-2.11-1.479-2.61
		c1.391,0.19,2.44,1.42,2.461,2.94C55.185,30.551,53.865,32.011,52.226,32.081z"/>
</g>
</svg>
