<?xml version="1.0" encoding="utf-8"?>
<!-- Generator: Adobe Illustrator 22.1.0, SVG Export Plug-In . SVG Version: 6.00 Build 0)  -->
<svg version="1.1" id="Layer_1" xmlns="http://www.w3.org/2000/svg" xmlns:xlink="http://www.w3.org/1999/xlink" x="0px" y="0px"
	 viewBox="0 0 804 126.3" style="enable-background:new 0 0 804 126.3;" xml:space="preserve">
<style type="text/css">
	.st0{enable-background:new    ;}
	.st1{fill:#757575;}
	.st2{fill:#BC1802;}
	.st3{fill:#EA4335;}
	.st4{fill:#9A1802;}
</style>
<title>GradientVentures-Lockup</title>
<g>
	<g class="st0">
		<path class="st1" d="M260,58.8c0,7.7-2.3,13.8-6.8,18.4c-5.1,5.4-11.9,8.2-20.2,8.2c-8,0-14.8-2.8-20.3-8.3
			c-5.5-5.5-8.3-12.4-8.3-20.5c0-8.1,2.8-14.9,8.3-20.5c5.5-5.5,12.3-8.3,20.3-8.3c4,0,7.9,0.7,11.5,2.2c3.6,1.4,6.5,3.5,8.8,6.1
			l-5.1,5.1c-1.7-2-3.9-3.7-6.6-4.8c-2.7-1.2-5.6-1.7-8.7-1.7c-6,0-11.1,2.1-15.2,6.2c-4.1,4.2-6.2,9.5-6.2,15.8s2.1,11.6,6.2,15.8
			c4.2,4.2,9.2,6.2,15.2,6.2c5.5,0,10-1.5,13.7-4.6c3.6-3.1,5.7-7.3,6.3-12.7h-20v-6.6h26.7C259.9,56.1,260,57.5,260,58.8z"/>
		<path class="st1" d="M271.4,84.1h-7.1V46.4h6.8v6.2h0.3c0.7-2,2.2-3.7,4.4-5.1c2.2-1.4,4.4-2.1,6.6-2.1c2.1,0,3.8,0.3,5.2,0.9
			l-2.2,6.8c-0.9-0.4-2.3-0.5-4.2-0.5c-2.7,0-5,1.1-7,3.2c-2,2.2-3,4.7-3,7.5V84.1z"/>
	</g>
	<g class="st0">
		<path class="st1" d="M306.5,45.2c5.2,0,9.4,1.4,12.4,4.2c3,2.8,4.5,6.6,4.5,11.5v23.2h-6.8v-5.2h-0.3c-2.9,4.3-6.8,6.5-11.7,6.5
			c-4.2,0-7.6-1.2-10.4-3.7c-2.8-2.5-4.2-5.5-4.2-9.2c0-3.9,1.5-7,4.4-9.3c2.9-2.3,6.9-3.5,11.8-3.5c4.2,0,7.7,0.8,10.4,2.3v-1.6
			c0-2.5-1-4.5-2.9-6.3c-1.9-1.7-4.2-2.6-6.8-2.6c-3.9,0-7.1,1.7-9.4,5l-6.2-3.9C294.7,47.6,299.8,45.2,306.5,45.2z M297.4,72.6
			c0,1.8,0.8,3.4,2.3,4.6c1.6,1.2,3.4,1.8,5.5,1.8c3,0,5.6-1.1,8-3.3c2.3-2.2,3.5-4.8,3.5-7.8c-2.2-1.7-5.3-2.6-9.2-2.6
			c-2.9,0-5.3,0.7-7.2,2.1C298.3,68.8,297.4,70.5,297.4,72.6z"/>
	</g>
	<g class="st0">
		<path class="st1" d="M347,85.3c-4.9,0-9.2-1.9-12.7-5.8c-3.5-3.9-5.2-8.7-5.2-14.2c0-5.5,1.7-10.3,5.2-14.2
			c3.5-3.9,7.8-5.8,12.7-5.8c2.8,0,5.3,0.6,7.6,1.8c2.3,1.2,4,2.7,5.3,4.7h0.3l-0.3-5.2V29h7.1v55.1h-6.8v-5.2h-0.3
			c-1.2,1.9-3,3.5-5.3,4.7C352.3,84.7,349.8,85.3,347,85.3z M348.1,78.9c3.5,0,6.3-1.3,8.5-3.8c2.3-2.5,3.5-5.8,3.5-9.8
			c0-3.9-1.2-7.2-3.5-9.8c-2.3-2.6-5.1-3.8-8.5-3.8c-3.4,0-6.2,1.3-8.5,3.8c-2.3,2.6-3.5,5.8-3.5,9.8c0,4,1.2,7.3,3.5,9.8
			C341.9,77.6,344.8,78.9,348.1,78.9z"/>
	</g>
	<g class="st0">
		<path class="st1" d="M384.7,33.4c0,1.4-0.5,2.6-1.5,3.5c-1,1-2.2,1.5-3.5,1.5s-2.6-0.5-3.5-1.5c-1-1-1.5-2.2-1.5-3.5
			s0.5-2.6,1.5-3.5c1-1,2.2-1.5,3.5-1.5s2.6,0.5,3.5,1.5C384.2,30.8,384.7,32,384.7,33.4z M383.2,46.4v37.7h-7.1V46.4H383.2z"/>
	</g>
	<g class="st0">
		<path class="st1" d="M409,85.3c-5.5,0-10.1-1.9-13.7-5.7c-3.6-3.8-5.4-8.6-5.4-14.4c0-5.7,1.7-10.5,5.2-14.3
			c3.5-3.8,7.9-5.7,13.4-5.7c5.6,0,10,1.8,13.3,5.4c3.3,3.6,5,8.7,5,15.2l-0.1,0.8h-29.6c0.1,3.7,1.3,6.7,3.7,8.9
			c2.4,2.3,5.2,3.4,8.5,3.4c4.5,0,8-2.3,10.6-6.8l6.3,3.1c-1.7,3.2-4,5.7-7,7.5C416.2,84.4,412.8,85.3,409,85.3z M397.7,60.7h21.6
			c-0.2-2.6-1.3-4.8-3.2-6.5c-1.9-1.7-4.5-2.6-7.7-2.6c-2.7,0-5,0.8-6.9,2.5C399.6,55.7,398.3,57.9,397.7,60.7z"/>
	</g>
	<g class="st0">
		<path class="st1" d="M433.3,46.4h6.8v5.2h0.3c1.1-1.8,2.7-3.4,5-4.6s4.5-1.8,7-1.8c4.6,0,8.2,1.3,10.7,4c2.5,2.6,3.7,6.4,3.7,11.3
			v23.7h-7.1V60.9c-0.2-6.2-3.3-9.2-9.3-9.2c-2.8,0-5.2,1.1-7.1,3.4c-1.9,2.3-2.8,5-2.8,8.2v20.8h-7.1V46.4z"/>
	</g>
	<g class="st0">
		<path class="st1" d="M488,84.7c-3.1,0-5.6-0.9-7.7-2.8c-2-1.9-3.1-4.5-3.1-7.9V52.9h-6.6v-6.5h6.6V34.9h7.1v11.5h9.2v6.5h-9.2
			v18.8c0,2.5,0.5,4.2,1.5,5.1c1,0.9,2.1,1.3,3.3,1.3c0.6,0,1.1-0.1,1.7-0.2c0.5-0.1,1-0.3,1.5-0.5l2.2,6.3
			C492.6,84.4,490.4,84.7,488,84.7z"/>
	</g>
	<g class="st0">
		<path class="st1" d="M533.6,84.1h-7.4L506.9,29h7.8l15.1,44.7h0.3L545.8,29h7.8L533.6,84.1z"/>
	</g>
	<g class="st0">
		<path class="st1" d="M575,85.3c-5.5,0-10.1-1.9-13.7-5.7c-3.6-3.8-5.4-8.6-5.4-14.4c0-5.7,1.7-10.5,5.2-14.3
			c3.5-3.8,7.9-5.7,13.4-5.7c5.6,0,10,1.8,13.3,5.4c3.3,3.6,5,8.7,5,15.2l-0.1,0.8h-29.6c0.1,3.7,1.3,6.7,3.7,8.9
			c2.4,2.3,5.2,3.4,8.5,3.4c4.5,0,8-2.3,10.6-6.8l6.3,3.1c-1.7,3.2-4,5.7-7,7.5C582.2,84.4,578.8,85.3,575,85.3z M563.7,60.7h21.6
			c-0.2-2.6-1.3-4.8-3.2-6.5c-1.9-1.7-4.5-2.6-7.7-2.6c-2.7,0-5,0.8-6.9,2.5C565.6,55.7,564.3,57.9,563.7,60.7z"/>
	</g>
	<g class="st0">
		<path class="st1" d="M599.3,46.4h6.8v5.2h0.3c1.1-1.8,2.7-3.4,5-4.6s4.5-1.8,7-1.8c4.6,0,8.2,1.3,10.7,4c2.5,2.6,3.7,6.4,3.7,11.3
			v23.7h-7.1V60.9c-0.2-6.2-3.3-9.2-9.3-9.2c-2.8,0-5.2,1.1-7.1,3.4c-1.9,2.3-2.8,5-2.8,8.2v20.8h-7.1V46.4z"/>
	</g>
	<g class="st0">
		<path class="st1" d="M654,84.7c-3.1,0-5.6-0.9-7.7-2.8c-2-1.9-3.1-4.5-3.1-7.9V52.9h-6.6v-6.5h6.6V34.9h7.1v11.5h9.2v6.5h-9.2
			v18.8c0,2.5,0.5,4.2,1.5,5.1c1,0.9,2.1,1.3,3.3,1.3c0.6,0,1.1-0.1,1.7-0.2c0.5-0.1,1-0.3,1.5-0.5l2.2,6.3
			C658.6,84.4,656.5,84.7,654,84.7z"/>
		<path class="st1" d="M699.4,84.1h-6.8v-5.2h-0.3c-1.1,1.8-2.7,3.4-5,4.6s-4.6,1.8-7,1.8c-4.6,0-8.2-1.3-10.7-4
			c-2.5-2.6-3.7-6.4-3.7-11.3V46.4h7.1v23.2c0.2,6.2,3.3,9.2,9.3,9.2c2.8,0,5.2-1.1,7.1-3.4c1.9-2.3,2.8-5,2.8-8.2V46.4h7.1V84.1z"
			/>
	</g>
	<g class="st0">
		<path class="st1" d="M715.1,84.1H708V46.4h6.8v6.2h0.3c0.7-2,2.2-3.7,4.4-5.1c2.2-1.4,4.4-2.1,6.6-2.1c2,0,3.8,0.3,5.2,0.9
			l-2.2,6.8c-0.9-0.4-2.3-0.5-4.2-0.5c-2.7,0-5,1.1-7,3.2c-2,2.2-3,4.7-3,7.5V84.1z"/>
	</g>
	<g class="st0">
		<path class="st1" d="M750.5,85.3c-5.5,0-10.1-1.9-13.7-5.7c-3.6-3.8-5.4-8.6-5.4-14.4c0-5.7,1.7-10.5,5.2-14.3
			c3.5-3.8,7.9-5.7,13.4-5.7c5.6,0,10,1.8,13.3,5.4c3.3,3.6,5,8.7,5,15.2l-0.1,0.8h-29.6c0.1,3.7,1.3,6.7,3.7,8.9
			c2.4,2.3,5.2,3.4,8.5,3.4c4.5,0,8-2.3,10.6-6.8l6.3,3.1c-1.7,3.2-4,5.7-7,7.5C757.7,84.4,754.3,85.3,750.5,85.3z M739.2,60.7h21.6
			c-0.2-2.6-1.3-4.8-3.2-6.5c-1.9-1.7-4.5-2.6-7.7-2.6c-2.7,0-5,0.8-6.9,2.5C741.1,55.7,739.8,57.9,739.2,60.7z"/>
	</g>
	<g class="st0">
		<path class="st1" d="M804,73.6c0,3.3-1.4,6.1-4.3,8.3c-2.9,2.3-6.5,3.4-10.8,3.4c-3.8,0-7.1-1-10-3c-2.9-2-4.9-4.6-6.2-7.8
			l6.3-2.7c0.9,2.3,2.3,4,4,5.3c1.8,1.3,3.7,1.9,5.8,1.9c2.3,0,4.1-0.5,5.7-1.5c1.5-1,2.3-2.1,2.3-3.5c0-2.4-1.8-4.2-5.5-5.3
			l-6.5-1.6c-7.3-1.8-11-5.4-11-10.6c0-3.4,1.4-6.2,4.2-8.3c2.8-2.1,6.4-3.1,10.7-3.1c3.3,0,6.3,0.8,9,2.4c2.7,1.6,4.6,3.7,5.7,6.4
			l-6.3,2.6c-0.7-1.6-1.9-2.8-3.5-3.7c-1.6-0.9-3.4-1.3-5.4-1.3c-1.8,0-3.5,0.5-5,1.4s-2.2,2.1-2.2,3.4c0,2.2,2,3.7,6.1,4.6l5.7,1.5
			C800.3,64.2,804,67.9,804,73.6z"/>
	</g>
	<path class="st2" d="M0,13.3c0,7.3,6,13.3,13.3,13.3h70.8c7.3,0,13.3-6,13.3-13.3H0z"/>
	<path class="st2" d="M82.4,106.4L24.8,6.6C21.1,0.3,13-1.9,6.6,1.8l0,0l70.8,122.7C83.8,120.8,86,112.7,82.4,106.4z"/>
	<path class="st3" d="M6.6,1.8C0.3,5.5-1.9,13.6,1.8,19.9l57.6,99.7c3.7,6.4,11.8,8.5,18.1,4.9c0,0,0,0,0,0l0,0L6.6,1.8z"/>
	<path class="st3" d="M97.4,13.3c0-7.3-6-13.3-13.3-13.3H13.3C6,0,0,6,0,13.3L97.4,13.3L97.4,13.3z"/>
	<path class="st3" d="M135.1,1.8c-6.3-3.7-14.5-1.5-18.1,4.9l-57.6,99.7c-3.7,6.4-1.5,14.5,4.9,18.1L135.1,1.8L135.1,1.8z"/>
	<path class="st4" d="M135.1,1.8L64.2,124.5l0,0c6.3,3.7,14.5,1.5,18.1-4.8c0,0,0,0,0,0l57.6-99.7C143.6,13.6,141.4,5.4,135.1,1.8z"
		/>
</g>
</svg>
