<?xml version="1.0" encoding="utf-8"?>
<!-- Generator: Adobe Illustrator 16.0.4, SVG Export Plug-In . SVG Version: 6.00 Build 0)  -->
<!DOCTYPE svg PUBLIC "-//W3C//DTD SVG 1.1//EN" "http://www.w3.org/Graphics/SVG/1.1/DTD/svg11.dtd">
<svg version="1.1" id="Layer_1" xmlns="http://www.w3.org/2000/svg" xmlns:xlink="http://www.w3.org/1999/xlink" x="0px" y="0px"
	 width="29.403px" height="29.403px" viewBox="0 0 29.403 29.403" enable-background="new 0 0 29.403 29.403" xml:space="preserve">
<g>
	<path fill="#FFFFFF" d="M14.701,29.403C6.595,29.403,0,22.808,0,14.701S6.595,0,14.701,0s14.702,6.595,14.702,14.701
		S22.808,29.403,14.701,29.403z M14.701,1C7.146,1,1,7.146,1,14.701c0,7.556,6.146,13.702,13.701,13.702
		c7.556,0,13.702-6.146,13.702-13.702C28.403,7.146,22.257,1,14.701,1z"/>
</g>
<g>
	<polygon fill="#FFFFFF" points="13.83,21.742 11.002,18.914 15.215,14.701 11.002,10.489 13.83,7.661 20.873,14.701 	"/>
</g>
</svg>
