<?xml version="1.0" encoding="UTF-8"?>
<svg width="22px" height="22px" viewBox="0 0 22 22" version="1.1" xmlns="http://www.w3.org/2000/svg" xmlns:xlink="http://www.w3.org/1999/xlink">
    <!-- Generator: Sketch 53.2 (72643) - https://sketchapp.com -->
    <title>icon-footer-linkedin</title>
    <desc>Created with Sketch.</desc>
    <g id="Page-1" stroke="none" stroke-width="1" fill="none" fill-rule="evenodd">
        <g id="icon-footer-linkedin" fill="#000000" fill-rule="nonzero">
            <path d="M19.802,0.001 L2.198,0.001 C1.076,0.001 0.167,0.91 0.167,2.032 L0.167,19.637 C0.167,20.758 1.077,21.668 2.198,21.668 L19.802,21.668 C20.923,21.668 21.833,20.758 21.833,19.637 L21.833,2.032 C21.834,0.91 20.924,0.001 19.802,0.001 Z M7.763,16.185 L5.286,16.185 L5.286,8.506 L7.763,8.506 L7.763,16.185 Z M7.6,6.874 C7.324,7.135 6.959,7.267 6.51,7.267 L6.499,7.267 C6.066,7.267 5.716,7.136 5.445,6.874 C5.174,6.613 5.037,6.29 5.037,5.904 C5.037,5.508 5.176,5.185 5.45,4.926 C5.728,4.67 6.09,4.542 6.538,4.542 C6.979,4.542 7.331,4.67 7.6,4.926 C7.865,5.185 8.002,5.509 8.01,5.904 C8.01,6.29 7.873,6.613 7.6,6.874 Z M16.928,16.185 L14.451,16.185 L14.451,11.975 C14.451,11.388 14.329,10.951 14.081,10.667 C13.832,10.382 13.508,10.24 13.102,10.24 C12.707,10.24 12.379,10.369 12.12,10.625 C11.856,10.883 11.725,11.249 11.725,11.727 L11.725,16.186 L9.248,16.186 L9.248,10.24 L9.21,8.506 L11.643,8.506 L11.726,9.566 C12.306,8.694 13.05,8.258 13.956,8.258 C14.845,8.258 15.564,8.565 16.108,9.175 C16.655,9.785 16.927,10.636 16.927,11.727 L16.927,16.185 L16.928,16.185 Z" id="Shape"></path>
        </g>
    </g>
</svg>