<?xml version="1.0" encoding="utf-8"?>
<!-- Generator: Adobe Illustrator 16.0.4, SVG Export Plug-In . SVG Version: 6.00 Build 0)  -->
<!DOCTYPE svg PUBLIC "-//W3C//DTD SVG 1.1//EN" "http://www.w3.org/Graphics/SVG/1.1/DTD/svg11.dtd">
<svg version="1.1" id="Layer_1" xmlns="http://www.w3.org/2000/svg" xmlns:xlink="http://www.w3.org/1999/xlink" x="0px" y="0px"
	 width="21.934px" height="17.82px" viewBox="0 0 21.934 17.82" enable-background="new 0 0 21.934 17.82" xml:space="preserve">
<g>
	<path fill="#FFFFFF" d="M21.934,2.109c-0.611,0.916-1.354,1.691-2.234,2.334v0.58c0,1.205-0.174,2.408-0.518,3.609
		c-0.352,1.203-0.883,2.355-1.6,3.465c-0.723,1.107-1.58,2.082-2.578,2.93c-0.998,0.846-2.197,1.523-3.59,2.033
		c-1.401,0.508-2.901,0.76-4.51,0.76c-2.708,0-5.008-0.605-6.904-1.826c0.357,0.053,0.708,0.08,1.064,0.08
		c1.947,0,3.807-0.715,5.586-2.137c-0.966-0.016-1.832-0.318-2.604-0.898c-0.766-0.586-1.301-1.326-1.586-2.223
		c0.285,0.051,0.568,0.074,0.838,0.074c0.406,0,0.806-0.051,1.196-0.156c-1.034-0.201-1.894-0.713-2.579-1.543
		S0.887,7.402,0.887,6.322V6.271c0.645,0.354,1.32,0.543,2.034,0.559c-1.34-0.896-2.009-2.139-2.009-3.732
		c0-0.746,0.203-1.475,0.611-2.186c1.132,1.371,2.498,2.463,4.098,3.264c1.6,0.805,3.324,1.258,5.168,1.361
		c-0.068-0.289-0.102-0.637-0.102-1.043c0-1.234,0.438-2.293,1.307-3.174C12.866,0.443,13.93,0,15.182,0
		c1.287,0,2.387,0.475,3.301,1.422c0.998-0.201,1.947-0.568,2.84-1.092c-0.334,1.082-0.996,1.914-1.979,2.488
		C20.211,2.715,21.073,2.482,21.934,2.109z"/>
</g>
</svg>
