<?xml version="1.0" encoding="UTF-8"?>
<svg width="22px" height="18px" viewBox="0 0 22 18" version="1.1" xmlns="http://www.w3.org/2000/svg" xmlns:xlink="http://www.w3.org/1999/xlink">
    <!-- Generator: Sketch 53.2 (72643) - https://sketchapp.com -->
    <title>icon-twitter</title>
    <desc>Created with Sketch.</desc>
    <g id="Page-1" stroke="none" stroke-width="1" fill="none" fill-rule="evenodd">
        <g id="icon-twitter" fill="#000000" fill-rule="nonzero">
            <path d="M21.934,2.109 C21.323,3.025 20.58,3.8 19.7,4.443 L19.7,5.023 C19.7,6.228 19.526,7.431 19.182,8.632 C18.83,9.835 18.299,10.987 17.582,12.097 C16.859,13.204 16.002,14.179 15.004,15.027 C14.006,15.873 12.807,16.55 11.414,17.06 C10.013,17.568 8.513,17.82 6.904,17.82 C4.196,17.82 1.896,17.215 1.77635684e-15,15.994 C0.357,16.047 0.708,16.074 1.064,16.074 C3.011,16.074 4.871,15.359 6.65,13.937 C5.684,13.921 4.818,13.619 4.046,13.039 C3.28,12.453 2.745,11.713 2.46,10.816 C2.745,10.867 3.028,10.89 3.298,10.89 C3.704,10.89 4.104,10.839 4.494,10.734 C3.46,10.533 2.6,10.021 1.915,9.191 C1.23,8.361 0.887,7.402 0.887,6.322 L0.887,6.271 C1.532,6.625 2.207,6.814 2.921,6.83 C1.581,5.934 0.912,4.691 0.912,3.098 C0.912,2.352 1.115,1.623 1.523,0.912 C2.655,2.283 4.021,3.375 5.621,4.176 C7.221,4.981 8.945,5.434 10.789,5.537 C10.721,5.248 10.687,4.9 10.687,4.494 C10.687,3.26 11.125,2.201 11.994,1.32 C12.866,0.443 13.93,0 15.182,0 C16.469,0 17.569,0.475 18.483,1.422 C19.481,1.221 20.43,0.854 21.323,0.33 C20.989,1.412 20.327,2.244 19.344,2.818 C20.211,2.715 21.073,2.482 21.934,2.109 Z" id="Path"></path>
        </g>
    </g>
</svg>