<?xml version="1.0" encoding="utf-8"?>
<!-- Generator: Adobe Illustrator 16.0.4, SVG Export Plug-In . SVG Version: 6.00 Build 0)  -->
<!DOCTYPE svg PUBLIC "-//W3C//DTD SVG 1.1//EN" "http://www.w3.org/Graphics/SVG/1.1/DTD/svg11.dtd">
<svg version="1.1" id="Layer_1" xmlns="http://www.w3.org/2000/svg" xmlns:xlink="http://www.w3.org/1999/xlink" x="0px" y="0px"
	 width="33.817px" height="33.816px" viewBox="0 0 33.817 33.816" enable-background="new 0 0 33.817 33.816" xml:space="preserve">
<path fill="#FFFFFF" d="M16.908,0C7.569,0,0,7.57,0,16.908s7.569,16.908,16.908,16.908c9.338,0,16.909-7.57,16.909-16.908
	S26.247,0,16.908,0z M13.759,25.894c-2.668,0-4.84-2.192-4.84-4.865v-4.393h1.992v4.393c0,1.574,1.278,2.873,2.848,2.873
	c1.562,0,2.836-1.278,2.845-2.834c0-0.008,0-0.013,0-0.021v-8.539h4.412c0.551,0,0.996,0.445,0.996,0.996
	c0,0.55-0.445,0.996-0.996,0.996h-2.42v6.547h0.002C18.598,23.751,16.428,25.894,13.759,25.894z M21.034,18.344h-0.729V16.35h0.729
	c1.553,0,2.814-1.276,2.814-2.846s-1.262-2.846-2.814-2.846h-2.865h-3.416v10.247c0,0.55-0.445,0.996-0.994,0.996
	c-0.551,0-0.997-0.446-0.997-0.996V8.666H13.9h4.268h2.865c2.65,0,4.807,2.17,4.807,4.838S23.684,18.344,21.034,18.344z"/>
</svg>
