<?xml version="1.0" encoding="utf-8"?>
<!-- Generator: Adobe Illustrator 16.0.4, SVG Export Plug-In . SVG Version: 6.00 Build 0)  -->
<!DOCTYPE svg PUBLIC "-//W3C//DTD SVG 1.1//EN" "http://www.w3.org/Graphics/SVG/1.1/DTD/svg11.dtd">
<svg version="1.1" id="sony" xmlns="http://www.w3.org/2000/svg" xmlns:xlink="http://www.w3.org/1999/xlink" x="0px" y="0px"
	 width="134.937px" height="82.902px" viewBox="-14.968 -0.001 134.937 82.902"
	 enable-background="new -14.968 -0.001 134.937 82.902" xml:space="preserve">
<g>
	<path fill="#FFFFFF" d="M24.582,73.78c2.262,1.174,5.747,1.406,8.026,0.562c1.08-0.387,2.016-1.336,2.068-2.49
		c-0.021-0.914-0.503-1.795-1.33-2.23c-2.192-0.934-4.854-0.738-7.209-1.305c-0.143-0.047-0.438-0.168-0.438-0.584
		c0.058-1.029,2.208-1.16,3.55-1.062c1.474,0.158,3.231,0.43,3.791,1.973l1.167-0.012l-0.006-2.811l-1.192-0.016l-0.004,0.584
		l-0.431-0.18c-2.626-1.211-7.016-1.234-8.685,0.549c-0.604,0.535-0.903,1.475-0.466,2.318c1.315,2.334,4.474,1.859,6.851,2.279
		c0.695,0.127,1.399,0.033,1.869,0.631c0.142,0.301,0.125,0.76-0.218,0.973c-1.438,0.924-3.612,0.682-5.179,0.24
		c-0.896-0.279-2.031-0.98-2.173-1.982h-1.157l0.009,3.34l1.173-0.016L24.582,73.78L24.582,73.78z"/>
	<polygon fill="#FFFFFF" points="69.578,71.132 69.584,73.233 68.108,73.229 68.108,74.378 73.92,74.389 73.92,73.229 
		72.389,73.235 72.385,70.993 76.053,67.007 77.566,67.007 77.562,65.872 72.855,65.872 72.85,67.007 73.77,67.007 71.434,69.518 
		69.428,67.007 70.354,67.007 70.354,65.872 64.531,65.864 64.531,67.007 66.155,67.007 	"/>
	<path fill="#FFFFFF" d="M50.316,65.864l4.056,0.008l5.634,4.949v-3.812l-1.396,0.004v-1.141l4.756-0.01v1.143l-1.404,0.004
		l-0.016,7.379l-1.684-0.01c-2.244-1.828-4.375-3.842-6.637-5.631v4.496h1.465l-0.016,1.135l-4.754,0.01v-1.148l1.463,0.006
		l-0.013-6.232l-1.45-0.006L50.316,65.864L50.316,65.864z"/>
	<path fill="#FFFFFF" d="M42.699,74.846c3.61,0,6.545-2.139,6.545-4.779c0-2.639-2.935-4.779-6.545-4.779
		c-3.615,0-6.547,2.143-6.547,4.779C36.152,72.708,39.084,74.846,42.699,74.846L42.699,74.846z M42.787,66.718
		c2.053,0,3.719,1.529,3.719,3.416c0,1.889-1.666,3.412-3.719,3.412c-2.051,0-3.715-1.523-3.715-3.412
		C39.072,68.247,40.736,66.718,42.787,66.718L42.787,66.718z"/>
	<polygon fill="#FFFFFF" points="68.807,79.78 68.643,79.733 68.807,79.733 	"/>
	<path fill="#FFFFFF" d="M25.587,79.884v-1.697h0.867c1.038,0,1.494,0.262,1.494,0.844c0,0.619-0.405,0.854-1.528,0.854H25.587
		L25.587,79.884z M25.587,80.436h1.387c0.73,0,0.954-0.018,1.335-0.117c0.699-0.188,1.128-0.65,1.128-1.24
		c0-0.414-0.205-0.773-0.569-1.045c-0.449-0.328-0.806-0.396-1.886-0.396h-3.738v0.551h0.41c0.487,0,0.549,0.062,0.558,0.537
		l0.011,0.234v2.533l-0.011,0.24c-0.009,0.469-0.069,0.529-0.558,0.529h-0.41v0.549h3.189v-0.549h-0.277
		c-0.486,0-0.551-0.057-0.562-0.529l-0.008-0.246L25.587,80.436L25.587,80.436z"/>
	<path fill="#FFFFFF" d="M33.504,82.239h-0.301c-0.489,0-0.55-0.061-0.56-0.531l-0.011-0.24v-2.531l0.011-0.234
		c0.01-0.475,0.069-0.537,0.56-0.537h0.301v-0.553h-3.122v0.553h0.317c0.489,0,0.551,0.062,0.56,0.537l0.011,0.234v2.531
		l-0.011,0.24c-0.009,0.479-0.069,0.531-0.56,0.531h-0.271v0.551h3.076V82.239L33.504,82.239z"/>
	<path fill="#FFFFFF" d="M40.219,77.61h-0.812l-0.254,0.553c-0.136-0.1-0.257-0.186-0.37-0.262
		c-0.426-0.277-0.874-0.404-1.515-0.404c-1.812,0-3.097,1.107-3.097,2.688c0,1.648,1.293,2.717,3.256,2.717
		c0.41,0,0.785-0.047,1.11-0.125c0.398-0.092,0.754-0.281,1.038-0.533c0.438-0.391,0.573-0.693,0.643-1.434h-0.812
		c-0.084,0.406-0.123,0.52-0.285,0.777c-0.285,0.443-0.85,0.686-1.56,0.686c-1.191,0-1.803-0.668-1.803-2.006
		c0-1.418,0.59-2.084,1.844-2.084c0.529,0,0.948,0.143,1.293,0.424c0.326,0.275,0.439,0.494,0.561,1.039h0.763V77.61L40.219,77.61z"
		/>
	<path fill="#FFFFFF" d="M41.246,77.61v2.133h0.723c0-0.061,0-0.117,0-0.162c0-0.939,0.57-1.404,1.713-1.418v3.547
		c-0.01,0.477-0.071,0.531-0.562,0.531h-0.252v0.551h3.054v-0.551h-0.295c-0.498,0-0.56-0.057-0.568-0.531v-3.547
		c1.223,0.033,1.731,0.492,1.742,1.58h0.752V77.61H41.246L41.246,77.61z"/>
	<path fill="#FFFFFF" d="M48.263,78.163h0.12c0.488,0,0.549,0.062,0.562,0.537l0.008,0.234v1.809c0,0.641,0.031,0.859,0.186,1.178
		c0.283,0.629,1.201,0.979,2.517,0.979c0.774,0,1.414-0.133,1.893-0.389c0.244-0.143,0.449-0.326,0.57-0.557
		c0.1-0.174,0.152-0.389,0.166-0.611c0-0.068,0-0.27,0-0.6v-2.045c0.008-0.475,0.066-0.537,0.559-0.537h0.213v-0.553h-2.612v0.553
		h0.244c0.484,0,0.55,0.062,0.558,0.537l0.01,0.234v1.811c0,0.748-0.027,0.848-0.244,1.082c-0.212,0.24-0.662,0.389-1.18,0.389
		c-0.521,0-1.021-0.156-1.256-0.389c-0.211-0.211-0.254-0.383-0.254-1.082v-1.811l0.01-0.234c0.012-0.475,0.074-0.537,0.574-0.537
		h0.413v-0.553h-3.054v0.555H48.263z"/>
	<path fill="#FFFFFF" d="M58.086,79.807v-1.645h1.083c0.944,0,1.384,0.266,1.384,0.844c0,0.572-0.379,0.801-1.354,0.801H58.086
		L58.086,79.807z M58.086,80.354h0.908c0.256,0,0.568,0.111,0.766,0.254c0.275,0.209,0.326,0.363,0.344,1.125
		c0.031,0.805,0.459,1.166,1.404,1.166c0.948,0,1.305-0.334,1.305-1.221c0-0.088,0-0.168-0.01-0.375h-0.66l0.009,0.307l0.014,0.074
		c0,0.373-0.091,0.518-0.325,0.518c-0.205,0-0.305-0.104-0.33-0.32l-0.029-0.518c-0.027-0.49-0.223-0.805-0.607-0.984
		c-0.195-0.094-0.316-0.123-0.729-0.201c0.597-0.084,0.807-0.141,1.113-0.262c0.539-0.209,0.805-0.545,0.805-1.004
		c0-0.445-0.271-0.844-0.754-1.072c-0.377-0.195-0.594-0.229-1.377-0.229h-4.164v0.553h0.389c0.486,0,0.549,0.062,0.561,0.537
		l0.008,0.234v2.531l-0.01,0.24c-0.012,0.471-0.072,0.531-0.561,0.531h-0.389v0.551h3.121v-0.551h-0.229
		c-0.489,0-0.555-0.061-0.562-0.531l-0.013-0.24v-1.113H58.086z"/>
	<path fill="#FFFFFF" d="M69.812,77.61h-6.239v0.553h0.214c0.405,0,0.52,0.072,0.553,0.32l0.008,0.27v2.955
		c-0.008,0.479-0.072,0.531-0.561,0.531h-0.189v0.551h6.217v-2.072h-0.771c0,0.143-0.008,0.314-0.008,0.367
		c0,0.254-0.055,0.471-0.257,0.719c-0.284,0.344-0.583,0.438-1.369,0.432h-1.687V80.38h0.428c0.74,0,0.967,0.26,0.967,1.107h0.715
		v-2.646h-0.715v0.096c0,0.66-0.236,0.924-0.836,0.924c-0.03,0-0.15,0-0.355-0.01h-0.201v-1.688h1.697
		c0.762,0,1.143,0.143,1.365,0.5c0.182,0.287,0.256,0.584,0.266,1.057h0.762V77.61H69.812z"/>
	<path fill="#FFFFFF" d="M76.531,77.61h-0.615l-0.295,0.473c-0.146-0.094-0.275-0.172-0.383-0.242
		c-0.42-0.229-0.941-0.344-1.594-0.344c-1.506,0-2.455,0.615-2.455,1.594c0,0.26,0.082,0.506,0.248,0.717
		c0.273,0.377,0.674,0.543,1.666,0.697c1.01,0.156,1.635,0.271,2.037,0.375c0.449,0.115,0.686,0.336,0.686,0.633
		c0,0.463-0.512,0.734-1.389,0.734c-0.631,0-1.229-0.172-1.68-0.475c-0.449-0.311-0.598-0.559-0.73-1.189h-0.703v2.207h0.703
		l0.256-0.551c0.141,0.105,0.254,0.191,0.354,0.246c0.438,0.27,1.07,0.412,1.836,0.412c1.514,0,2.473-0.613,2.473-1.602
		c0-0.584-0.346-1.021-1.061-1.318c-0.469-0.197-0.865-0.291-1.996-0.453c-1.189-0.166-1.475-0.303-1.475-0.689
		c0-0.438,0.479-0.709,1.264-0.709c1.188,0,1.977,0.527,2.168,1.463h0.686V77.61L76.531,77.61z"/>
	<path fill="#FFFFFF" d="M34.728,36.174c-1.276,2.602-0.897,2.789,0,3.785c0.095,0.127,0.131,0.387,0.106,0.871v16.093
		c0,0-3.133,1.6-3.19,1.6l0.012-37.746l3.18-1.442l0.009,15.52C34.869,35.676,34.781,36.074,34.728,36.174L34.728,36.174z"/>
	<polygon fill="#FFFFFF" points="27.471,22.669 30.428,21.335 30.428,59.13 27.459,60.53 	"/>
	<polygon fill="#FFFFFF" points="23.037,24.73 26.105,23.367 26.105,61.075 23.037,62.587 	"/>
	<path fill="#FFFFFF" d="M75.016,17.714c0.041,4.496,0.93,19.667,0.896,19.937l-1.895,0.893c0,0,0.539-9.914,0.723-19.772
		c0.126-4.106-0.999-17.877-0.999-17.877l1.892-0.895C75.633-0.001,74.99,15.986,75.016,17.714L75.016,17.714z"/>
	<path fill="#FFFFFF" d="M70.781,19.695c-0.162,2.314,0.791,20.017,0.791,20.017c-0.604,0.257-1.834,0.86-1.834,0.86
		s0.549-18.693,0.543-20.082c-0.189-4.438-1.219-17.369-1.219-17.369l2.449-1.173C71.514,1.947,70.908,17.907,70.781,19.695
		L70.781,19.695z"/>
	<path fill="#FFFFFF" d="M66.162,24.734c0.09,3.438,1.055,16.983,1.055,16.983l-2.053,0.998c0,0,0.422-14.281,0.441-19.096
		c-0.094-3.933-1.229-18.274-1.229-18.274c0.803-0.498,1.658-0.812,2.506-1.172C66.883,4.175,66.047,20.817,66.162,24.734
		L66.162,24.734z"/>
	<path fill="#FFFFFF" d="M61.545,26.58c-0.062,1.854,1.158,17.249,1.158,17.249s-2.33,1.096-2.391,1.174
		c0-0.555,0.57-16.104,0.57-19.019c0-2.587-1.182-18.47-1.182-18.47l2.562-1.223C62.266,6.294,61.611,22.676,61.545,26.58
		L61.545,26.58z"/>
	<path fill="#FFFFFF" d="M56.811,28.959c0.033,3.384,1.162,17.159,1.162,17.159l-2.508,1.17h-0.046c0,0,0.697-16.733,0.603-19.327
		c0.229-2.572-1.362-17.999-1.362-17.999l2.928-1.437C57.586,8.78,56.645,23.201,56.811,28.959L56.811,28.959z"/>
	<path fill="#FFFFFF" d="M52.125,28.573c-0.045,7.146,1.288,19.654,1.288,19.654l-3.358,1.584c0,0,1.428-15.62,1.234-19.46
		c0.06-4.503-1.485-17.671-1.494-18.104c1.063-0.594,2.18-1.059,3.28-1.552C53.075,10.698,52.08,25.123,52.125,28.573L52.125,28.573
		z"/>
	<path fill="#FFFFFF" d="M47.84,21.745c-0.865,7.716-0.996,16.026,0.463,23.572l0.539,5.08l-3.562,1.674l-0.062,0.057
		c0,0-0.008-6.348,0-6.566c0.854-6.643,1.66-15.624-0.092-23.352v-7.847l3.617-1.67L47.84,21.745L47.84,21.745z"/>
	<path fill="#FFFFFF" d="M44.062,22.343c-1.485,9.012-1.912,15.867,0,23.176v7.152l-3.483,1.613l0.023-11.869
		c1.358-5.671,1.221-8.89,0.15-14.702v-11.27l3.325-1.494L44.062,22.343L44.062,22.343z"/>
	<path fill="#FFFFFF" d="M39.363,28.302c-0.992,5.036-1.751,9.528-0.097,14.162L39.26,54.981l-3.352,1.562l-0.006-16.02
		c-0.024-0.494,0.055-0.965,0.099-0.994c1.24-1.677,1.386-2.504,0.253-3.865c-0.188-0.247-0.361-0.318-0.346-0.624V18.754
		l3.403-1.597h0.058L39.363,28.302L39.363,28.302z"/>
	<path fill="#FFFFFF" d="M77.66,77.671v0.348h0.596v1.758h0.534v-1.758h0.582v-0.348H77.66L77.66,77.671z M79.592,77.671v2.105
		h0.502v-1.082c0-0.139-0.02-0.396-0.041-0.617V78.03h0.021l0.007,0.035l0.078,0.311l0.105,0.369l0.312,1.031h0.412l0.309-1.059
		l0.031-0.105c0.01-0.047,0.043-0.15,0.088-0.312c0.043-0.166,0.049-0.182,0.064-0.27h0.021L81.5,78.065l-0.021,0.217l-0.016,0.266
		v1.229h0.5v-2.104h-0.787l-0.214,0.758l-0.021,0.061c-0.032,0.123-0.094,0.396-0.123,0.596c-0.02,0.08-0.02,0.096-0.021,0.154
		h-0.019c-0.005-0.059-0.005-0.07-0.017-0.123c-0.006-0.061-0.023-0.156-0.052-0.273c-0.042-0.189-0.079-0.334-0.108-0.441
		l-0.027-0.096l-0.188-0.633L79.592,77.671L79.592,77.671z"/>
</g>
</svg>
