<?xml version="1.0" encoding="utf-8"?>
<!-- Generator: Adobe Illustrator 16.0.4, SVG Export Plug-In . SVG Version: 6.00 Build 0)  -->
<!DOCTYPE svg PUBLIC "-//W3C//DTD SVG 1.1//EN" "http://www.w3.org/Graphics/SVG/1.1/DTD/svg11.dtd">
<svg version="1.1" id="Layer_1" xmlns="http://www.w3.org/2000/svg" xmlns:xlink="http://www.w3.org/1999/xlink" x="0px" y="0px"
	 width="32.473px" height="32.477px" viewBox="-0.663 -0.793 32.473 32.477" enable-background="new -0.663 -0.793 32.473 32.477"
	 xml:space="preserve">
<rect x="-0.663" y="-0.793" fill="none" width="32.473" height="32.477"/>
<g>
	<path fill="#FFFFFF" d="M31.809,5.376c-0.906,1.356-2.005,2.506-3.309,3.458v0.857c0,1.783-0.256,3.564-0.766,5.344
		c-0.521,1.779-1.309,3.484-2.37,5.13c-1.067,1.638-2.339,3.082-3.814,4.336c-1.48,1.253-3.254,2.257-5.315,3.012
		c-2.072,0.751-4.294,1.124-6.677,1.124c-4.009,0-7.414-0.896-10.222-2.703c0.528,0.078,1.049,0.118,1.576,0.118
		c2.883,0,5.635-1.06,8.271-3.165c-1.433-0.021-2.714-0.47-3.855-1.328c-1.135-0.869-1.926-1.965-2.349-3.289
		c0.423,0.072,0.841,0.108,1.242,0.108c0.6,0,1.192-0.075,1.77-0.231c-1.53-0.298-2.804-1.055-3.816-2.283
		c-1.018-1.231-1.525-2.65-1.525-4.249v-0.077c0.955,0.525,1.955,0.806,3.013,0.827C1.677,11.038,0.688,9.198,0.688,6.84
		c0-1.104,0.301-2.184,0.905-3.235C3.268,5.634,5.291,7.251,7.66,8.437c2.365,1.192,4.921,1.862,7.648,2.017
		c-0.103-0.431-0.15-0.943-0.15-1.546c0-1.826,0.649-3.394,1.936-4.699c1.291-1.297,2.865-1.955,4.721-1.955
		c1.904,0,3.532,0.702,4.886,2.105c1.479-0.299,2.884-0.841,4.203-1.616c-0.493,1.601-1.474,2.833-2.927,3.683
		C29.258,6.274,30.533,5.928,31.809,5.376z"/>
</g>
</svg>
