<?xml version="1.0" encoding="UTF-8"?>
<svg width="18px" height="14px" viewBox="0 0 18 14" version="1.1" xmlns="http://www.w3.org/2000/svg" xmlns:xlink="http://www.w3.org/1999/xlink">
    <!-- Generator: Sketch 46.1 (44463) - http://www.bohemiancoding.com/sketch -->
    <title>486. Down Copy</title>
    <desc>Created with Sketch.</desc>
    <defs>
        <filter x="-0.7%" y="-9.4%" width="101.4%" height="124.6%" filterUnits="objectBoundingBox" id="filter-1">
            <feOffset dx="0" dy="2" in="SourceAlpha" result="shadowOffsetOuter1"></feOffset>
            <feGaussianBlur stdDeviation="2.5" in="shadowOffsetOuter1" result="shadowBlurOuter1"></feGaussianBlur>
            <feColorMatrix values="0 0 0 0 0   0 0 0 0 0   0 0 0 0 0  0 0 0 0.108044611 0" type="matrix" in="shadowBlurOuter1" result="shadowMatrixOuter1"></feColorMatrix>
            <feMerge>
                <feMergeNode in="shadowMatrixOuter1"></feMergeNode>
                <feMergeNode in="SourceGraphic"></feMergeNode>
            </feMerge>
        </filter>
    </defs>
    <g id="Find-Notables" stroke="none" stroke-width="1" fill="none" fill-rule="evenodd">
        <g id="Search-home" transform="translate(-355.000000, -98.000000)" fill="#00ADC0">
            <g id="Group-5" filter="url(#filter-1)" transform="translate(60.000000, 68.000000)">
                <g id="Group-5-Copy-3" transform="translate(215.000000, 19.000000)">
                    <g id="486.-Down-Copy" transform="translate(85.000000, 14.000000)">
                        <g id="Layer_1">
                            <path d="M7.61674713,0.992652143 L4.38984595,4.21955332 L4.38984595,4.21955332 L4.21979384,4.38984595 C4.12887489,4.48052438 4.01053594,4.52622438 3.89123488,4.5291107 C3.88738646,4.5291107 3.88377857,4.5300728 3.87993015,4.5300728 C3.87079015,4.5300728 3.86189067,4.52814859 3.85275067,4.52766754 C3.73874119,4.52141385 3.6264154,4.47691648 3.5395854,4.38984595 L3.53790171,4.38816227 C3.53790171,4.38816227 3.53790171,4.38816227 3.53766119,4.38816227 L0.142151058,0.992411616 C-0.046662107,0.803598451 -0.047383686,0.498370545 0.140467374,0.310519485 L0.310519485,0.140467374 C0.498370545,-0.047383686 0.803838978,-0.046662107 0.992652143,0.142151058 L3.87968962,3.02918853 L6.76624604,0.142391584 C6.95505921,-0.046662107 7.26052764,-0.047383686 7.4483787,0.140467374 L7.61843081,0.310519485 C7.8065224,0.498370545 7.80556029,0.803838978 7.61674713,0.992652143 L7.61674713,0.992652143 Z" id="Shape"></path>
                        </g>
                    </g>
                </g>
            </g>
        </g>
    </g>
</svg>