<?xml version="1.0" encoding="UTF-8"?>
<svg width="21px" height="21px" viewBox="0 0 21 21" version="1.1" xmlns="http://www.w3.org/2000/svg" xmlns:xlink="http://www.w3.org/1999/xlink">
    <!-- Generator: Sketch 46.1 (44463) - http://www.bohemiancoding.com/sketch -->
    <title>crater icon copy 2</title>
    <desc>Created with Sketch.</desc>
    <defs></defs>
    <g id="Find-Notables" stroke="none" stroke-width="1" fill="none" fill-rule="evenodd">
        <g id="Notable-Specific" transform="translate(-188.000000, -664.000000)" fill="#00BCD4">
            <g id="crater-icon" transform="translate(189.000000, 665.000000)">
                <g id="Page-1" transform="translate(-0.826087, -0.826087)">
                    <path d="M1.23929565,14.0213516 L6.53379322,19.3166391 L14.022077,19.3166391 L19.3173826,14.0213335 L19.3173826,6.53387583 L14.0220951,1.23937826 L6.53377517,1.23937826 L1.23929565,6.53385778 L1.23929565,14.0213516 Z M0.413208696,14.1924217 L0.413208696,6.36276957 C0.413208696,6.25322362 0.456725651,6.1481644 0.53418633,6.07070372 L6.07062111,0.534268938 C6.14808179,0.45680826 6.25314102,0.413291304 6.36268696,0.413291304 L14.1931652,0.413291304 C14.3027005,0.413291304 14.4077504,0.456799801 14.4852093,0.534247151 L20.0224701,6.07068193 C20.0999441,6.14814438 20.1434696,6.25321295 20.1434696,6.36276957 L20.1434696,14.1924217 C20.1434696,14.3019677 20.0999526,14.4070269 20.0224919,14.4844876 L14.4852311,20.0217485 C14.4077704,20.0992091 14.3027112,20.1427261 14.1931652,20.1427261 L6.36268696,20.1427261 C6.25313034,20.1427261 6.14806177,20.0992007 6.07059933,20.0217267 L0.534164542,14.4844658 C0.456717193,14.4070069 0.413208696,14.301957 0.413208696,14.1924217 Z" id="Stroke-1" fill-rule="nonzero"></path>
                    <path d="M4.72976087,12.6300175 L7.90656525,15.6500522 L12.651768,15.6500522 L15.8819348,12.6271371 L15.8819348,7.90734293 L12.6311365,4.49787826 L7.92726426,4.49787826 L4.72976087,7.90452934 L4.72976087,12.6300175 Z M3.49063043,12.8958783 L3.49063043,7.65931304 C3.49063043,7.50178045 3.55063855,7.35016352 3.65844917,7.23530105 L7.20731873,3.45430105 C7.32443271,3.32952668 7.48793858,3.25874783 7.65906522,3.25874783 L12.8964565,3.25874783 C13.0658952,3.25874783 13.227941,3.32814166 13.3448648,3.45077234 L16.9499083,7.23177234 C17.0597745,7.34700097 17.1210652,7.50010177 17.1210652,7.65931304 L17.1210652,12.8958783 C17.1210652,13.0673222 17.0500245,13.2311021 16.924846,13.3482489 L13.3198025,16.7219881 C13.2050115,16.8294139 13.0536738,16.8891826 12.8964565,16.8891826 L7.65906522,16.8891826 C7.50016977,16.8891826 7.34734782,16.8281343 7.2321862,16.7186557 L3.68331663,13.3449165 C3.56028365,13.227955 3.49063043,13.0656343 3.49063043,12.8958783 Z" id="Stroke-3" fill-rule="nonzero"></path>
                    <path d="M9.29803294,12.6434261 L11.2579844,12.6434261 L12.6435087,11.2579018 L12.6435087,9.29795033 L11.2579844,7.91242609 L9.29803294,7.91242609 L7.9125087,9.29795033 L7.9125087,11.2579018 L9.29803294,12.6434261 Z M6.26033478,11.6000783 L6.26033478,8.95577391 C6.26033478,8.73668203 6.34736869,8.52656358 6.50229005,8.37164222 L8.37172483,6.50220744 C8.52664619,6.34728609 8.73676464,6.26025217 8.95585652,6.26025217 L11.6001609,6.26025217 C11.8192528,6.26025217 12.0293712,6.34728609 12.1842926,6.50220744 L14.0537273,8.37164222 C14.2086487,8.52656358 14.2956826,8.73668203 14.2956826,8.95577391 L14.2956826,11.6000783 C14.2956826,11.8191701 14.2086487,12.0292886 14.0537273,12.1842099 L12.1842926,14.0536447 C12.0293712,14.2085661 11.8192528,14.2956 11.6001609,14.2956 L8.95585652,14.2956 C8.73676464,14.2956 8.52664619,14.2085661 8.37172483,14.0536447 L6.50229005,12.1842099 C6.34736869,12.0292886 6.26033478,11.8191701 6.26033478,11.6000783 Z" id="Stroke-4" fill-rule="nonzero"></path>
                </g>
            </g>
        </g>
    </g>
</svg>