<?xml version="1.0" encoding="UTF-8"?>
<svg width="17px" height="15px" viewBox="0 0 17 15" version="1.1" xmlns="http://www.w3.org/2000/svg" xmlns:xlink="http://www.w3.org/1999/xlink">
    <!-- Generator: Sketch 46.1 (44463) - http://www.bohemiancoding.com/sketch -->
    <title>Shape</title>
    <desc>Created with Sketch.</desc>
    <defs></defs>
    <g id="Find-Notables" stroke="none" stroke-width="1" fill="none" fill-rule="evenodd">
        <g id="Search-home" transform="translate(-897.000000, -660.000000)" stroke="#FFFFFF">
            <path d="M905.308863,674 C905.141121,674 904.889508,674 904.637896,673.832258 C901.786283,672.070968 900.024992,670.309677 898.766928,668.129032 C897.928218,666.703226 897.760476,665.109677 898.347573,663.683871 C898.93467,662.341935 900.024992,661.503226 901.53467,661.083871 C901.870154,661 902.121767,661 902.373379,661 C903.463702,661 904.470154,661.503226 905.308863,662.509677 C906.147573,661.503226 907.154025,661 908.244347,661 C908.49596,661 908.831444,661 909.083057,661.083871 C910.592734,661.419355 911.766928,662.341935 912.270154,663.683871 C912.85725,665.025806 912.689508,666.619355 911.850799,668.129032 C910.592734,670.309677 908.747573,672.070968 905.979831,673.832258 C905.728218,673.916129 905.476605,674 905.308863,674 L905.308863,674 L905.308863,674 Z" id="Shape"></path>
        </g>
    </g>
</svg>