<?xml version="1.0" encoding="UTF-8"?>
<svg width="34px" height="32px" viewBox="0 0 34 32" version="1.1" xmlns="http://www.w3.org/2000/svg" xmlns:xlink="http://www.w3.org/1999/xlink">
    <!-- Generator: Sketch 46.1 (44463) - http://www.bohemiancoding.com/sketch -->
    <title>pink logo</title>
    <desc>Created with Sketch.</desc>
    <defs>
        <polygon id="path-1" points="33.8264684 0.0305219704 0.0050113217 0.0305219704 0.0050113217 31.387274 33.8264684 31.387274 33.8264684 0.0305219704"></polygon>
    </defs>
    <g id="Find-Notables" stroke="none" stroke-width="1" fill="none" fill-rule="evenodd">
        <g id="Search-home" transform="translate(-14.000000, -15.000000)">
            <g id="pink-logo" transform="translate(14.000000, 15.000000)">
                <g id="Icon">
                    <g id="Group-3" transform="translate(0.056241, 0.031192)">
                        <mask id="mask-2" fill="white">
                            <use xlink:href="#path-1"></use>
                        </mask>
                        <g id="Clip-2"></g>
                        <path d="M5.58079513,25.5643143 L15.0737898,30.4848893 L27.6841957,26.1061748 L30.4813425,21.3312705 L31.8725981,19.0164388 L32.9694171,10.6203935 L30.6526667,5.63880008 C29.7052182,5.23745373 24.4901622,3.02832998 23.3063896,2.52213512 C22.2904976,2.08727162 16.0677283,1.20723166 13.6028987,0.884521688 L9.34863545,2.72667565 L5.60274873,3.79492729 L0.856036149,14.5479156 L1.39540596,19.7512378 L5.58079513,25.5643143 Z M15.0083595,31.387274 L5.02076311,26.2105936 L0.589579716,20.0563298 L0.0050113217,14.4142767 L0.0497794462,14.3137253 L4.99837905,3.103099 L9.09380151,1.93515534 L13.4823691,0.0302641462 L13.5964417,0.0453038916 C14.4844863,0.160895078 22.308577,1.19090279 23.6344022,1.75811605 C24.9296646,2.31243809 31.0637586,4.91001699 31.1253148,4.93622912 L31.2729635,4.99896634 L33.8264684,10.4889031 L32.6758415,19.2953187 L31.1976325,21.7545319 L28.2476714,26.7902684 L15.0083595,31.387274 Z" id="Fill-1" fill="#E0E0E0" mask="url(#mask-2)"></path>
                    </g>
                    <path d="M7.18394738,23.8108896 L15.3102229,28.0228778 L26.1832811,24.2474719 L28.5663228,20.1802951 L29.7104928,18.2762633 L30.6596631,11.0146445 L28.9963551,7.43776329 C27.2232791,6.68706514 23.5277565,5.12078308 22.4899109,4.67732544 C21.6948462,4.4053209 17.5710132,3.75474448 13.9904241,3.27476175 L10.1885773,4.92139902 L7.32815239,5.73741264 L3.26243186,14.9481825 L3.67567609,18.9384418 L7.18394738,23.8108896 Z M15.2602892,28.7121278 L6.75649788,24.3041933 L3.06054484,19.1717727 L2.61243313,14.8459122 L6.86669634,5.20887302 L9.99400811,4.31680126 L13.899166,2.6220368 L13.9869804,2.63363888 C17.6743242,3.12651283 21.8545479,3.78181602 22.7098773,4.08175152 L22.7301091,4.08948625 C23.7752726,4.53638154 27.6279141,6.16883848 29.3570829,6.90148894 L29.4698641,6.94918642 L31.3139665,10.914093 L30.3239022,18.4898277 L29.113441,20.5038644 L26.6141743,24.7699957 L15.2602892,28.7121278 Z" id="Fill-4" fill="#E0E0E0"></path>
                    <path d="M8.45695483,22.3423229 L15.4588617,25.9716284 L24.9027836,22.6925341 L26.9444684,19.2076103 L27.8854599,17.6421876 L28.7123788,11.313033 L27.5867188,8.89249342 C25.735729,8.10870782 22.8451717,6.88318342 21.8331539,6.45132787 C21.1775591,6.26440532 18.1169691,5.74360042 14.260023,5.21720933 L10.8352614,6.70141735 L8.70188812,7.30988249 L5.19619961,15.2517275 L5.50613278,18.2442071 L8.45695483,22.3423229 Z M15.4252856,26.4309852 L8.17155803,22.6714785 L5.09633225,18.3997611 L4.76272363,15.1838338 L8.39410727,6.95795244 L10.7052617,6.29835218 L14.1997582,4.78191613 L14.2583011,4.79008056 C18.23879,5.3319411 21.3019628,5.85532425 21.9640145,6.0486924 L21.98769,6.05685684 C23.0022906,6.49043121 25.9733444,7.74990247 27.8273474,8.53497718 L27.9026784,8.5667755 L29.148868,11.2459987 L28.2943995,17.7839909 L27.3090703,19.4233232 L25.1894718,23.0410265 L15.4252856,26.4309852 Z" id="Fill-6" fill="#E0E0E0"></path>
                    <path d="M9.36217491,21.2977911 L15.564282,24.5124293 L23.991451,21.5865542 L25.7907852,18.5158679 L26.5871413,17.1910812 L27.3275372,11.5253942 L26.584128,9.92731384 C24.8002904,9.17145921 22.3828117,8.14660798 21.391456,7.72377628 C20.7728811,7.56865205 18.2314291,7.12132705 14.4502444,6.59966273 L11.3134625,7.96054485 L9.67856502,8.42849578 L6.571485,15.4675264 L6.80780904,17.7505597 L9.36217491,21.2977911 Z M15.5393152,24.857484 L9.14823493,21.5444429 L6.50002818,17.86744 L6.24648563,15.4168209 L9.447837,8.16422597 L11.2062773,7.66232818 L14.4054763,6.2726557 L14.449814,6.2786716 C18.2916939,6.80850034 20.8749008,7.26441948 21.4818532,7.41911401 L21.5050982,7.42684873 C22.4994671,7.85096956 24.9694623,8.89859525 26.7644919,9.65917667 L26.8208825,9.68281055 L27.6546888,11.4751185 L26.8940612,17.2976485 L26.064129,18.6778675 L24.2066823,21.8478161 L15.5393152,24.857484 Z" id="Fill-8" fill="#E0E0E0"></path>
                    <path d="M10.2136732,20.3154809 L15.6637619,23.1403748 L23.1348732,20.5462336 L24.7056317,17.8657212 L25.3659615,16.7669604 L26.025,11.7256377 L25.6410272,10.9006002 C23.9742755,10.1941619 21.9386172,9.33088051 20.9842813,8.92437768 C20.3979911,8.79159821 18.135479,8.38982215 14.6284991,7.89995616 L11.7383723,9.15427093 L10.5972155,9.48041855 L7.86506856,15.6707778 L8.03251857,17.2860464 L10.2136732,20.3154809 Z M15.6469739,23.370268 L10.0711901,20.4800587 L7.82718784,17.3638234 L7.64854581,15.6368309 L10.4435403,9.30423868 L11.6669154,8.95531658 L14.5987971,7.6820947 L14.6284991,7.68639177 C17.7756121,8.12555234 20.2860708,8.54881375 21.0492812,8.7237045 C22.0290144,9.13923118 24.0879177,10.0123958 25.7615568,10.7218421 L25.799007,10.7377413 L26.2432446,11.6921205 L26.23894,11.7222 L25.5704313,16.837862 L24.8881479,17.9735777 L23.2782173,20.7206946 L15.6469739,23.370268 Z" id="Fill-10" fill="#E0E0E0"></path>
                    <path d="M11.3738564,19.2455104 L9.6309128,16.8245411 L9.52286665,15.7846501 L11.7655775,10.7042241 L12.482298,10.5001133 L14.9531541,9.42756459 C17.853612,9.83578625 19.7571182,10.1692389 20.3739713,10.3024481 C21.2125127,10.6591049 22.8319135,11.3462064 24.2425399,11.9439289 L24.3604867,12.1978857 L23.8142295,16.3785052 L23.3015483,17.2314737 L22.0200608,19.4182526 L15.8437815,21.5624906 L11.3738564,19.2455104 Z" id="eye" fill="#FA0058"></path>
                </g>
            </g>
        </g>
    </g>
</svg>