<?xml version="1.0" encoding="UTF-8"?>
<svg width="5px" height="8px" viewBox="0 0 5 8" version="1.1" xmlns="http://www.w3.org/2000/svg" xmlns:xlink="http://www.w3.org/1999/xlink">
    <!-- Generator: Sketch 46.1 (44463) - http://www.bohemiancoding.com/sketch -->
    <title>Shape</title>
    <desc>Created with Sketch.</desc>
    <defs></defs>
    <g id="Find-Notables" stroke="none" stroke-width="1" fill="none" fill-rule="evenodd">
        <g id="Notable-Specific" transform="translate(-135.000000, -86.000000)" fill="#4A4A4A">
            <path d="M141.00226,88.607022 L137.775359,91.8339232 L137.775359,91.8339232 L137.605307,92.0042159 C137.514388,92.0948943 137.396049,92.1405943 137.276748,92.1434806 C137.272899,92.1434806 137.269291,92.1444427 137.265443,92.1444427 C137.256303,92.1444427 137.247403,92.1425185 137.238263,92.1420374 C137.124254,92.1357838 137.011928,92.0912864 136.925098,92.0042159 L136.923414,92.0025322 C136.923414,92.0025322 136.923414,92.0025322 136.923174,92.0025322 L133.527664,88.6067815 C133.338851,88.4179684 133.338129,88.1127404 133.52598,87.9248894 L133.696032,87.7548373 C133.883883,87.5669862 134.189352,87.5677078 134.378165,87.756521 L137.265202,90.6435584 L140.151759,87.7567615 C140.340572,87.5677078 140.64604,87.5669862 140.833891,87.7548373 L141.003944,87.9248894 C141.192035,88.1127404 141.191073,88.4182089 141.00226,88.607022 L141.00226,88.607022 Z" id="Shape" transform="translate(137.265007, 89.879436) scale(-1, 1) rotate(-270.000000) translate(-137.265007, -89.879436) "></path>
        </g>
    </g>
</svg>