<?xml version="1.0" encoding="UTF-8"?>
<svg width="145px" height="145px" viewBox="0 0 145 145" version="1.1" xmlns="http://www.w3.org/2000/svg" xmlns:xlink="http://www.w3.org/1999/xlink">
    <title>Combined Shape</title>
    <g id="Page-1" stroke="none" stroke-width="1" fill="none" fill-rule="evenodd" opacity="0.797283794">
        <g id="Custom-Preset" transform="translate(-3.000000, -3.000000)" fill="#FFFFFF">
            <path d="M75.5,3 C115.540644,3 148,35.4593556 148,75.5 C148,115.540644 115.540644,148 75.5,148 C35.4593556,148 3,115.540644 3,75.5 C3,35.4593556 35.4593556,3 75.5,3 Z M79.03177,31 C71.9193142,31 65.5925366,32.2773148 60.0514372,34.8319444 C54.5103379,37.3865741 49.7962683,40.7240741 45.9092284,44.8444444 C42.0221886,48.9648148 39.0655572,53.6208333 37.0393343,58.8125 C35.0131114,64.0041667 34,69.2782407 34,74.6347222 C34,80.2384259 35.0751387,85.7597222 37.225416,91.1986111 C39.3756934,96.6375 42.4150277,101.499537 46.3434191,105.784722 C50.2718104,110.069907 54.9445285,113.510417 60.3615734,116.10625 C65.7786183,118.702083 71.7539082,120 78.2874433,120 C82.0090772,120 85.8340898,119.546759 89.7624811,118.640278 C93.6908724,117.733796 97.3711548,116.415278 100.803328,114.684722 C104.235502,112.954167 107.295512,110.811574 109.983359,108.256944 C112.52188,105.844239 114.451808,103.137511 115.773141,100.136763 L116,99.6041667 L96.2753404,87.8611111 C95.5310136,89.8388889 94.5179022,91.5076389 93.2360061,92.8673611 C91.9541099,94.2270833 90.5068079,95.3395833 88.8940998,96.2048611 C87.2813918,97.0701389 85.6066566,97.6881944 83.8698941,98.0590278 C82.1331316,98.4298611 80.4377206,98.6152778 78.7836611,98.6152778 C75.6409481,98.6152778 72.8083712,97.9766204 70.2859304,96.6993056 C67.7634897,95.4219907 65.633888,93.712037 63.8971256,91.5694444 C62.1603631,89.4268519 60.8371155,86.9546296 59.9273828,84.1527778 C59.01765,81.3509259 58.5627837,78.425463 58.5627837,75.3763889 C58.5627837,72.6569444 58.9556228,69.9168981 59.7413011,67.15625 C60.5269793,64.3956019 61.7261725,61.9233796 63.3388805,59.7395833 C64.9515885,57.555787 67.0191629,55.7840278 69.5416036,54.4243056 C72.0640444,53.0645833 75.0620272,52.3847222 78.5355522,52.3847222 C80.1896117,52.3847222 81.9056984,52.549537 83.6838124,52.8791667 C85.4619264,53.2087963 87.1780131,53.7856481 88.8320726,54.6097222 C90.4861321,55.4337963 91.9954614,56.5462963 93.3600605,57.9472222 C94.6271882,59.248082 95.6625578,60.8686909 96.4661691,62.809049 L96.6475038,63.2625 L115.131619,50.1597222 C112.071609,44.3912037 107.419566,39.755787 101.175492,36.2534722 C94.931417,32.7511574 87.5501765,31 79.03177,31 Z" id="Combined-Shape"></path>
        </g>
    </g>
</svg>