<?xml version="1.0" encoding="UTF-8"?>
<svg width="890px" height="1227px" viewBox="0 0 890 1227" version="1.1" xmlns="http://www.w3.org/2000/svg" xmlns:xlink="http://www.w3.org/1999/xlink">
    <!-- Generator: Sketch 53.2 (72643) - https://sketchapp.com -->
    <title>Group 6</title>
    <desc>Created with Sketch.</desc>
    <g id="Design" stroke="none" stroke-width="1" fill="none" fill-rule="evenodd">
        <g id="Factly" transform="translate(-306.000000, -5611.000000)">
            <g id="Group-6" transform="translate(306.000000, 5611.000000)">
                <g id="Group-10">
                    <rect id="Rectangle-4-Copy-3" stroke="#CACACA" fill="#EAEAE8" x="0.5" y="15.5" width="409" height="1211"></rect>
                    <polygon id="Fill-1" fill="#CACACA" points="35 61 70 61 70 48 35 48"></polygon>
                    <polygon id="Fill-1-Copy-2" fill="#CACACA" points="252 61 287 61 287 48 252 48"></polygon>
                    <polygon id="Fill-1-Copy" fill="#DCDCDC" points="35 153 70 153 70 140 35 140"></polygon>
                    <polygon id="Fill-1-Copy-3" fill="#DCDCDC" points="252 153 287 153 287 140 252 140"></polygon>
                    <polygon id="Fill-2" fill="#DCDCDC" points="35 85 96 85 96 72 35 72"></polygon>
                    <polygon id="Fill-2-Copy" fill="#DCDCDC" points="252 85 313 85 313 72 252 72"></polygon>
                    <polygon id="Fill-3" fill="#CACACA" points="35 129 106 129 106 116 35 116"></polygon>
                    <polygon id="Fill-3-Copy" fill="#CACACA" points="252 129 323 129 323 116 252 116"></polygon>
                    <g id="Group-8" transform="translate(35.000000, 225.000000)">
                        <polygon id="Fill-4" fill="#CACACA" points="19.4068966 166.708861 48.5172414 166.708861 48.5172414 158.392405 19.4068966 158.392405"></polygon>
                        <polygon id="Fill-5" fill="#CACACA" points="-4.61852778e-14 148.689873 10.6275862 148.689873 10.6275862 140.373418 -4.61852778e-14 140.373418"></polygon>
                        <polygon id="Fill-6" fill="#CACACA" points="-4.61852778e-14 113.806962 10.6275862 113.806962 10.6275862 105.490506 -4.61852778e-14 105.490506"></polygon>
                        <polygon id="Fill-7" fill="#CACACA" points="-4.61852778e-14 78.9240506 10.6275862 78.9240506 10.6275862 70.6075949 -4.61852778e-14 70.6075949"></polygon>
                        <polygon id="Fill-8" fill="#CACACA" points="-4.61852778e-14 44.0411392 10.6275862 44.0411392 10.6275862 35.7246835 -4.61852778e-14 35.7246835"></polygon>
                        <polygon id="Fill-9" fill="#CACACA" points="-4.61852778e-14 9.15822785 10.6275862 9.15822785 10.6275862 0.841772152 -4.61852778e-14 0.841772152"></polygon>
                        <polygon id="Fill-10" fill="#CACACA" points="67.153869 166.708861 96.2642138 166.708861 96.2642138 158.392405 67.153869 158.392405"></polygon>
                        <polygon id="Fill-12" fill="#CACACA" points="114.901303 166.708861 144.011648 166.708861 144.011648 158.392405 114.901303 158.392405"></polygon>
                        <polygon id="Fill-13" fill="#CACACA" points="162.648276 166.708861 191.758621 166.708861 191.758621 158.392405 162.648276 158.392405"></polygon>
                        <polygon id="Fill-14" fill="#CACACA" points="210.395248 166.708861 239.505593 166.708861 239.505593 158.392405 210.395248 158.392405"></polygon>
                        <polygon id="Fill-15" fill="#CACACA" points="258.142683 166.708861 287.253028 166.708861 287.253028 158.392405 258.142683 158.392405"></polygon>
                        <polygon id="Fill-16" fill="#CACACA" points="305.889655 166.708861 335 166.708861 335 158.392405 305.889655 158.392405"></polygon>
                        <polygon id="Stroke-21" stroke="#CACACA" points="20.3310345 148.689873 334.075862 148.689873 334.075862 0.841772152 20.3310345 0.841772152"></polygon>
                        <path d="M289.690148,0.841772152 L289.690148,148.689873" id="Line-7" stroke="#DCDCDC" stroke-linecap="square"></path>
                        <path d="M244.880296,0.841772152 L244.880296,148.689873" id="Line-7-Copy" stroke="#DCDCDC" stroke-linecap="square"></path>
                        <path d="M200.070443,0.841772152 L200.070443,148.689873" id="Line-7-Copy-2" stroke="#DCDCDC" stroke-linecap="square"></path>
                        <path d="M155.260591,0.841772152 L155.260591,148.689873" id="Line-7-Copy-3" stroke="#DCDCDC" stroke-linecap="square"></path>
                        <path d="M110.450739,0.841772152 L110.450739,148.689873" id="Line-7-Copy-4" stroke="#DCDCDC" stroke-linecap="square"></path>
                        <path d="M65.6408867,0.841772152 L65.6408867,148.689873" id="Line-7-Copy-5" stroke="#DCDCDC" stroke-linecap="square"></path>
                        <polyline id="Stroke-20" stroke="#CACACA" points="20.4137931 89.5506329 110.02637 63.6772152 154.571156 82.1582278 200.138811 73.6772152 244.979268 49.3544304 289.342459 63.6772152 334.455172 41.9620253"></polyline>
                    </g>
                    <polygon id="Fill-17" fill="#CACACA" points="155 61 199 61 199 48 155 48"></polygon>
                    <polygon id="Fill-17-Copy" fill="#DCDCDC" points="155 153 199 153 199 140 155 140"></polygon>
                    <polygon id="Fill-18" fill="#DCDCDC" points="155 85 190 85 190 72 155 72"></polygon>
                    <polygon id="Fill-19" fill="#CACACA" points="155 129 180 129 180 116 155 116"></polygon>
                    <polygon id="Stroke-38" stroke="#CACACA" points="55 1088.8481 368.744828 1088.8481 368.744828 941 55 941"></polygon>
                    <path d="M212.231034,940 L212.231034,1088.77215" id="Stroke-45" stroke="#CACACA"></path>
                    <path d="M368.744366,1014.23101 L55,1014.23101" id="Stroke-46" stroke="#CACACA"></path>
                    <path d="M257.103448,1015.04747 C257.103448,1039.92661 236.933214,1060.09494 212.051724,1060.09494 C187.170234,1060.09494 167,1039.92661 167,1015.04747 C167,990.168329 187.170234,970 212.051724,970 C236.933214,970 257.103448,990.168329 257.103448,1015.04747 Z" id="Stroke-47" stroke="#CACACA"></path>
                    <rect id="Rectangle" stroke="#CACACA" x="56" y="451" width="314" height="63"></rect>
                    <rect id="Rectangle-Copy-4" stroke="#CACACA" x="56" y="528" width="314" height="63"></rect>
                    <rect id="Rectangle-Copy-5" stroke="#CACACA" x="56" y="606" width="314" height="63"></rect>
                    <path d="M82.1333333,440 L64.8666667,440 C59.99,440 56,435.95 56,431 C56,426.05 59.99,422 64.8666667,422 L82.1333333,422 C87.01,422 91,426.05 91,431 C91,435.95 87.01,440 82.1333333,440 Z" id="Stroke-42" stroke="#CACACA"></path>
                    <path d="M87,431.5 C87,434.537913 84.5374348,437 81.5,437 C78.4625652,437 76,434.537913 76,431.5 C76,428.462087 78.4625652,426 81.5,426 C84.5374348,426 87,428.462087 87,431.5" id="Fill-43" fill="#CACACA"></path>
                    <path d="M232.184,699 L191.816,699 C186.9672,699 183,694.95 183,690 C183,685.05 186.9672,681 191.816,681 L232.184,681 C237.0328,681 241,685.05 241,690 C241,694.95 237.0328,699 232.184,699 Z" id="Stroke-44" fill="#CACACA"></path>
                    <rect id="Rectangle" fill="#CACACA" x="0" y="0" width="410" height="16"></rect>
                    <path d="M0.5,186.5 L410,186.5" id="Line-6" stroke="#DCDCDC" stroke-linecap="square"></path>
                    <path d="M0.5,1126.5 L410,1126.5" id="Line-6-Copy" stroke="#DCDCDC" stroke-linecap="square"></path>
                    <g id="Group-8-Copy-3" transform="translate(35.000000, 732.500000)">
                        <polygon id="Fill-4" fill="#CACACA" points="19.4068966 166.708861 48.5172414 166.708861 48.5172414 158.392405 19.4068966 158.392405"></polygon>
                        <polygon id="Fill-5" fill="#CACACA" points="-4.61852778e-14 148.689873 10.6275862 148.689873 10.6275862 140.373418 -4.61852778e-14 140.373418"></polygon>
                        <polygon id="Fill-6" fill="#CACACA" points="-4.61852778e-14 113.806962 10.6275862 113.806962 10.6275862 105.490506 -4.61852778e-14 105.490506"></polygon>
                        <polygon id="Fill-7" fill="#CACACA" points="-4.61852778e-14 78.9240506 10.6275862 78.9240506 10.6275862 70.6075949 -4.61852778e-14 70.6075949"></polygon>
                        <polygon id="Fill-8" fill="#CACACA" points="-4.61852778e-14 44.0411392 10.6275862 44.0411392 10.6275862 35.7246835 -4.61852778e-14 35.7246835"></polygon>
                        <polygon id="Fill-9" fill="#CACACA" points="-4.61852778e-14 9.15822785 10.6275862 9.15822785 10.6275862 0.841772152 -4.61852778e-14 0.841772152"></polygon>
                        <polygon id="Fill-10" fill="#CACACA" points="67.153869 166.708861 96.2642138 166.708861 96.2642138 158.392405 67.153869 158.392405"></polygon>
                        <polygon id="Fill-12" fill="#CACACA" points="114.901303 166.708861 144.011648 166.708861 144.011648 158.392405 114.901303 158.392405"></polygon>
                        <polygon id="Fill-13" fill="#CACACA" points="162.648276 166.708861 191.758621 166.708861 191.758621 158.392405 162.648276 158.392405"></polygon>
                        <polygon id="Fill-14" fill="#CACACA" points="210.395248 166.708861 239.505593 166.708861 239.505593 158.392405 210.395248 158.392405"></polygon>
                        <polygon id="Fill-15" fill="#CACACA" points="258.142683 166.708861 287.253028 166.708861 287.253028 158.392405 258.142683 158.392405"></polygon>
                        <polygon id="Fill-16" fill="#CACACA" points="305.889655 166.708861 335 166.708861 335 158.392405 305.889655 158.392405"></polygon>
                        <polygon id="Stroke-21" stroke="#CACACA" points="20.3310345 148.689873 334.075862 148.689873 334.075862 0.841772152 20.3310345 0.841772152"></polygon>
                        <path d="M289.690148,0.841772152 L289.690148,148.689873" id="Line-7" stroke="#DCDCDC" stroke-linecap="square"></path>
                        <path d="M244.880296,0.841772152 L244.880296,148.689873" id="Line-7-Copy" stroke="#DCDCDC" stroke-linecap="square"></path>
                        <path d="M200.070443,0.841772152 L200.070443,148.689873" id="Line-7-Copy-2" stroke="#DCDCDC" stroke-linecap="square"></path>
                        <path d="M155.260591,0.841772152 L155.260591,148.689873" id="Line-7-Copy-3" stroke="#DCDCDC" stroke-linecap="square"></path>
                        <path d="M110.450739,0.841772152 L110.450739,148.689873" id="Line-7-Copy-4" stroke="#DCDCDC" stroke-linecap="square"></path>
                        <path d="M65.6408867,0.841772152 L65.6408867,148.689873" id="Line-7-Copy-5" stroke="#DCDCDC" stroke-linecap="square"></path>
                        <polyline id="Stroke-20" stroke="#CACACA" points="20.4137931 89.5506329 110.02637 63.6772152 154.571156 82.1582278 200.138811 73.6772152 244.979268 49.3544304 289.342459 63.6772152 334.455172 41.9620253"></polyline>
                    </g>
                    <polygon id="Fill-1-Copy-10" fill="#DCDCDC" points="35 1191 70 1191 70 1178 35 1178"></polygon>
                    <polygon id="Fill-1-Copy-11" fill="#DCDCDC" points="252 1191 287 1191 287 1178 252 1178"></polygon>
                    <polygon id="Fill-3-Copy-4" fill="#CACACA" points="35 1167 106 1167 106 1154 35 1154"></polygon>
                    <polygon id="Fill-3-Copy-5" fill="#CACACA" points="252 1167 323 1167 323 1154 252 1154"></polygon>
                    <polygon id="Fill-17-Copy-5" fill="#DCDCDC" points="155 1191 199 1191 199 1178 155 1178"></polygon>
                    <polygon id="Fill-19-Copy-2" fill="#CACACA" points="155 1167 180 1167 180 1154 155 1154"></polygon>
                </g>
                <g id="Group-7" transform="translate(430.000000, 0.000000)">
                    <rect id="Rectangle-4-Copy-5" stroke="#CACACA" fill="#EAEAE8" x="50.5" y="66.5" width="409" height="616"></rect>
                    <rect id="Rectangle-Copy-3" fill="#CACACA" x="50" y="51" width="410" height="16"></rect>
                    <rect id="Rectangle-4-Copy-5" stroke="#CACACA" fill="#EAEAE8" x="25.5" y="41.5" width="409" height="616"></rect>
                    <rect id="Rectangle-Copy-3" fill="#CACACA" x="25" y="26" width="410" height="16"></rect>
                    <rect id="Rectangle-4-Copy-4" stroke="#CACACA" fill="#EAEAE8" x="0.5" y="15.5" width="409" height="616"></rect>
                    <rect id="Rectangle-Copy-2" fill="#CACACA" x="0" y="0" width="410" height="16"></rect>
                    <polygon id="Fill-1-Copy-4" fill="#CACACA" points="35 61 70 61 70 48 35 48"></polygon>
                    <polygon id="Fill-1-Copy-5" fill="#CACACA" points="252 61 287 61 287 48 252 48"></polygon>
                    <polygon id="Fill-1-Copy-12" fill="#DCDCDC" points="35 153 70 153 70 140 35 140"></polygon>
                    <polygon id="Fill-1-Copy-13" fill="#DCDCDC" points="252 153 287 153 287 140 252 140"></polygon>
                    <polygon id="Fill-2-Copy-2" fill="#DCDCDC" points="35 85 96 85 96 72 35 72"></polygon>
                    <polygon id="Fill-2-Copy-3" fill="#DCDCDC" points="252 85 313 85 313 72 252 72"></polygon>
                    <polygon id="Fill-3-Copy-6" fill="#CACACA" points="35 129 106 129 106 116 35 116"></polygon>
                    <polygon id="Fill-3-Copy-7" fill="#CACACA" points="252 129 323 129 323 116 252 116"></polygon>
                    <g id="Group-8-Copy" transform="translate(35.000000, 225.000000)">
                        <polygon id="Fill-4" fill="#CACACA" points="19.4068966 166.708861 48.5172414 166.708861 48.5172414 158.392405 19.4068966 158.392405"></polygon>
                        <polygon id="Fill-5" fill="#CACACA" points="-4.61852778e-14 148.689873 10.6275862 148.689873 10.6275862 140.373418 -4.61852778e-14 140.373418"></polygon>
                        <polygon id="Fill-6" fill="#CACACA" points="-4.61852778e-14 113.806962 10.6275862 113.806962 10.6275862 105.490506 -4.61852778e-14 105.490506"></polygon>
                        <polygon id="Fill-7" fill="#CACACA" points="-4.61852778e-14 78.9240506 10.6275862 78.9240506 10.6275862 70.6075949 -4.61852778e-14 70.6075949"></polygon>
                        <polygon id="Fill-8" fill="#CACACA" points="-4.61852778e-14 44.0411392 10.6275862 44.0411392 10.6275862 35.7246835 -4.61852778e-14 35.7246835"></polygon>
                        <polygon id="Fill-9" fill="#CACACA" points="-4.61852778e-14 9.15822785 10.6275862 9.15822785 10.6275862 0.841772152 -4.61852778e-14 0.841772152"></polygon>
                        <polygon id="Fill-10" fill="#CACACA" points="67.153869 166.708861 96.2642138 166.708861 96.2642138 158.392405 67.153869 158.392405"></polygon>
                        <polygon id="Fill-12" fill="#CACACA" points="114.901303 166.708861 144.011648 166.708861 144.011648 158.392405 114.901303 158.392405"></polygon>
                        <polygon id="Fill-13" fill="#CACACA" points="162.648276 166.708861 191.758621 166.708861 191.758621 158.392405 162.648276 158.392405"></polygon>
                        <polygon id="Fill-14" fill="#CACACA" points="210.395248 166.708861 239.505593 166.708861 239.505593 158.392405 210.395248 158.392405"></polygon>
                        <polygon id="Fill-15" fill="#CACACA" points="258.142683 166.708861 287.253028 166.708861 287.253028 158.392405 258.142683 158.392405"></polygon>
                        <polygon id="Fill-16" fill="#CACACA" points="305.889655 166.708861 335 166.708861 335 158.392405 305.889655 158.392405"></polygon>
                        <polygon id="Stroke-21" stroke="#CACACA" points="20.3310345 148.689873 334.075862 148.689873 334.075862 0.841772152 20.3310345 0.841772152"></polygon>
                        <path d="M289.690148,0.841772152 L289.690148,148.689873" id="Line-7" stroke="#DCDCDC" stroke-linecap="square"></path>
                        <path d="M244.880296,0.841772152 L244.880296,148.689873" id="Line-7-Copy" stroke="#DCDCDC" stroke-linecap="square"></path>
                        <path d="M200.070443,0.841772152 L200.070443,148.689873" id="Line-7-Copy-2" stroke="#DCDCDC" stroke-linecap="square"></path>
                        <path d="M155.260591,0.841772152 L155.260591,148.689873" id="Line-7-Copy-3" stroke="#DCDCDC" stroke-linecap="square"></path>
                        <path d="M110.450739,0.841772152 L110.450739,148.689873" id="Line-7-Copy-4" stroke="#DCDCDC" stroke-linecap="square"></path>
                        <path d="M65.6408867,0.841772152 L65.6408867,148.689873" id="Line-7-Copy-5" stroke="#DCDCDC" stroke-linecap="square"></path>
                        <polyline id="Stroke-20" stroke="#CACACA" points="20.4137931 89.5506329 110.02637 63.6772152 154.571156 82.1582278 200.138811 73.6772152 244.979268 49.3544304 289.342459 63.6772152 334.455172 41.9620253"></polyline>
                    </g>
                    <polygon id="Fill-17-Copy-2" fill="#CACACA" points="155 61 199 61 199 48 155 48"></polygon>
                    <polygon id="Fill-17-Copy-6" fill="#DCDCDC" points="155 153 199 153 199 140 155 140"></polygon>
                    <polygon id="Fill-18-Copy" fill="#DCDCDC" points="155 85 190 85 190 72 155 72"></polygon>
                    <polygon id="Fill-19-Copy-3" fill="#CACACA" points="155 129 180 129 180 116 155 116"></polygon>
                    <rect id="Rectangle-Copy-7" stroke="#CACACA" x="56" y="451" width="314" height="63"></rect>
                    <rect id="Rectangle-Copy-8" stroke="#CACACA" x="56" y="528" width="314" height="63"></rect>
                    <path d="M82.1333333,440 L64.8666667,440 C59.99,440 56,435.95 56,431 C56,426.05 59.99,422 64.8666667,422 L82.1333333,422 C87.01,422 91,426.05 91,431 C91,435.95 87.01,440 82.1333333,440 Z" id="Stroke-42-Copy-2" stroke="#CACACA"></path>
                    <path d="M87,431.5 C87,434.537913 84.5374348,437 81.5,437 C78.4625652,437 76,434.537913 76,431.5 C76,428.462087 78.4625652,426 81.5,426 C84.5374348,426 87,428.462087 87,431.5" id="Fill-43-Copy-2" fill="#CACACA"></path>
                    <path d="M0.5,186.5 L410,186.5" id="Line-6-Copy-3" stroke="#DCDCDC" stroke-linecap="square"></path>
                </g>
            </g>
        </g>
    </g>
</svg>