<?xml version="1.0" encoding="UTF-8"?>
<svg width="79px" height="619px" viewBox="0 0 79 619" version="1.1" xmlns="http://www.w3.org/2000/svg" xmlns:xlink="http://www.w3.org/1999/xlink">
    <!-- Generator: Sketch 53.2 (72643) - https://sketchapp.com -->
    <title>flowchart-arrows</title>
    <desc>Created with Sketch.</desc>
    <g id="Page-1" stroke="none" stroke-width="1" fill="none" fill-rule="evenodd">
        <g id="flowchart-arrows" fill="#CACACA" fill-rule="nonzero">
            <polygon id="Line-2-Copy-11" points="64.6 311 2 311 2 316 2 317 0 317 0 316 0 304 0 303 2 303 2 304 2 309 64.6 309 64.6 303 78.6 310 64.6 317"></polygon>
            <polygon id="Path-3-Copy-9" points="50.1 613 32.2 613 31.2 613 31.2 612 31.2 7 31.2 6 32.2 6 50.2 6 50.2 0 64.2 7 50.2 14 50.2 8 33.2 8 33.2 611 50.1 611 50.1 605 64.1 612 50.1 619"></polygon>
        </g>
    </g>
</svg>