<?xml version="1.0" encoding="utf-8"?>
<!-- Generator: Adobe Illustrator 16.0.4, SVG Export Plug-In . SVG Version: 6.00 Build 0)  -->
<!DOCTYPE svg PUBLIC "-//W3C//DTD SVG 1.1//EN" "http://www.w3.org/Graphics/SVG/1.1/DTD/svg11.dtd">
<svg version="1.1" id="ford" xmlns="http://www.w3.org/2000/svg" xmlns:xlink="http://www.w3.org/1999/xlink" x="0px" y="0px"
	 width="134.937px" height="82.902px" viewBox="-14.968 -0.001 134.937 82.902"
	 enable-background="new -14.968 -0.001 134.937 82.902" xml:space="preserve">
<g>
	<path fill="#FFFFFF" d="M45.932,36.301c0.497-0.1,1.045-0.511,1.366-0.986c0.295-0.433,0.435-1.056,0.141-1.306
		c-0.26-0.223-0.686-0.161-0.999,0.118c-0.627,0.556-0.817,1.341-0.734,1.928C45.745,36.277,45.83,36.318,45.932,36.301z"/>
	<path fill="#FFFFFF" d="M52.498,20.468c-34.164,0-61.854,9.44-61.854,20.99c0,11.555,27.689,20.995,61.854,20.995
		c34.163,0,61.85-9.44,61.85-20.995C114.348,29.908,86.66,20.468,52.498,20.468z M20.729,55.257
		c-3.651,0.026-6.872-2.23-7.239-6.141c-0.206-2.164,0.408-4.096,1.631-5.686c1.088-1.418,2.93-2.594,4.486-2.882
		c0.506-0.093,1.188-0.036,1.47,0.301c0.441,0.514,0.314,1.079-0.127,1.304c-1.188,0.605-2.621,1.645-3.325,3.062
		c-0.575,1.158-0.688,2.553,0.187,3.885c1.468,2.215,5.557,2.274,9.357-1.258c0.942-0.867,1.784-1.695,2.643-2.68
		c1.676-1.916,2.23-2.613,4.459-5.701c0.024-0.037,0.035-0.081,0.02-0.106c-0.017-0.038-0.048-0.049-0.11-0.055
		c-1.486,0.041-2.783,0.484-4.042,1.426c-0.362,0.265-0.885,0.227-1.114-0.12c-0.252-0.395-0.072-0.907,0.348-1.195
		c2.025-1.408,4.238-1.665,6.498-2.047c0,0,0.158,0.008,0.287-0.164c0.929-1.19,1.63-2.264,2.616-3.468
		c0.997-1.222,2.286-2.344,3.269-3.188c1.375-1.18,2.255-1.578,3.146-2.064c0.237-0.122-0.027-0.271-0.099-0.271
		c-4.998-0.938-10.19-2.152-15.151-0.316c-3.437,1.281-4.94,4.007-4.218,5.828c0.517,1.292,2.215,1.5,3.806,0.723
		c1.321-0.646,2.542-1.69,3.408-3.034c0.485-0.744,1.507-0.206,0.955,1.09c-1.451,3.412-4.226,6.119-7.604,6.231
		c-2.875,0.095-4.729-2.021-4.724-4.631c0.009-5.148,5.742-8.537,11.763-9.044c7.254-0.599,14.12,1.331,21.32,2.205
		c5.518,0.669,10.807,0.683,16.352-0.591c0.656-0.143,1.117,0.274,1.072,0.938c-0.053,0.957-0.797,1.878-2.623,2.874
		c-2.074,1.139-4.248,1.484-6.516,1.504c-5.492,0.047-10.602-2.094-15.892-3.242c0.009,0.23,0.068,0.506-0.127,0.652
		c-2.928,2.162-5.577,4.357-7.35,7.438c-0.062,0.07-0.028,0.139,0.075,0.133c1.539-0.082,2.925-0.122,4.36-0.236
		c0.252-0.021,0.262-0.084,0.237-0.27c-0.126-1.06,0.184-2.271,1.12-3.105c0.954-0.856,2.153-0.956,2.946-0.336
		c0.902,0.701,0.823,1.966,0.33,2.915c-0.502,0.963-1.331,1.477-2.13,1.727c0,0-0.167,0.037-0.144,0.188
		c0.031,0.244,1.118,0.845,1.212,1.007c0.089,0.152,0.043,0.389-0.125,0.567c-0.114,0.133-0.292,0.258-0.522,0.253
		c-0.188-0.005-0.3-0.068-0.538-0.197c-0.485-0.265-1.097-0.698-1.5-1.208c-0.14-0.174-0.208-0.178-0.557-0.161
		c-1.555,0.092-3.981,0.327-5.623,0.533c-0.398,0.049-0.46,0.122-0.543,0.26c-2.617,4.322-5.417,8.982-8.49,12.104
		C26.375,54.352,23.637,55.233,20.729,55.257z M91.805,34.256c-0.512,0.878-10.309,15.795-10.93,17.338
		c-0.197,0.489-0.221,0.861-0.018,1.131c0.512,0.693,1.65,0.289,2.369-0.209c2.123-1.463,3.588-3.232,5.219-4.783
		c0.096-0.069,0.252-0.096,0.365-0.002c0.24,0.223,0.59,0.512,0.834,0.766c0.113,0.122,0.07,0.243,0.01,0.317
		c-1.594,1.946-3.355,3.782-5.039,5.083c-2.623,2.027-5.234,2.546-6.533,1.244c-0.482-0.484-0.742-1.178-0.773-1.762
		c-0.02-0.316-0.184-0.332-0.332-0.187c-1.547,1.53-4.232,3.225-6.674,2.019c-2.047-1.009-2.52-3.445-2.135-5.5
		c0.006-0.046-0.037-0.334-0.287-0.162c-0.428,0.306-0.984,0.645-1.676,0.899c-0.85,0.315-1.25,0.437-2.039,0.429
		c-0.99-0.008-1.883-0.429-2.514-1.41c-0.352-0.531-0.496-1.34-0.531-1.932c-0.004-0.064-0.088-0.184-0.186-0.031
		c-1.666,2.547-3.227,5.012-4.879,7.602c-0.086,0.121-0.16,0.199-0.33,0.206c-1.025,0-2.143-0.003-3.273,0.004
		c-0.2,0-0.295-0.152-0.188-0.347c0.583-1.123,3.754-5.748,5.911-9.686c0.592-1.08,0.475-1.639,0.104-1.878
		c-0.465-0.298-1.383,0.151-2.156,0.741c-2.113,1.604-3.89,4.098-4.788,5.212c-0.533,0.655-1.031,1.625-2.417,3.128
		c-2.178,2.365-5.068,3.727-7.853,2.785c-1.521-0.512-2.619-1.733-3.04-3.232c-0.083-0.291-0.247-0.372-0.403-0.181
		c-0.452,0.56-1.37,1.387-2.141,1.909c-0.083,0.059-0.289,0.181-0.47,0.092c-0.161-0.07-0.731-0.877-0.845-1.109
		c-0.083-0.172-0.011-0.355,0.091-0.443c1.101-0.967,1.699-1.515,2.18-2.113c0.354-0.45,0.627-0.954,0.949-1.762
		c0.668-1.686,2.189-4.832,5.226-6.459c1.159-0.619,2.332-1.065,3.637-1.216c0.562-0.062,1.02,0.008,1.188,0.447
		c0.062,0.182,0.217,0.583,0.313,0.877c0.058,0.18,0.02,0.315-0.194,0.396c-1.791,0.681-3.587,1.734-4.828,3.396
		c-1.405,1.887-1.786,4.159-0.845,5.467c0.689,0.946,1.8,1.112,2.867,0.774c1.62-0.513,3-2.024,3.71-3.699
		c0.771-1.829,0.899-3.998,0.327-5.901c-0.094-0.328-0.013-0.583,0.202-0.758c0.434-0.348,1.026-0.621,1.197-0.715
		c0.37-0.205,0.81-0.056,1.018,0.25c0.591,0.876,0.91,2.112,0.94,3.388c0.04,0.27,0.154,0.275,0.284,0.137
		c1.057-1.126,2.043-2.325,3.172-3.232c1.027-0.82,2.346-1.487,3.582-1.459c1.592,0.034,2.387,1.117,2.332,3.041
		c-0.006,0.249,0.174,0.23,0.287,0.062c0.479-0.678,0.791-1.016,1.346-1.471c1.096-0.908,2.225-1.318,3.4-1.233
		c1.447,0.105,2.605,1.432,2.367,2.935c-0.148,0.969-0.676,1.823-1.566,2.266c-0.758,0.369-1.643,0.308-2.26-0.246
		c-0.504-0.467-0.67-1.129-0.535-1.795c0.029-0.137-0.148-0.268-0.301-0.111c-1.414,1.472-1.521,3.378-0.594,4.234
		c1.021,0.945,2.547,0.313,3.666-0.414c2.045-1.336,3.627-3.144,5.461-4.539c1.213-0.923,2.602-1.744,4.154-1.952
		c0.859-0.116,1.688-0.053,2.535,0.292c1.109,0.447,1.812,1.388,1.902,2.204c0.021,0.237,0.205,0.269,0.354,0.059
		c0.877-1.376,5.604-8.457,5.99-9.198c0.119-0.234,0.246-0.266,0.5-0.266c1.051,0,2.373-0.001,3.379-0.001
		C91.799,33.989,91.887,34.101,91.805,34.256z"/>
	<path fill="#FFFFFF" d="M78.59,43.468c-1.168-0.561-2.945,0.467-4.555,2.446c-1.314,1.618-2.027,3.267-2.053,4.873
		c-0.01,0.571,0.205,1.276,0.709,1.538c1.133,0.598,2.51-0.291,3.498-1.109c0.65-0.537,1.193-1.098,1.674-1.813
		c0.521-0.776,0.904-1.292,1.326-2.185c0.055-0.119,0.021-0.158-0.027-0.176c-0.145-0.052-0.291-0.164-0.311-0.277
		c-0.025-0.067-0.021-0.14,0.021-0.226C79.412,45.441,79.795,44.046,78.59,43.468z"/>
	<path fill="#FFFFFF" d="M52.498,16.365c-37.132,0-66.898,11.131-66.898,25.084c0,13.872,30.013,25.086,66.898,25.086
		c36.891,0,66.903-11.252,66.903-25.086C119.402,27.618,89.389,16.365,52.498,16.365z M52.498,64.352
		c-35.404,0-64.106-10.248-64.106-22.896c0-12.648,28.702-22.895,64.106-22.895c35.401,0,64.102,10.246,64.102,22.895
		C116.6,54.104,87.898,64.352,52.498,64.352z"/>
</g>
</svg>
