<?xml version="1.0" encoding="utf-8"?>
<!-- Generator: Adobe Illustrator 16.0.4, SVG Export Plug-In . SVG Version: 6.00 Build 0)  -->
<!DOCTYPE svg PUBLIC "-//W3C//DTD SVG 1.1//EN" "http://www.w3.org/Graphics/SVG/1.1/DTD/svg11.dtd">
<svg version="1.1" id="general" xmlns="http://www.w3.org/2000/svg" xmlns:xlink="http://www.w3.org/1999/xlink" x="0px" y="0px"
	 width="134.937px" height="82.902px" viewBox="-14.968 -0.001 134.937 82.902"
	 enable-background="new -14.968 -0.001 134.937 82.902" xml:space="preserve">
<rect x="-14.968" y="-0.001" fill="none" width="134.937" height="82.902"/>
<g>
	<path fill="#FFFFFF" d="M64.91,44.528c-0.771-0.006-1.479-0.157-1.256-0.867c0.217-0.688,0.972-0.84,2.102-0.672
		c0.602,0.092,0.477,0.914,0.18,1.172C65.661,44.397,65.516,44.53,64.91,44.528L64.91,44.528z"/>
	<path fill="#FFFFFF" d="M75.775,54.817c-1.91,0.033-2.867-0.882-2.867-0.882l0.295-1.706c0,0,1.145,1.219,2.766,0.967
		c0.787-0.123,1.793-1.299,0.955-1.959c-1.428-1.116-4.166-1.328-2.867-4.475c0.707-1.717,3.057-2.08,4.389-1.777
		c1.101,0.25,1.524,0.846,1.524,0.846s-0.241,1.193-0.345,1.66c-0.887-0.502-1.816-1.07-2.766-0.814
		c-1.002,0.271-1.396,1.441-0.887,1.928c1.008,0.956,2.449,0.971,2.952,2.321c0.418,1.127-0.129,2.481-1.015,3.122
		C77.287,54.499,76.604,54.803,75.775,54.817L75.775,54.817z"/>
	<polygon fill="#FFFFFF" points="65.85,54.666 67.854,54.666 69.804,43.133 67.746,43.133 	"/>
	<path fill="#FFFFFF" d="M62.027,54.666h2.11l1.724-9.343c0,0-0.592,0.162-1.18,0.162c-0.427,0-0.982-0.162-0.982-0.162
		L62.027,54.666L62.027,54.666z"/>
	<polygon fill="#FFFFFF" points="69.518,54.666 71.521,54.666 73.473,43.133 71.415,43.133 	"/>
	<polygon fill="#FFFFFF" points="49.761,54.69 51.845,43.334 54.893,43.347 55.494,51.753 59.329,43.362 62.428,43.362 
		60.443,54.718 58.434,54.677 59.836,46.567 55.984,54.69 54.145,54.69 53.062,46.806 51.66,54.69 	"/>
	<polygon fill="#FFFFFF" points="100.562,40.789 102.566,40.789 104.518,29.257 102.461,29.257 	"/>
	<path fill="#FFFFFF" d="M74.203,33.002c-1.902,0.11-2.581,1.967-2.648,2.075l-1.123,5.718h-2.057l1.711-9.646h1.923l-0.013,1.414
		c0,0,1.488-1.941,3.475-1.642c2.391,0.358,2.07,2.726,1.99,3.553c-0.068,0.708-1.083,6.32-1.083,6.32H74.32l1.123-6.333
		C75.443,34.462,75.537,32.925,74.203,33.002L74.203,33.002z"/>
	<path fill="#FFFFFF" d="M79.968,36.751h5.91c0,0,1.576-4.996-1.951-5.559c-3.762-0.598-5.782,2.652-5.985,5.491
		c-0.348,4.853,3.324,4.705,5.237,4.237c0.988-0.241,1.632-0.83,1.632-0.83l0.428-2.059c0,0-2.42,2.26-4.531,1.217
		C79.6,38.702,79.968,36.751,79.968,36.751L79.968,36.751z M80.302,35.106c0.076-0.22,0.683-1.797,2.349-1.945
		c1.412-0.125,2.08,0.33,1.893,1.945H80.302L80.302,35.106z"/>
	<path fill="#FFFFFF" d="M62.129,36.751h5.911c0,0,1.575-4.996-1.951-5.559c-3.762-0.598-5.782,2.652-5.985,5.491
		c-0.349,4.853,3.323,4.705,5.237,4.237c0.988-0.241,1.632-0.83,1.632-0.83l0.426-2.059c0,0-2.418,2.26-4.529,1.217
		C61.759,38.702,62.129,36.751,62.129,36.751L62.129,36.751z M62.464,35.106c0.076-0.22,0.683-1.797,2.351-1.945
		c1.408-0.125,2.076,0.33,1.89,1.945H62.464L62.464,35.106z"/>
	<path fill="#FFFFFF" d="M91.38,33.024c-1.587,0.234-1.961,1.571-2.021,1.914l-1.096,5.854h-2.15l1.75-9.821h1.804v1.563
		c0,0,0.834-1.795,2.245-1.645c0.66,0.07,1.008,0.284,1.008,0.284l-0.414,2.085C92.505,33.259,92.074,32.923,91.38,33.024
		L91.38,33.024z"/>
	<path fill="#FFFFFF" d="M97.677,36.573c0,0-0.401,2.912-2.728,2.858c-1.186-0.026-0.997-1.213-0.35-1.741
		C95.874,36.653,97.677,36.573,97.677,36.573L97.677,36.573z M96.889,40.047l0.145,0.748h1.951l1.256-6.493
		c0,0,0.75-3.238-2.885-3.447c-2.779-0.16-3.822,1.551-3.822,1.551l-0.319,2.219c0,0,1.39-1.82,3.261-1.791
		c1.735,0.025,1.684,0.721,1.735,1.041c0.056,0.32-0.095,1.312-2.084,1.684c-1.709,0.321-4.597,1.385-4.035,3.876
		C92.759,42.397,96.661,40.395,96.889,40.047L96.889,40.047z"/>
	<path fill="#FFFFFF" d="M45.587,34.407c1.227-7.068,4.785-11.011,4.785-11.011l-7.004-0.102c-1.774,1.252-4.055,3.292-7.866,3.744
		c0.186-0.437,0.3-0.709,0.33-0.776c0.317-0.71,1.44-3.066,1.768-4.952c0.891-5.132-2.404-8.84-6.605-9.568
		c-6.666-1.156-11.492,4.561-12.326,9.365c-0.677,3.902,1.02,9.039,6.312,11.739l-0.979,2.356c-0.201-0.041-0.402-0.077-0.606-0.113
		c-13.005-2.257-21.2,5.105-22.68,13.633C-0.938,58.254,6.34,68.716,19.218,70.95c12.1,2.101,23.719-5.133,26.04-18.516
		C46.488,45.341,44.207,42.354,45.587,34.407L45.587,34.407z M25.777,21.798c0.385-2.214,2.021-3.29,3.268-3.073
		c0.754,0.131,1.176,0.76,1.043,1.527c-0.085,0.491-1.412,3.656-1.953,4.986l-0.271,0.653
		C26.134,25.022,25.445,23.716,25.777,21.798L25.777,21.798z M37.992,51.302c-1.396,8.048-8.585,13.644-17.816,12.04
		C13.435,62.173,7.197,56.61,8.39,49.741c0.566-3.271,4.25-8.668,12.099-7.307c0.161,0.027,0.32,0.057,0.479,0.088L17.91,49.89
		l7.875,0.306c0,0,1.029-2.457,2.429-5.793c2.022,0.701,3.112,1.26,3.112,1.26l2.764-6.67c0,0-1.155-0.674-2.986-1.481
		c0.415-0.987,0.824-1.97,1.224-2.916c3.473,0.019,6.061-1.024,6.061-1.024C37.343,39.583,39,45.493,37.992,51.302L37.992,51.302z"
		/>
	<path fill="#FFFFFF" d="M58.332,39.471c-0.799,0.93-2.325,1.829-3.734,1.829c-3.02,0-3.792-2.46-3.756-4.67
		c0.062-3.812,2.002-7.533,5.463-7.533c1.238,0,2.461,0.195,3.504,1.647l-0.393,2.203c-0.747-1.229-1.778-1.615-2.975-1.629
		c-2.672-0.025-3.657,3.16-3.634,5.361c0.021,1.818,0.785,2.706,2.037,2.706c0.843,0,1.388-0.319,1.865-0.794l0.315-1.785
		l-1.305-0.003l0.336-1.688h3.067L58.332,39.471L58.332,39.471z"/>
</g>
</svg>
