<?xml version="1.0" encoding="UTF-8"?>
<svg width="38px" height="38px" viewBox="0 0 38 38" version="1.1" xmlns="http://www.w3.org/2000/svg" xmlns:xlink="http://www.w3.org/1999/xlink">
    <!-- Generator: Sketch 53.2 (72643) - https://sketchapp.com -->
    <title>j-icon</title>
    <desc>Created with Sketch.</desc>
    <g id="Page-1" stroke="none" stroke-width="1" fill="none" fill-rule="evenodd">
        <g id="j-icon" fill="#000000" fill-rule="nonzero">
            <path d="M19,0 C8.50658975,-6.42536064e-16 1.28507213e-15,8.50658975 0,19 C-1.28507213e-15,29.4934102 8.50658975,38 19,38 C29.4934102,38 38,29.4934102 38,19 C38,13.9608867 35.99822,9.12816235 32.4350288,5.56497116 C28.8718377,2.00177997 24.0391133,3.08556699e-16 19,0 Z M27.73,22.86 C27.7660283,23.371456 27.5785044,23.8734041 27.2159542,24.2359542 C26.8534041,24.5985044 26.351456,24.7860283 25.84,24.75 L12.31,24.75 C11.798544,24.7860283 11.2965959,24.5985044 10.9340458,24.2359542 C10.5714956,23.8734041 10.3839717,23.371456 10.42,22.86 L10.42,18.86 C10.4141897,18.7469278 10.4565706,18.6366899 10.5366302,18.5566302 C10.6166899,18.4765706 10.7269278,18.4341897 10.84,18.44 L18.42,18.44 L18.42,23.26 L19.42,23.26 L19.42,12.57 C19.4096666,12.5138044 19.4096666,12.4561956 19.42,12.4 C19.4836063,12.2422083 19.6400629,12.1419156 19.81,12.15 L27.31,12.15 C27.4239536,12.1408384 27.5361887,12.1821366 27.617026,12.262974 C27.6978634,12.3438113 27.7391616,12.4560464 27.73,12.57 L27.73,22.86 Z" id="Shape"></path>
        </g>
    </g>
</svg>